<svg id="Layer_1" data-name="Layer 1" xmlns="http://www.w3.org/2000/svg" viewBox="0 0 295.43 230.16">
  <title>blinkenbike-bolts</title>
  <path d="M563.06,288.38c.3-1.32,2.33-1.4,2.18-3.5-8.84-.95-17.55-2.77-25.36-7.46-2.06-.51-2.48-2.29-3.38-3.88-2.81-5-4.46-10.69-9.29-14.33a4.12,4.12,0,0,1-1.48-4c.2-3.13-.22-6.28.23-9.4.68-8.95,5.76-15,13-19.53a39.48,39.48,0,0,1,12.43-5c4.28-.93,8.71-.78,9.25-7.41.34-4.23,6.89-6.3,12.15-5.11,3.88.88,7.83,6,7,10-.65,3,1.27,3,2.84,3.49,7,2.33,13.51,5.56,18.69,11,5.37,5.68,7.92,12.37,6.37,20.07-.78,3.91,1,3.67,3.56,3.27.43,1.44-.5,2.28-1.56,2.71-7,2.83-12.24,8.41-18.71,12.11-8.57,4.92-17.55,9.31-24.47,16.71C565.61,289.12,564.29,289.81,563.06,288.38Z" transform="translate(-343.4 -208.44)" fill="#300d0e"/>
  <path d="M530.91,343.47c4.25-14.9,15.75-20.91,29.58-24,2.81-.62,4.72-1.34,6.33-4.37,2.1-4,6.8-5.58,11.21-5.47a9,9,0,0,1,9,7.26c.63,3,2.11,3.84,4.66,4.76,11.3,4.09,20.77,10.33,24.66,22.58,2.22,15.3-1.5,24.63-17.63,32.78-6.87,3.47-13.41,5.52-20.85,2.21-2.39-1.06-5.21-.41-7.55-1,.52.46,1.46.28,2.32.35,1.62.11,3,.6,3.3,2.4a3.81,3.81,0,0,1-1.5,4c-2.11,1.63-4.35,3.25-7.14,3.11-1.87-.09-3.6.44-5.41.51-3.88-.88-6.46-3.69-9.19-6.26-2.06-2.87-6.54-3.64-6.93-8-.09-8.24,2.35-11.2,10.62-13,4.42-.95,8.92-1.76,9.26-7.78.1-1.76,2-2,3.51-2.19a37.16,37.16,0,0,1,6,.32,7.16,7.16,0,0,0,7.12-3.66c.57-1,1.34-2.09.61-3.24-.86-1.32-2-.41-3.14-.19-4.5.92-6.44-.47-6.66-5.33-.24-5.33-.51-10.59-2.27-15.7-1.21-3.51-3.15-3.9-6.33-2.37-2,1-2.19,2.16-1.66,4,1.07,3.62-.56,5.24-4.07,5.74a16.37,16.37,0,0,0-10.09,5,3.94,3.94,0,0,1-3,1.61c-5.43-.5-8.82,3.22-12.72,5.91C532.26,343.83,531.58,344.07,530.91,343.47Z" transform="translate(-343.4 -208.44)" fill="#370c0c"/>
  <path d="M563.06,288.38a2.69,2.69,0,0,0,2.7-.87c7.26-8.8,17.93-12.65,27.07-18.71,6.13-4.07,12.27-8.1,18.4-12.15,3.86-.29,3.38,3.14,4,5.15,1.16,3.77,2.57,4.57,5,1.15,2.06-2.91,5-3.87,8.24-3.9,3.77,0,7.51.84,9,4.89,2.43,6.49,1.67,8.85-3.29,12.11-.83.55-1.77.95-2.55,1.56-9.23,7.33-9.18,7.32-5.54,18.81,1.55,4.9,2.87,9.87,4.3,14.81,2.36,8.62-3,15.44-11.51,14.54-17.53-8.47-35.37-16.32-52.21-26.17-.88-.52-2,.53-2.57-.7a2.17,2.17,0,0,0-.57-.79c-5.49-4.46-5.5-4.74-.51-9.78Z" transform="translate(-343.4 -208.44)" fill="#110e1e"/>
  <path d="M396.26,310.6a10.22,10.22,0,0,1-5.66,1.12c-6.32,1.39-12.35-.28-18.37-1.84-1.57-.41-3.11-1.18-3.56-3.05.22-3.62,3.12-5.75,4.85-8.51,9.11-14.47,18.77-28.58,28.3-42.78,1.84-2.74,4.15-5.15,5.43-8.3.61-1.52,1.72-2.92,3.8-2.58,15.51,6.91,21.65,28.87,12.63,45a44.56,44.56,0,0,1-11,12.77c-1.36,1.11-3.26,1.74-3.93,3.85l3.46.39a1,1,0,0,1-.16,1.29c-4,1.34-8.7-.85-12.38,2.32C398.57,310.65,397.32,309.53,396.26,310.6Z" transform="translate(-343.4 -208.44)" fill="#3d1013"/>
  <path d="M403.45,240.52a7.6,7.6,0,0,1,3.88,1.9c2,1.6,1,3.16,0,4.79-4.74,8-10.18,15.46-15.26,23.19-7,10.65-14.38,21-21.18,31.81a13.65,13.65,0,0,1-3,3.88c-6.53-.94-11.37-4.87-14.76-10-6.2-9.36-6.59-19.63-2.69-30.1a6.35,6.35,0,0,1,3.26-3.59,22.42,22.42,0,0,0,6.76-5.76c-.51.42.07-.16,0-.07-2,2.45-3.74,3.45-4.1-.87-.21-2.56,1.64-4.28,3.44-5.79,11.95-10,25.49-13.74,40.83-10.16A10.94,10.94,0,0,1,403.45,240.52Z" transform="translate(-343.4 -208.44)" fill="#3d1013"/>
  <path d="M526,245.85a43.38,43.38,0,0,1,.22,5.91c-.34,3.57.93,5.54,3.77,8.14,3.64,3.34,5.58,8.63,7.87,13.26.69,1.39.82,3.09,2.06,4.26-2.2-.06-3,1-2.53,3.11a35.16,35.16,0,0,0,1,4.38c5.61,14.61-3.66,26.07-8.07,38.56-4.35-2.05-8.94-3.54-13.24-5.7-2.23-1.12-4.45-.6-6.78-.43-6,.46-12.22,2.42-17.68-2-2.34-5.41-3.36-11.24-5.28-16.79-.35-2.89-2.1-5.72-.41-8.71,1.91-1.06,2.32.69,2.84,1.71,1.88,3.7,3.88,7.39,3.6,11.76a5.57,5.57,0,0,0,0,1c.63,5.13,5.48,9.53,9.79,8.88,1.69-.25,5.16-7.32,4.82-10.21a65.24,65.24,0,0,0-2.49-12.19c-2.78-8.54-.29-16.39,2.06-24.34,1.18-4,2.7-7.82,1.82-12.14-.61-3,1.38-2.26,3-1.77,3.21,1.16,6.48,2.19,9.61,3.54,2.33,1,3.22.66,3.26-2S525.7,248.58,526,245.85Z" transform="translate(-343.4 -208.44)" fill="#a4611e"/>
  <path d="M494.42,343.51c.73,1.47,1.57,2.91,2.18,4.43,3.25,8.15,3.22,8.11,11.61,4.82,7.28-2.86,14.6-5.59,21.9-8.38a11.5,11.5,0,0,0,6.27-1.09,12.89,12.89,0,0,1,5.85-1c4.94.1,8.54,2.42,8.81,5.67s-3.59,8.17-7.81,8.43c-5.42.34-10.34,2.24-15.42,3.69a5.28,5.28,0,0,1-4.17-1.53c-2.21-2.36-4.52-2.12-6.88-.24-2.66,2.13-5.46,4.09-7.7,6.7-1.95,2-3.4,4.18-1.41,7a7.32,7.32,0,0,1,.54,1.29c.74,2.73,1.28,5.51,2.23,8.18,2,5.27,4.61,10.33,5.82,15.9a6.1,6.1,0,0,1-2.4,4.74c-4.1,3.46-7.38,8-12.76,9.79-3.59-.48-4.8-3.26-5.94-6.12-7.82-15.46-12.33-32.25-19.37-48-2.42-5.43-1.21-8.19,4.63-9.66C485.22,346.94,489.26,343.52,494.42,343.51Z" transform="translate(-343.4 -208.44)" fill="#161732"/>
  <path d="M553.34,381.54l8,6.07c.65,1.05,2.3-.17,2.79,1.23,2.13,5.66,7.92,7.65,11.74,11.62,2,2.07,4.47,3.65,3.12,7.07-2.69,3.45-6.42,5.75-9.55,8.72-2.71,2.58-5.53,1.12-8.16-.61-5.88-3.86-9.88-10-15.85-13.61-10.7-6.51-18.37-16.66-28.91-23.37-6.3-4-7-7-4.39-11.34,3.39-5.73,10.42-8.45,15.81-5.65,5.93,3.09,10.74,7.79,15.73,12.15C546.76,376.55,549.75,379.4,553.34,381.54Z" transform="translate(-343.4 -208.44)" fill="#c07a1d"/>
  <path d="M512.35,252.53c-.64.43-2.67-.36-1.9,1.07,2.05,3.78.52,7.55-.76,10.48-4.95,11.34-4.75,22.59-1.39,34.14,1.17,4,3.06,8.17-1.44,11.64-.66.51-.49,2.16-.62,3.3s-.2,2-1.46,2.26c-4.24.91-13.69-6.13-13-10.63.89-6.08-2.33-10.34-4.54-15.16-3.52-.86-2.45-4.69-4.3-6.63-1.19-2.54,1.8-5.09,0-7.63.47-4.57,5.85-6.24,6.3-10.62-3.43,5-6.66,10.34-10.55,15.2-2.84,3.55-5.47,3.3-8.89-.36a2.52,2.52,0,0,1,.46-1.35c3.79-1.49,5.49-5.21,8.26-7.79,4.38-4.1,8.81-8.71,11.08-14,4-9.3,9-18.27,11.37-28.28.32-1.41-.23-3.61,2.36-3.64a32.07,32.07,0,0,1-.49,11.76c-.71,3.56-2,7-3,10.52-1.52,5.46-1,5.95,4.78,5.48C507.17,252.11,509.81,251,512.35,252.53Z" transform="translate(-343.4 -208.44)" fill="#b56f1f"/>
  <path d="M503.27,224.56c-1.72,5.28-3.31,10.61-5.19,15.84-1.08,3-1,6.75-4.73,8.26a1.61,1.61,0,0,0-.89,2.1c1.28,3.8-1.26,6.51-3.12,9-4.44,5.86-9.45,11.3-14.21,16.93a5.73,5.73,0,0,1-4.89,2c-3.33,1.45-5.81-.15-7.77-2.52s-.76-4.57.59-6.85c3.28-5.54,6.12-11.36,10.18-16.42,5.31-6.63,6.57-15,9.69-22.59,1.64-4,3-8.06,5.3-11.72C494,218.55,498.66,221.53,503.27,224.56Z" transform="translate(-343.4 -208.44)" fill="#c07928"/>
  <path d="M501.08,412c4.88-4.76,10.94-8.34,14.51-14.43,2.1-2.68,4.54-5,6.88-7.51a5.47,5.47,0,0,1,2.13-.52c2.06.15,4.06.42,4.91,2.73-3.09,3.34-3.81,8.07-6.53,11.56-3.26,4.16-7.56,7.38-11.28,11.15-4.07,4.12-7.69,8.65-11.91,12.62,5.15,0,7.11-3.47,9.81-7.15,5.9-8,14.1-13.86,22.51-19.2a33.37,33.37,0,0,0,4.07-2.8c2.55,0,3.56,1.42,3.66,3.76a3.53,3.53,0,0,1-1.11,1.87c-7.16,6.65-14.77,12.81-21.43,20-3.24,4-7.5,6.89-10.64,11a8.54,8.54,0,0,1-10.82,2.58c-3.18-1.72-7.29-3.65-7.75-8.23s1.76-7.44,5.54-9.72A18.08,18.08,0,0,0,501.08,412Z" transform="translate(-343.4 -208.44)" fill="#bc7726"/>
  <path d="M396.26,310.6c.75-1.19,1.94-1,3.07-1,6.28,2.7,10.5,8,15.45,12.37q13.31,11.68,26.85,23.09a15.21,15.21,0,0,0,4.18,2.7c3.34,1.28,5.81,1.11,7.67-2.76,7.26-15.13,15.94-29.51,23.56-44.45.92-.26,1.38,0,1.26,1A30.87,30.87,0,0,1,474,318.66c-7.28,13.06-14.28,26.27-21.25,39.49-2.08,4-4.14,4.48-7.61,1.45q-21.57-18.87-43.4-37.43c-2.36-2-2.56-4.37-2.67-7.08C399,313.2,399.89,310.37,396.26,310.6Z" transform="translate(-343.4 -208.44)" fill="#23232c"/>
  <path d="M448.89,275.4c4.14-19.35,14.51-35.62,25.56-51.54,2.81-4,7.43-4.39,11.77-5.16.72,4.76-2.59,8.37-3.65,12.65-4,16.08-13.91,28.94-23.33,42.06C455.87,274.5,453,278.4,448.89,275.4Z" transform="translate(-343.4 -208.44)" fill="#8e6638"/>
  <path d="M403.45,240.52c-8.59-1.27-17.08-1.3-25.58,1a42.56,42.56,0,0,0-19.07,11,4.29,4.29,0,0,0-1,5.51c2-1.62,2.69-4.42,6.78-5.58-4.14,4.45-5.45,9.63-10.87,11.19a3,3,0,0,0-2,2.05c-5.86,16.32-1.61,33.39,16.52,39.87a.58.58,0,0,1,1,0c.12,2,1.39,2.56,3.19,3.07,5.95,1.7,11.84,3.61,18.17,3-7.66,1.65-14.92,1.19-22.15-2.49-4.23-2.15-8.49-3.91-12.44-6.8-12.43-9.13-14.45-21.49-11.29-35.16,5.29-23,33.37-37.3,55.3-28.67A27,27,0,0,1,403.45,240.52Z" transform="translate(-343.4 -208.44)" fill="#3e2525"/>
  <path d="M412.23,307.61v-.91c5.73-.69,11.45-1.45,17.19-2,2.79-.28,3.79-1.44,3.11-4.24a27.09,27.09,0,0,1,0-11.27,9,9,0,0,1,7.65-7.5c5-.86,9.14.57,12.2,4.75,2.91,2.16,2.06,5.34,2.18,8.24.11,2.43-.62,5.05,1.84,6.84-1.33,3.53-5.42,3-7.78,5.32-1.93,1.87-4.69,2.93-6.65,5s-5,2.82-6.44.25c-3.95-7.13-9.87-4.19-15.27-3.57C417.41,308.86,414.71,309.67,412.23,307.61Z" transform="translate(-343.4 -208.44)" fill="#161422"/>
  <path d="M494.42,343.51a55,55,0,0,1-13.57,5.8c-5.62,1.61-5.83,3.49-3.59,9,6.24,15.26,12,30.7,17.93,46.08a3.93,3.93,0,0,1-.05,1.48c-8.19-12.32-16.49-24.57-24.53-37s-8.73-8.61,3.38-19.42c4.87-4.35,11.72-5.32,17.81-7.51A1.92,1.92,0,0,1,494.42,343.51Z" transform="translate(-343.4 -208.44)" fill="#31313e"/>
  <path d="M564.09,388.84c-.91-.44-2.23,0-2.79-1.23a18,18,0,0,0,11.83-2.95c1.21-.76,2.11-1.58,2-3.12-.1-1.9-1.53-1.76-2.85-2a13.4,13.4,0,0,1-6.4-2.63c4.69.4,9.85-.27,14,1.5,3.94,1.7,7.65,1.89,10.91.66,8.68-3.24,16.75-7.42,22.39-15.57,4.28-6.2,2.45-12.79,3.23-19.23,3.27,11.15.73,31.1-12.61,37-5.52,2.43-10.64,6.31-16.93,7.39A79.57,79.57,0,0,1,564.09,388.84Z" transform="translate(-343.4 -208.44)" fill="#431f1d"/>
  <path d="M539.23,402.56c-.05-2-1.4-3.09-3-4-2.9-1.34-5.77-2.72-7-6-1.3-1.65-3.19-1.94-5.09-2.19-1-5.32-6-7.12-9.24-10.51-2.47-2.59-6-4.14-7.39-7.82a4.88,4.88,0,0,1,1.18-5,91.17,91.17,0,0,1,8.72-8.75c2-1.8,4.32-2.37,6.73-.58l3.09,1.85c1.85.35,3.21,1.56,4.69,2.58,3.92,3,7.88,5.9,11.54,9.2,1.08,1,2.52,1.64,2.57,3.38,1.81,2.94,5.55,3.82,7.29,6.83-6.55-2.1-10.59-7.72-16-11.42a75.35,75.35,0,0,1-6.13-5.05c-5.78-4.87-11.53-4.57-16.77.9-3.47,3.61-3.24,5.75.14,9.57,2.5,2.82,6,4.1,8.75,6.5,12.68,11,25.58,21.7,38.42,32.51,3,2.52,5.77,2.82,8.61-.47,2.37-2.76,5-5.3,8.6-6.54.68,1.75-.47,2.79-1.58,3.74-3.65,3.12-7.36,6.18-11,9.26-7-2.63-12.07-8.08-17.79-12.55C545.65,405.74,543,403.28,539.23,402.56Z" transform="translate(-343.4 -208.44)" fill="#a36416"/>
  <path d="M453.32,286.45a4.79,4.79,0,0,1,2.94-1.54c2.55.63,4.62-2.15,7.24-1,5.11,1,10.2.55,15.3-.18,2.36-.34,4.45.25,5.29,2.64,1.18,3.35,3.5,6.86,1.16,10.37-1.66,2.48-4.65,2.47-7.27,1.43-5.26-2.09-9.92-.15-14.62,1.86-7.41,1.44-9.59-.31-9.6-7.71A20.18,20.18,0,0,0,453.32,286.45Z" transform="translate(-343.4 -208.44)" fill="#ab6214"/>
  <path d="M531.09,362.9c-1.17-1.24-3.21-1.49-3.84-3.35,4.42-2.07,8.66-4.54,13.91-4.07,1.61.15,3.69.15,5.06-1.37,1.91-2.14,5-3.93,3.34-7.47-1.37-3-8.27-4.3-12.25-2.34-2.53,1.25-4.77,2.23-7.2.08l.8-.91,1.45-.89c2.63-1,4.92-2.68,7.52-3.74,5.94-2.43,11.56-1,15,3.89,4.2,5.89,2.81,11.62-3.76,14.69C544.79,360.39,537.82,361.25,531.09,362.9Z" transform="translate(-343.4 -208.44)" fill="#170f22"/>
  <path d="M493.22,314.62c5.08,3.65,10.87,2.2,16.2,1.5,3.6-.47,6.39-.55,9.75,1.13,2.82,1.41,5.63,3.48,9.14,3.41,1.86,0,1.89,1.45,1.93,2.81-6,2.29-12.26,1-18.38.69-2.5-.12-5.3,0-7.65-1.47-2.42-1.87-5.64-1.87-8.17-3.49C494.39,318.14,491.88,317.55,493.22,314.62Z" transform="translate(-343.4 -208.44)" fill="#865323"/>
  <path d="M369.24,305.62c-.33,0-.66,0-1,0,2.55-7.31,7.65-13.06,11.87-19.35q13.29-19.81,26.53-39.64a4.08,4.08,0,0,0,.67-4.19c1.49.33,3,.67,3.72,2.24-5.77,7.78-10.77,16.12-16.47,23.92C385.75,280.68,379.09,294.24,369.24,305.62Z" transform="translate(-343.4 -208.44)" fill="#59262c"/>
  <path d="M459.23,272.56q8.56-13.59,17.15-27.18a35.8,35.8,0,0,0,4.56-11.91c1.09-5.23,3.37-9.91,5.28-14.77l2-.2c.37,4.74-2.76,8.39-4.23,12.49-2.74,7.63-4.33,15.83-9.62,22.42-4,5-6.91,10.71-10,16.32-2.73,5-2.54,6.08,3,8,.93.33,1.89.58,2.84.86,0,.36,0,.71-.05,1.07-1.42,1.27-2.93.61-4.43.23C462.52,278.4,458.67,277.44,459.23,272.56Z" transform="translate(-343.4 -208.44)" fill="#a3641d"/>
  <path d="M493.22,314.62c1.22,4.52,5.88,3.93,8.82,5.89.9.61,2.37.5,3.1,1.21s-.49.72-.93,1c-11.26-1.26-11.26-1.26-14.35-11.88-.27-.95-.51-1.92-.8-2.87-2.3-7.61-2.67-7.83-10.76-6.34l-1.05-.92c-5.84.5-11.67,1-17.44,2a3.8,3.8,0,0,1-3.62-1c-2.42.14-3.83.08-3.26-3.42.63-3.82,1-8-.57-11.81a1.33,1.33,0,0,1,1,0c1.64,1.82.93,4,.95,6.1.07,6.05,2.87,8,9,6,8.34-2.11,16.68-.52,25,0Q490.75,306.59,493.22,314.62Z" transform="translate(-343.4 -208.44)" fill="#6f421f"/>
  <path d="M459.23,272.56c1.24,3.27,3.4,5.49,7,6.06.86,1.74,3.63,2.7,2.21,5.37a4.4,4.4,0,0,1-5.2.67c-2.34-.55-4.57,2.08-7,.25,1.44-.74,3-1.55.4-2.79-1.9-.92-3.91-1.62-5.88-2.4s-3.57-1.86-1.9-4.32C452.87,276.41,455.58,272.78,459.23,272.56Z" transform="translate(-343.4 -208.44)" fill="#74441f"/>
  <path d="M539.23,402.56c1.5-.73,2.86-1.38,4.52,0,7.48,6.07,15,12,22.58,18-2.67,1.15-4.3-.84-6.16-2.06-6.95-4.56-12.83-10.74-20.8-13.78-1,.3-1.3-.17-1.14-1.1Z" transform="translate(-343.4 -208.44)" fill="#653e1f"/>
  <path d="M538.23,403.61l1.14,1.1c-7.37,6.43-14.24,13.4-22.06,19.31,2.14-4.29,6.1-7,9.36-10.22C530.29,410.17,534.36,407,538.23,403.61Z" transform="translate(-343.4 -208.44)" fill="#99683b"/>
  <path d="M618.9,325.77c8.63-1.62,12-5.87,11.51-14.54a11.26,11.26,0,0,1-7.09,16A4.29,4.29,0,0,1,618.9,325.77Z" transform="translate(-343.4 -208.44)" fill="#272d35"/>
  <path d="M563,288.33c-4.28,4-1.56,7.28,1.08,10.57-2.59-1.16-6.48-1.49-6.78-4.66S560.68,289.92,563,288.33Z" transform="translate(-343.4 -208.44)" fill="#302433"/>
  <path d="M531.09,362.9c3.43-3.45,8.22-3,12.42-4.21,3.52-1,7.26-1.73,10-4.16s3.87-5.66,1.58-9.39c-2.95-4.8-7.36-7.12-11.85-6-3.71.89-6.94,3.19-10.83,3.48,3.85-2.85,6.95-7.23,12.75-6A2.86,2.86,0,0,0,548,335c2.44-3.67,6.42-4.8,10.29-5.21s4.89-1.69,3-4.93c-1.72-2.93-.59-4.8,2.25-4.68s3.54-1.51,4.52-3.38c5.14,6.26,6.21,13.3,6.18,20.67,0,6.83.63,7.32,6.83,5.2,1.2-.41,2.15-.69,3.1.42a3.11,3.11,0,0,1,.72,3.19c-1.36,4.87-5.83,7.6-11,6.74a39.3,39.3,0,0,0-5.43-.35c-1.08,0-2.22.41-2,1.65,1.49,7.54-5,6.84-8.88,8.09a35.39,35.39,0,0,0-7.32,2.81c-2.6,1.54-5.45,3-2.88,6.88.92,1.38-.25,2.08-1.36,2.63Z" transform="translate(-343.4 -208.44)" fill="#2b0a0b"/>
  <path d="M578.77,323.75a2.47,2.47,0,0,1,2.1,2.8c-.07,1.61-1.41,2.06-2.8,2-1.15,0-2.46-.3-2.14-1.9A3.14,3.14,0,0,1,578.77,323.75Z" transform="translate(-343.4 -208.44)" fill="#663e42"/>
  <path d="M456.19,301.64c4.6-.65,9.18-1.45,13.8-1.88,2.41-.23,5-.74,7.26.92-.41,6.11-4.69,10.46-7.23,15.58-4.82,9.71-10.13,19.18-15.09,28.83-2.66,5.18-7,6.32-11.92,2.66-3.31-2.47-6.59-5-9.68-7.74-11.38-10.08-22.68-20.25-34-30.39,3.71-4.41,8.51-1.93,12.9-2,5.4.51,10.64-.85,15.9-1.61,3.09-.44,4.73-.12,6.33,2.79,2.83,5.13,3.59,4.56,8.18.49C446.48,305.89,450.92,302.84,456.19,301.64Z" transform="translate(-343.4 -208.44)" fill="#0c0b13"/>
  <path d="M463.23,284.66a9.08,9.08,0,0,0,5-1.06,5.28,5.28,0,0,1,4.94-1.11c2.05.45,3.72-.41,5.42-1.3a5.83,5.83,0,0,1,4.45,1.19c3.71,1.09,1.78,5.4,4.16,7.25l1.08,8.92c-8.34,1.12-16.68-.56-25,0,4.83-1.5,9.45-4.66,14.83-1.64a5.3,5.3,0,0,0,6.1-.49c1.95-1.52.4-3.29.19-5-.63-5-2.1-7.54-8.29-6.21C472.18,286.09,467.37,287.4,463.23,284.66Z" transform="translate(-343.4 -208.44)" fill="#914c0c"/>
  <path d="M522.6,390.66c-1.1,3.55-3.88,5.39-7,6.86q-3.09-7.83-6.17-15.68c.25-1.18,1.17-1.87,2.11-1.31C515.89,383.15,521,385.06,522.6,390.66Z" transform="translate(-343.4 -208.44)" fill="#f8f8f8"/>
  <path d="M522.6,390.66a49.13,49.13,0,0,0-9.74-8.34c-1.08-.72-2.09-1.81-3.44-.48a23.18,23.18,0,0,1-2.19-9.22.56.56,0,0,1,.95,0c5.29,4.5,10.48,9.13,15.92,13.43,2.19,1.74,1.39,2.88.06,4.33Z" transform="translate(-343.4 -208.44)" fill="#362619"/>
  <path d="M508.18,372.64c-.32,0-.63,0-.95,0h0c-1.8-2.92-.7-5.47,1-7.95,2-3.62,5.67-5.57,8.75-8,2.21-1.74,5.23-2.27,7.2,1a6.8,6.8,0,0,0-7.37,2.9C513.87,364.57,508,366.43,508.18,372.64Z" transform="translate(-343.4 -208.44)" fill="#594228"/>
  <path d="M508.21,364.66a20,20,0,0,0-1,7.95C503.49,369.45,505.53,367,508.21,364.66Z" transform="translate(-343.4 -208.44)" fill="#362619"/>
  <path d="M479.21,281.62c-3.12,3.63-7.31,1.33-11,2q-1-2.49-2-5l4,1.05c3.4,2.35,6.1,2.5,8.51-1.67,2.9-5,6.38-9.67,9.61-14.48.63-.95,1.11-2.08,2.71-2.2.69,6.53-5.18,9.49-7.61,14.25C483.72,278.77,482,280.55,479.21,281.62Z" transform="translate(-343.4 -208.44)" fill="#8a460b"/>
  <path d="M479.21,281.62l4.2-6.05c1.55-.18,2.1.56,1.6,2-.58,1.65-1.3,3.24-2,4.86C481.7,282.5,480.22,283.24,479.21,281.62Z" transform="translate(-343.4 -208.44)" fill="#ece5e0"/>
  <path d="M529.25,392.59c2.27,2.07,5.34,3.21,7,6-.41,4.46-5,3.94-7.42,6-7.67,6.59-16.85,11.63-21.2,21.46-.75,1.71-1.35,3.08-3.54,2-1.52-.77-2.44,0-3.29,1.24s-1.87,1.49-2.88.27c-.88-1.05-.69-1.88.46-2.88,7.93-6.89,14.12-15.56,22.37-22.14a10.32,10.32,0,0,0,3.54-5.84C525,396,525.93,393.27,529.25,392.59Z" transform="translate(-343.4 -208.44)" fill="#cb8936"/>
</svg>
