<svg id="Layer_1" data-name="Layer 1" xmlns="http://www.w3.org/2000/svg" viewBox="0 0 326.99 396.87">
  <title>blinkenbike-basket</title>
  <path d="M789,400c-1.82,11.83-5.31,23.25-8.57,34.71-2.19,7.71-4.23,15.43-5.64,23.31-.66,1.41-1.41,2.8-3.29,2.37-1.69-.4-2.38-1.78-2.53-3.36a22.47,22.47,0,0,0-1.27-6.82c-.77-1.81.29-3.23,1.53-4.42a10.88,10.88,0,0,0,3.46-5.39c.69-3-.42-5.87-3.46-6.06-3.91-.25-6-2.43-8.09-5.06a13.5,13.5,0,0,0-5.56-4.07c-3.09-1.31-4.05,1.11-5.59,2.76a2.43,2.43,0,0,1-3.22.17,3.15,3.15,0,0,1-1.56-3.42c.57-2.59.67-5.28,1.67-7.78a15.3,15.3,0,0,1,2.17-3.3c1-1.34,2.16-2.84.68-4.4s-3.08-.58-4.6.08a9.84,9.84,0,0,0-2.53,1.55c-1.52,1.31-3.15,2.74-2.85,4.93.38,2.67,3.07,1.13,4.47,2.05,1.44,1.48,1.88,3.12.64,4.92s-2.89,1.8-4.87,1.53c-4.36-.59-9,.65-13-2.27a1.36,1.36,0,0,0-1.43-.13c-4.15,3.33-9.52,2.1-14,3.83-3.47,1.33-4.89.4-5.66-3s-2-3.52-4.51-1.11c-.71.69-1.15,1.62-1.83,2.36-1.72,1.88-3.6,2.1-4.78-.31-1.6-3.29-4.15-4.37-7.57-4.67s-5-2.93-5.7-6c-.4-1.85-.84-3.76-2.84-4.32-2.48-.69-3.4,1.57-4.62,3-1.79,2.17-3.22,4.69-6.13,5.63-.63.21-1.56.66-1.44,1.22,1,4.73-3.07,8.87-1.63,13.55.69,2.24.17,4.24-.29,6.34a3,3,0,0,1-.63,1.27c-4.35,1.18-5.38.43-5.71-3.72-.44-5.61-3-10.79-3.31-16.46,0-1.08-.61-2.47-2.06-2.45-1.25,0-1.21,1.33-1.59,2.22-2.52,5.91-5.61,11.57-5.48,18.39.06,3,.3,5.22,3.5,6.19,1.29.38,2.68.95,2.78,2.51.12,1.8-1.35,2.6-2.73,3.17-3.07,1.28-6.18,2.8-9.57,1-3.58-1.86-4.84-.08-5.26,3.21-.16,1.32-.16,2.66-.22,4-.14,3.29.66,4.41,3.89,2.21,2.85-1.94,6.07-1.67,9,.11,3.33,2,5.69,1.63,7.89-1.86,3.24-5.13,6.18-5.21,10-.32,1.54,2,2.74,2.66,4.88,1.18,1-.67,2.23-1,3.18.06s.53,2.14,0,3.27c-4.26,9.38-11.39,15.65-20.89,19.37-1.74.5-3.3,1.76-5.17,1.67-3-.14-4.72-4.41-2.68-7.42,2.18-3.22,1.06-4.07-2.06-5.11-3.92-1.3-8.14-1.55-11.85-3.63-2.49-1.4-5-2.6-6.48-5.21-1-1.67-2.7-2.28-4.49-2.87-4.61-1.52-6-3.92-4.77-8.72,1.65-6.29-.64-12.83,1.9-19.29-4,2-7.47,3.15-10.14-1.18-6.85-.31-7.94-4.81-7.57-10.37-.9-2.66,2.22-6.29,5.79-6.73,3.81-.47,4-.88,1.63-4.62-4.74-1.2-7.47,2-10.34,4.77-1.11,1.5-.53,3.62-1.86,5-.84.47-2.19.2-2.57,1.29-2.9,8.52-11.13,11.8-17.14,17.2-2.12,1.9-3.93,3.4-4.08,6.27-.18,3.54-1.38,6.82-2.56,10.1-.84,2.35-1.61,5.19-4.91,4.54s-2.8-3.57-3.18-6c-1.11-7.23,2.44-13.15,5.2-19.31.24-.53.84-.92.55-2.09-2.53,2.95-2.92,6.53-4.31,9.62-1.22,2.74-2.18,6-6.1,5.25-2.33-.43-2.76-4.67-1.35-8.47.88-2.36,3-3.42,5-5.56-2.94.17-5.92,1.71-7.48-1.66.38-8.06.31-16.17,2.72-24,1.86-3.15,5.23-4,8.29-5.16,10.7-4.15,21.9-6.71,32.8-10.23,4-1.28,7.87-2.65,11.9-3.71,6-1.6,6.22-1.66,7.81,4.27.3.19.77.09.74-.23-.56-4.91.66-8,6.5-6.7a1.88,1.88,0,0,0,1.38-.51c9.35-7.42,21.19-8.3,31.89-12.17,2.48-.9,4.8-1.19,7.12.41,2.58,1.79,4.88,1,6.56-1.27,3-4,7.12-5.7,11.77-6.89,5.63-1.45,11-3.74,16.65-5.27,2.55-.7,5.2-1.53,7.55.64,1.17,2.53-.48,3.7-2.37,4.59a20.34,20.34,0,0,0-5.4,3.54c-.71.68-1.57,1.58-.68,2.55s1.85.2,2.7-.29a8.79,8.79,0,0,0,2.91-3.34c.72-1.19,1.14-3.11,3.16-2.43,1.56.52,2.1,2,2.38,3.54.18,1-.4,2,.84,3.88-.89-4.22.93-5.74,3.81-6.21,3.6-.58,5.57,1.82,7.07,4.48s.65,5.11-2.76,7.15c1.92,0,2.64-1,3.58-1.28,2.77-.85,5.21.66,4.48,3.32-1.1,4,.1,6.7,2.91,9.24,1.19,1.07.6,2.84.89,3.53,7.62,2.86,13.22-2.18,19.61-3.85a7.5,7.5,0,0,0,2.27-1c8.64-5.74,16.17-5.08,23.92,2.33,1.85,1.77,3.06,3.24,5.65.91,1.61-1.45,2.7,0,2.82,1.81a9,9,0,0,1-.48,2.44c-.53,2.53.92,4.4,1.92,6.51C785.83,403.51,787.49,397.64,789,400Z" transform="translate(-477.16 -163.44)" fill="#937452"/>
  <path d="M767.13,486.05c-6.86,3.82-14.56,5.37-21.89,7.86-23.74,8.08-47.43,16.35-71.45,23.47-15.32,4.54-30.15,10.43-45.52,14.89-13.88,4-27.61,9-41.14,14.28-9.2,3.64-19,5.64-28.43,8.84-3.8,1.3-8,1.36-11.45,4.07a4.71,4.71,0,0,1-6-.49c.66-3.76.23-7.54.34-11.31.83-7.22.6-14.55,2.21-21.68.23-1.13.73-2.19.93-3.34.57-3.18,2.64-4.4,5.4-3,4,2,8.62,2.09,12.67,4.23,4.51,2.39,7.9.39,13-7.42-6.59,5.78-11.5,4.68-17.66.73-3.76-2.42-8.11-3.6-10.63-7.83-1.07-1.79-1.92-3.43-1.48-5.54a6.35,6.35,0,0,1,.5-1.34c1.76-3,4.34-5.48,6.17-8.47.78-1.28,1.75-2.69,3.52-2.25s2,2.24,1.88,3.68c-.25,3.93,1.64,6.25,5.09,7.66,1.17.47,2.3.77,3.07-.51.64-1.05,0-1.91-.8-2.57-2-1.59-3.28-3.51-1.81-6s4-1.7,6.31-1.32c3,.5,5.84,1.26,8.19,3.37,2.67,2.41,4.67,4.83,2,8.54a4.28,4.28,0,0,0-.32,4.6c2-.73,4.16-2.11,6.06.14,6.66.93,11.46-2,11.65-7.24-1.77-1.24-4-.42-5.84-1.44-.79-5.08,3-9.54,7.6-8.31a15.61,15.61,0,0,0,9.66-.7c4.9-1.67,9.87-.9,14.74.43,2,.54,3.51,2,3,4-1.48,5.79-.31,13.22-8.63,15.17a2,2,0,0,0-1.3,1.28c4.47-.45,7.89-2.24,9.11-7a6.92,6.92,0,0,1,3-3.84c1.38-.95,2.9-2,3.56-3.44,3.83-8.53,11.36-8.29,18.87-8.23,1.35,0,2.74,0,3.8.9,1.52,1.29,2.47,1.25,3.33-.72a6.81,6.81,0,0,1,4.44-3.74,3.05,3.05,0,0,1,2.14.29c1.53,1.68,1.05,3.69.8,6.46,3.08-5.07,5.43-10.38,12.34-7.88.16-2.55-3-2.64-2.43-5,.43-1.71,1-3.22,2.75-3.87a5.13,5.13,0,0,1,5.53,1.24c1.75,1.58,3.13,4.9,5.88,3.29,2.41-1.42,1.46-4.44.62-6.87a3.2,3.2,0,0,1,.74-3.68c1.32-1.18,2.88-.85,4.21-.15,2.93,1.56,6,3.08,8.21,5.56,5.43,6.12,13.19,7.31,20.24,9.93,2.77,1,5.53.73,4.63-3.68-.47-2.31.84-3.5,3.09-3.42,2.66.08,5.47-.73,7.93-.15,4.56,1.07,7.2-1.32,9.94-4.07,3.12-3.14,4.86-2.94,8.63-.57C762.85,476.81,764.17,482,767.13,486.05Z" transform="translate(-477.16 -163.44)" fill="#a18367"/>
  <path d="M767.13,486.05c-2.72-.4-4.13-2-4.13-4.72a4.1,4.1,0,0,0-1.85-3.29c-7.24-6-7.31-6.14-14.68.62-1.82,1.67-2.71,2.28-5.38,1.34-3.25-1.16-7.05.24-10.67-.23-1.43-.19-1,1.39-.56,2.64,1.37,4-.24,5.46-4.49,4.9-6.86-.89-13-4.06-18.9-7.06-3.32-1.68-5.9-5.5-9.39-7.76-1.71-1.1-3.49-2.65-5.27-1.37s.28,2.84.73,4.31c.88,2.86.31,6.5-1.82,7.64s-5.31-.68-6.64-3.41a4.32,4.32,0,0,0-4.41-2.57c-1.83,0-2.37,1.39-2.82,3-.51,1.84.58,1.83,1.8,2.06,1.47.3,2.46,1.09,1.82,2.82s-2,2.7-3.48,1.84c-4.59-2.65-6.4.52-7.89,3.71-1.06,2.26-2.78,3.51-5.28,6,.79-4,1.49-6.74,1.18-9.54-.2-2.13,1.71-2.58,2.89-3.55,1.42-1.16,2.88-2.22,2.72-4.34-.66-2.8-2.8-1.68-4.36-1.47a12.42,12.42,0,0,0-4.83,2.29,13.23,13.23,0,0,1-2.64,1.37c-2.29.65-4.59,1.74-6.78-.22,5-1.94,8.45-6.27,13.4-8.31,1.94-.8,2.26-3.18,3.16-4.93.6-1.17.94-2.47,1.5-3.67.7-1.51,4.09-2.24,2.43-4.13s-2.72,1.39-4.27,2c-1.86.71-2.82.43-3.25-1.53a6,6,0,0,0-5-5c-2.79-.33-3.58,2.55-4.52,4.63-1.67,3.7-4.86,3.93-7.4,2.12-4.24-3-7.66-3.21-11.42.52-2.06,2-3.69,1.53-3.63-1.59.06-3.3-.18-6.56.62-9.9,1-4,3.14-4.06,5.67-2.24,4.26,3.07,7.61.05,11.06-1.36,2.07-.85.84-2.38-.7-2.48-5.88-.41-4.79-3.91-5.15-8.3-.63-7.76,5.15-13.1,5.81-20.13a2.86,2.86,0,0,1,1.95-2,3.69,3.69,0,0,1,3.45,2.4,16.62,16.62,0,0,1,1.17,5.8c0,3.06.23,5.9,2.2,8.44a4.69,4.69,0,0,1,.55,4.27c-1.09,4.27,1.07,4.56,4.32,3.34,4,3.49,7.55,2.77,13-2.62,1.77-2.57,1.07-3.92-2-4.12a7.86,7.86,0,0,0-6.23,2.28c-1.67,1-2.27,3.49-4.69,3.49,0-5.26-2.32-10.7,1.52-15.65.66-.84-.61-1.74-1.07-2.58-.67-1.22-.51-2.6.85-2.84,4.82-.86,6.6-5,9.39-8.12,1-1.12,2-3.34,3.91-2.26s4.22,2.54,4.16,5.17c-.08,4.37,1.8,6.34,6.14,6.28,3,0,5.54.9,6.34,4.35.21.88.56,2.08,1.76,2.15,1.47.09,1.85-1.26,2.27-2.28a6.08,6.08,0,0,1,4.33-3.67c2.9-.87,4.19-.49,3.44,2.89-.31,1.43-.41,3.14,1.23,4s2.33-.79,3.31-1.55a3.16,3.16,0,0,1,3.25-.71c3.44,1.56,6.07.3,8.53-2.05,1.54-1.47,3.46-1.71,4.89-.16,2.44,2.63,5.43,2,8.36,1.91,1,0,2-.57,2.86-.41,5.18.94,5.52.65,4.48-4.42,1-1.42,2.24-2.17,4-1.16-.6,2.73-1.25,5.45-1.78,8.19a2.18,2.18,0,0,0,1.69,2.65,1.37,1.37,0,0,0,1.92-1c.36-1.87.79-4,3.18-3.57,2.85.51,5.79,1.29,7.87,3.63,1.31,1.48,2.6,3,3.77,4.59.74,1,1.66,2,2.81,1.55,4.62-1.92,5.95,2.15,6.93,4.57,1.18,2.93-.74,6.24-3.1,8.19s-4.17,3.25-1.22,6.09c1.11,1.06-.22,2.5-.08,3.8.16,1.47-.21,3.17,1.43,3.95s2.25-1,3.42-1.49c-1.17,8.78-3.89,17.21-5.93,25.8A2.87,2.87,0,0,1,767.13,486.05Z" transform="translate(-477.16 -163.44)" fill="#987957"/>
  <path d="M789,400c-2.4-.24-1.66,2.63-3.4,3.42-3.36-4-7.68-7.58-3.38-13.43-2.45-1-2.48.72-3,1.5-1.36,2-2.74,1.77-3.9,0-4.9-7.29-12.14-8.71-20.18-8.19-.45,0-1.12.21-1.3.53-3.53,6.48-12.06,4.12-16.35,9.28a1.63,1.63,0,0,1-2.28.29c-2.84-2.79-5.52-.63-9,.66,1.54-3.74,1.41-6.41-1.94-8.49-2.06-1.27-2.72-3.67-1.14-6.12.89-1.37,1.16-2.86-.44-3.95s-2.32.09-3.25,1.16c-1.42,1.66-3.53,2-4.68.21-1.45-2.28.86-2.51,2.44-3,2.58-.8,2.17-3.09,1.23-4.43-1.71-2.42-3.28-5.53-7.53-3.66-3.92,1.73-.66,3.69-.39,6.66-2.45-1.61-6.93,0-4-5.36.55-1-.57-2.46-2-3.65-1.88,2.31-2,6.13-5.51,7-1.4.34-2.73,2.46-4.25.15s-.61-4,1.34-5c2.15-1.16,3.5-3.6,6.33-3.71,1.56-.07,1.82-1.75,2.48-2.85,2.74-4.11,7.34-3.57,11.25-4s7.08-1.37,9.92-4a16.18,16.18,0,0,1,11.31-4.46c4,0,7.45-2.57,11.4-3.41,5.2-1.1,10.25-2.71,15.66-2.67a7.72,7.72,0,0,0,6.2-2.82c3-3.91,7.35-5.41,11.76-5.85,5.87-.59,11-3.85,16.85-4.11,1.69-.08,2.41-1.65,3.6-2.51,1.85,1.41,1.11,3.26.76,5-1,5.15-2.43,10.25-3.16,15.45s.68,10.3-1.23,15.3c-.4,1-.13,2.31-1.11,3.16-2.56,4.16-2.35,9.09-3.67,13.6-1.37,4.67-3,9.31-3.54,14.22C790.34,394.6,789.68,397.3,789,400Z" transform="translate(-477.16 -163.44)" fill="#836a4e"/>
  <path d="M535.86,547.24c-4-8.26-9.3-15.71-13.54-23.83s-8-16.83-14.57-23.65a11.57,11.57,0,0,1-2.75-4.11c-2.88-8.75-10.39-14.74-13.79-23-2.37-5.76-6.23-10.11-10-14.67,1.29-3.51-.35-7.34,1.21-10.82,4.74-4.53,2.52-10.26,2.59-15.56,0-2.31-.44-4.63,0-6.95a3.72,3.72,0,0,1,2.71-3.24,3.53,3.53,0,0,1,3.91,1.57c2.26,3.1,4.37,6.28,4.8,10.26.37,3.33,1.8,5.52,5.14,7.18,4.65,2.31,7.7,6.28,6.8,12.09a6.39,6.39,0,0,0,.36,2.94c1.14,3.73,2,7.57,3.8,11.08.53,1,.88,2.15,2.35,2.09,2.37.14,3.91,1.08,3.27,3.76-.76,3.18.7,5.58,2.81,7.57a15.69,15.69,0,0,1,4.79,8.54,44.2,44.2,0,0,0,7.63,17.66c5.41,7.07,4.49,14.41,5.12,21.94C538.4,534.58,539.12,541.18,535.86,547.24Z" transform="translate(-477.16 -163.44)" fill="#8f7d68"/>
  <path d="M508,267c-3.81,1.74-7.67,3.29-12,3-5.43-4.18-5.53-10.62-6.91-16.49a18.59,18.59,0,0,1-.37-4c0-2.12-.69-4.9,1.24-6.06,2.51-1.51,2.84,2.55,5.19,2.94,1.32-3.57-.38-7.56,1.28-11.09,1.26-1.46,2.77-.95,4.28-.55,1.6,1.6.3,3.68.88,5.46.08.66,1-.28.42,0-.23.12-.35,0-.38-.31a8.35,8.35,0,0,1,.29-4.32c2.42-2,1.29-4.77,1.82-7.19.39-1.76-.11-4.78,3.46-3.13.44,6.56-.37,13.2,1,19.68,2.42-.89,1.29-3,1.48-4.53.43-3.38-.57-6.88.84-10.19a1.56,1.56,0,0,1,1.27-.56c2.38,1.31,3,3.8,4,6,.64,1.57,1.45,3.07,2.13,4.62a90,90,0,0,1,3.29,16.11c.6,6,3.08,11.16,6,16.21,1.44,2.49,2.38,2.86,5.18.66,5.12-4,10.29-9.3,18.07-6.68,4.67,3.72,7.83,8,6.06,14.49-.44,1.59.26,3.28.53,4.91a5.26,5.26,0,0,1-.67,3.8c-2.59,1.15-3.8-1.22-5.52-2.22a54.37,54.37,0,0,1-5.32-3.64c-4.06-3.05-5.23-2.35-6.33,2.78s-.25,10.18.35,15.25c.24,2,.66,4-1.48,5.28-3.07-.14-3.12-2.52-3.3-4.64-.26-3.3.05-6.63-.18-9.94s-1.53-4.77-5.19-3.69c-5.53,1.64-10.95,3.8-16.77,4.38.15,1,.41,2-.8,2.59-1.8.88-3.59,1.73-5.69,1.34-1.08-4.84.8-8.1,6.07-9.74,5.8-1.8,11.56-3.74,17.52-5-3.28.17-6.51,1-9.73-.24a87.33,87.33,0,0,0-5.12-18.08c-.63-1.45-.8-3.65-2.89-3.57-1.93.08-2.43,2-2.83,3.65A7.61,7.61,0,0,1,508,267Z" transform="translate(-477.16 -163.44)" fill="#6f4e2e"/>
  <path d="M792,313.05l5.93,6.16c1,2.9-1.56,2.79-3,3.21-3.51,1-6.9,2.36-10.44,3.24,5.31-1,10.13-4,15.75-3.86l.84,1.09c.19,2.91-2.09,3.56-4.09,4.17-27.08,8.21-54,16.78-81.09,25.08-20.52,6.3-41,12.71-61.56,18.93-26.59,8.06-53,16.71-79.66,24.5-3.49,1-6.79,2.71-10.43,3.33-3.07.44-5.83,2.74-9.18,1.54a3.33,3.33,0,0,1-1.42-2.74c1-2.37,3.35-2.55,5.34-3.18,9.68-3.07,19.55-5.53,29-9.19,1.39-1,3.27,0,4.64-1.18,6-1.82,11.9-3.91,18-5.56,26-7.45,51.58-16.15,77.53-23.72a30.77,30.77,0,0,0,3.75-1.3,9.24,9.24,0,0,1,1.44-.54c5.61-1.4,11.11-3.19,16.62-4.92,5.07-1.47,10.38-2.11,15.26-4.26,8.16-1.76,15.83-5.3,20.12-6.18-4.39,1.05-12.31,4.18-20.49,6.41-3.09,1-6.18,1.92-9.33,2.67a5.14,5.14,0,0,1-3.33-.8c-1.68-1-1.48-2,.08-2.92a9.78,9.78,0,0,1,2.28-1c7.94-2.25,15.54-5.58,23.78-7a52.88,52.88,0,0,0,13.58-4.67c7.16-3.38,14.84-4.66,22.39-6.26,3.1-.66,0-2,1.08-2.67,1.56-.9,3.06-1.73,1.07-4.09-2.79-3.3-6-6.22-8.47-9.78-1.1-1.61-3.92-3.54-1.66-5.36,1.67-1.34,3.48,1.25,4.61,2.76,2.8,3.76,6.25,6.88,9.51,10.18,1.13.84,2.23,2.55,3.69.69,1-1.23,2.18-2.67.91-4.48-.39-.54-.86-1-1.24-1.55-.78-1.07-2-2.4-.8-3.5,1.41-1.29,2.24.57,3.16,1.36C788.16,309.43,789.67,311.69,792,313.05Z" transform="translate(-477.16 -163.44)" fill="#7b4920"/>
  <path d="M624.91,165.84c11.33-5.36,20.05-1.21,27.72,7.38,12.25,13.72,24.65,27.31,36.91,41a77.67,77.67,0,0,1,4.68,6.36c0,2-.8,1.77-2,.73-2-1.84-.48.81-1.19,1.08s-.1,2.48-1.69,2.6c-1.86.14-2.33-2.28-4.53-2.57.39,2.36,2.21,4.17,2,6.49a9.85,9.85,0,0,1-.47,2.91c-1,2.77-2.32,3-4,.52a33.46,33.46,0,0,1-3.24-6.08c-4.36-7.91-11.43-13.61-16.83-20.67-4.61-6-9.93-11.47-15.08-17-4.11-4.52-7.87-9.34-12.37-13.51-2.31-2.14-4.43-4.41-7.43-5.67C626.07,168.8,624.25,168.1,624.91,165.84Z" transform="translate(-477.16 -163.44)" fill="#734b25"/>
  <path d="M624.91,165.84c4.55,3.6,9.64,6.44,13.54,11,3.2,3.71,6.5,7.35,9.55,11.2,2.53,3.46,4.1,7.17,3.09,11.58-.51,2.18-1.29,4.24-3.61,5s-3.75-.82-5-2.45a48.6,48.6,0,0,0-3.74-4c-2.44-2.75-4.6-5.76-7.24-8.35-5.31-2.84-8.63-1.25-9.81,5-.84,4.43-.25,9-.36,13.45-.08,3,0,6-1.77,8.67-3.81,2.47-5.54-.88-8-2.72-.58,7,.11,13.78,3.94,20a2.86,2.86,0,0,1,.5,2.78c-5.35-1-6.27-5.83-7.06-9.72a60.53,60.53,0,0,1,.52-26.57c1.38-5.76.35-11.88,1.6-17.76,1.09-5.1,2.54-10,6.29-13.8A10.16,10.16,0,0,1,624.91,165.84Z" transform="translate(-477.16 -163.44)" fill="#84694f"/>
  <path d="M498,199.06c3.83-1.05,7.63-2.24,11.5-3.13,5.56-1.29,9.31,2,12.34,5.84,8.59,10.77,17,21.65,25.28,32.69,7.42,9.95,15.61,19.47,19.92,31.41A2.82,2.82,0,0,0,570,268c3.37.4,1,2.76,1.46,4.15a3.2,3.2,0,0,0,1.44.08c1.58-.11,3.48-.68,4.25,1.22s-1.12,2.39-2.31,3.07-1.24,1.77-1.38,2.89c-1.14,1.78-4.85,1.47-4,4.9-3.36-.19-.72,2-1.18,3,1.14,11.87-1.54,23.52-2,35.29a4.38,4.38,0,0,1-.9,2.29c-3.9,1.22-3-1.71-3-3.63-.08-8.46,1.2-16.85,1.43-25.3.11-3.81-.49-7.61,0-11.4,2.07-3.62-1.06-7.85,1.21-11.67,2.12.58,1.85,2.24,2.26,3.55a98.49,98.49,0,0,0-7.65-19.9c-.49.35-1.61.41-1.84,1.54-.59,2.89-2.23,2.37-3.12.54-1.12-2.3-3.25.52-4.42-1.42a8.12,8.12,0,0,0-3.83-3.78c-1.52-.84-2.32-2.34-3.32-3.66C533,236.53,523.33,223,513.65,209.53a47,47,0,0,0-4.93-5.62c-1.47-1.5-3-2-4.77-.61C501.39,202.71,498.94,202,498,199.06Z" transform="translate(-477.16 -163.44)" fill="#76502d"/>
  <path d="M564,397.93q46.32-14.46,92.62-28.91c28.35-8.78,56.73-17.41,85.1-26.13q27.76-8.53,55.52-17.14c1.57-.49,3.19-1.11,3.9-2.86l1.86,2.29c.27,3.11-.6,4.84-4.24,3.95a5.92,5.92,0,0,0-5.47,1.47c-2,1.62-4.77,1.48-7.26,1.91-5.12.9-10.44,1.18-14,5.95-2.16,2.89-5.46,3.57-8.9,3.53-7.56-.08-14.29,3.58-21.45,4.86a46.47,46.47,0,0,0-19.83,8.76c-2.29,1.67-6.41.44-9.69,1.24A42.48,42.48,0,0,0,705,359a10.05,10.05,0,0,0-6.74-.06c-7.55,2.46-15.18,4.72-22.77,7.09-2.53.79-3.88,2.95-5.48,4.86-2.45,2.92-5.16,4.86-8.58,1.21a3.37,3.37,0,0,0-3.68-.87c-8.68,2.64-17.38,5.27-26,8.05a14.45,14.45,0,0,0-4.15,2.64c-3.22,2.54-6.43,4.89-11.21,1.89.23,3.19,2.4,5.86,0,8.37-.66.71-1,1.87-2.24,1.53s-1.23-1.49-1.15-2.47c.38-5-.68-5.67-5.85-3.77-8.91,3.28-18.06,6.15-27.2,8.69-8.57,2.39-17.08,4.61-24.94,8.85a2.62,2.62,0,0,1-1.27-3C556.91,400,560.93,400.21,564,397.93Z" transform="translate(-477.16 -163.44)" fill="#916239"/>
  <path d="M483,447l0,8c0,1.37,0,2.74-1.83,3-3.63-4.91-4.13-10.42-4-16.38.71-27.06,1.05-54.13,1.62-81.2.41-19.22,1-38.45,1.51-57.67a30.31,30.31,0,0,1,.59-3.88c1.61.57-.58-5.46,2.89-1.66a4.63,4.63,0,0,1,.23,1.37c.07.59-.45,1.63-.25,1.61,3.34-.22,2.52,2.21,2.59,4,.21,5.93-.74,11.9.78,17.78a76.53,76.53,0,0,1,.32,11.53c-.82,26.85-1.3,53.71-2.12,80.56-.27,8.77-.82,17.54-.76,26.33C484.6,442.69,484.5,445,483,447Z" transform="translate(-477.16 -163.44)" fill="#73604e"/>
  <path d="M792,313.05c-4.1-.42-4.93-5.15-8.81-6.48.21,2,1.63,3,2.8,3.86,4.23,3.07-.42,5.24-1.21,7.1s-3.7.94-4.78-1.53c-6-7.1-12.49-13.66-18.72-20.51-9.92-10.93-19.48-22.18-29-33.48-1.94-2.3-4-4.45-6.12-6.54-3.08-3.45-5.85-7.16-9.22-10.36a7.56,7.56,0,0,1-2.21-3.81c-.48-2.12-.88-4.24,2.6-3.43,1.95.46,4.06-1.68,5.92.34A410.9,410.9,0,0,1,751,269.3c1.11,1.42,1.11-2,2.06-.34Z" transform="translate(-477.16 -163.44)" fill="#673a17"/>
  <path d="M498,199.06l6,3.86c2.61-.37,3.87,1.67,5.19,3.19,5.63,6.45,10.84,13.21,14.52,21a2.55,2.55,0,0,1-1.17,2.53c-3.42,1.6-4.35,3.66-2.59,7.33.78,1.62.06,4.09-3,3.05a5.82,5.82,0,0,1-2-4c.29-2.64-1-4.48-3-6q-.42,0-.84-.12c-2.42-1.62-2.63-4.85-5.09-6.6-4-2.82-6.15-2.19-7.44,2.57-.81,3,.58,6.39-1.62,9.13,0,3.82,0,7.64,0,11.45,0,1.17.05,2.54-1.34,2.87-1.09.25-1.7-.84-2.28-1.64-.94-1.27-1.83-2.58-3.18-4.49-.82,10.15.8,18.85,5.81,26.8-3.07-.09-4-2.44-5-4.74a52.67,52.67,0,0,1-3.37-27.79A147.82,147.82,0,0,0,489,219.15c.12-5,.57-9.93,2.66-14.57C492.89,201.76,494.67,199.47,498,199.06Z" transform="translate(-477.16 -163.44)" fill="#836a53"/>
  <path d="M633.05,189q3,4,6,8c5.76,7.4,7.62,16.25,8,25.18.29,7.36,4,12.38,8.44,17.35,1.09,1.22,2.61,2.1,2.89,3.9-2.4,5.36-4.57,6-10,3.61-1-.46-2.52,1.23-3.76-.17-1.81-6.66-2.53-13.61-6-19.82-1.13-2-2.43-3.9-3.45-6-.62-1.27-1.63-2.27-3.12-2-1.74.34-1.54,2-1.53,3.24,0,2.49-.47,4.95-.4,7.43a4.43,4.43,0,0,1-2,4.28c-3.88,1.51-7.7,3.25-12,2.87-6.26-7.84-6.29-16.95-5.7-27.54,2.65,3.95,4.1,7.8,8.63,7.59,2.44-2,5.75-1.78,8.33-3.4a6.93,6.93,0,0,1,1.41-.29c3.24-1.33,2.63-4,2.38-6.6C630.45,200.65,630.24,194.64,633.05,189Z" transform="translate(-477.16 -163.44)" fill="#754f2d"/>
  <path d="M535.86,547.24c.38-6.75,1.62-13.44,1.15-20.23,1.42-7.7-.39-15.45.41-23.18,1.46-14.17,2.21-28.41,3.13-42.63a6,6,0,0,1,1.39-4.13,1.73,1.73,0,0,1,1.41,0c-.73-13.11,1.58-26,2.33-39.07.08-1.46.15-3,1.72-3.9,2.09.85,1.63,2.74,1.54,4.25-.77,12.74-2.06,25.44-2.84,38.19-.74,12-1.7,24-2.42,31.26.36-6.4,1.73-17.44,2.18-28.53.63-15.73,3.22-31.32,2.94-47.13-.07-4.06-.55-8.7,2.66-12.27a2,2,0,0,1,1.45,1c2,4.43.06,8.86-.27,13.21-.47,6.26-1.2,12.5-1.27,18.79-.12,10.64-1.63,21.19-2.49,31.78-.57,6.94-.54,13.9-1.26,20.86-1.68,16.18-2.48,32.45-4.29,48.63-.51,4.56-1.62,9.19-.39,13.84-.79,3.64,2,7.84-1.69,11C539.71,554.94,535.92,551.94,535.86,547.24Z" transform="translate(-477.16 -163.44)" fill="#75604e"/>
  <path d="M645,247c1.67.1,3-.63,5.11.52s6-.61,7.92-3.48c1.8.37,2.8,1.7,3.74,3.12.84,1.77.87,3.37-1,4.59-4.3,2-9,2.65-13.44,4.36-2,.59-3.87,1.28-5.81,1.92-9.67,2.85-19.47,5.22-29.08,8.27a18.62,18.62,0,0,1-5.33,1.06c-2.42.05-3.43-1-2.34-3.38,9.25-2.48,18.43-5.25,27.69-7.69,8.61-3,17.56-4.82,26.21-7.71-8.87,2.86-18,4.73-26.82,7.86-9,2.07-17.6,5.3-26.61,7.14-3,2.47-6.75,2.64-10.22,3.64-8.24,2.36-16.39,5.21-25.06,5.78-1.26-1.22-1.31-2.08.47-3s-.61-1.25-.44-2q30.13-8.61,60.26-17.23c4-1.15,7.89-2.47,11.84-3.71A2,2,0,0,1,645,247Z" transform="translate(-477.16 -163.44)" fill="#653c1c"/>
  <path d="M483,297c-2.05,0-.55,1.59-1,2.29-.19.28,0,1.11-.72.43-.2-.2-.22-.59-.33-.9-.83-4.34.92-6.59,5.28-7.69,10.21-2.58,20.32-5.55,30.47-8.36,1.09-.32,1.84-2.14,3.33-.8,3.12-1.31,6.82.92,9.81-1.69.78-.68,1.88.05,2.31,1.14.69,1.77-.87,2-1.81,2.28-4.87,1.47-9.71,3.36-14.71,4-5.82.8-7.93,4.57-9.6,9.23-.51,1-1.59,1.89-2.34,1.58-4.53-1.93-8.66.44-12.95.92-2.34.26-3.79-.36-2.23-3.06,4-2.2,8.71-2.25,12.28-3.63C495,293.22,489.53,297.14,483,297Z" transform="translate(-477.16 -163.44)" fill="#654327"/>
  <path d="M686,229a38.12,38.12,0,0,1-1.74-4.63c-.22-.88-2.26-1.67.09-3,2.16-1.24,2.55.12,3.41,1.18.49.6.88,1.3,1.67,2.49-.19-2.91,2.29-5-.34-7.18,2.84-.4,2.37,3.75,5.13,2.74,2.65,2.94,3.72,6.65,5,10.23,1.08,5.32,3.07,10.65-.38,15.87-.46.69-.78,1.41-1.71,1.52a2.82,2.82,0,0,1-1-1c-1.45-2.88-1.11-6.07-1.53-8.92-2.83,4.7,1.23,9.95-.83,14.89a2.32,2.32,0,0,1-1,1.11,1.35,1.35,0,0,1-1.33-.6,27.49,27.49,0,0,1-1.74-7.53c.14-4.56-1.6-8.72-2.78-13A16.3,16.3,0,0,0,686,229Z" transform="translate(-477.16 -163.44)" fill="#87542c"/>
  <path d="M697,248c3.08-4.42,3-9.24,1.77-14.19-.28-1.12-.88-2.19.49-3,3.21-.84,6.4-1.69,9.61-2.51,6.86-1.75,8.48-1,12.26,5.61-.16.19-.31.39-.47.59A103.41,103.41,0,0,1,708,238.68c-3.65,1-5.48,2.52-4.81,6.47a8.44,8.44,0,0,1-.6,4.38c-1.34,2.62-3.35,4.9-3.71,8a1.85,1.85,0,0,1-2.06,1.73,1.75,1.75,0,0,1-1.46-2.21C695.84,254,694.8,250.71,697,248Z" transform="translate(-477.16 -163.44)" fill="#6d401c"/>
  <path d="M645,247l-2.86.09A53.45,53.45,0,0,0,635,223.69c-.52-.87-.6-2.61-2.19-2.24s-1,1.87-1.1,3c-.2,2-.33,3.95-.49,5.93s-1,3.51-3.22,3.74c1.81-4.14.64-8.5,1-12.75.13-1.51-.75-3.53,1.56-4.16a3.94,3.94,0,0,1,4.76,1.79C640.28,227.69,645.52,236.34,645,247Z" transform="translate(-477.16 -163.44)" fill="#92745e"/>
  <path d="M753.08,269c-1.35,1.66-2.44,1.44-3.83-.16-8.71-10-17.51-19.86-26.28-29.77-.31-1.82-3.69-2.38-2-5l.21-.11c7.4,5.92,12.77,13.74,19.26,20.51C744.85,259.06,748.87,264.1,753.08,269Z" transform="translate(-477.16 -163.44)" fill="#6e512c"/>
  <path d="M520,282l-3.33.8c2.25-6.18-.52-11.57-3.19-16.66-1.51-2.86-3.53,1-5.47.88,0-1.49-.05-3,.12-4.47.28-2.38,2.44-3.23,4.17-3.76s2.45,1.42,2.92,2.78c2,5.69,3.91,11.4,5.65,17.17C521.13,279.65,520.31,280.9,520,282Z" transform="translate(-477.16 -163.44)" fill="#8b6f5a"/>
  <path d="M791,391.89c-.34-9.21,4.56-17.35,5.41-26.33.05-.55,1.18-1,1.8-1.49C796.38,373.49,794.63,382.94,791,391.89Z" transform="translate(-477.16 -163.44)" fill="#937452"/>
  <path d="M800.25,321.8c-5.57.61-10.42,4.17-16.37,3.43,3.31-1.07,6.6-2.19,9.93-3.19,1.7-.52,3.73-.45,4.13-2.83Z" transform="translate(-477.16 -163.44)" fill="#a37042"/>
  <path d="M652,481c2.44.33,4.73-.47,7-1,.37,2.9.2,6.1,4,7.07-2.09,1.62-4.25,3-4.21,6.26,0,1.84-1.84,2.15-2.66.56-1.58-3.05-3.63-2.72-6.58-2.51-2.62.18-5.44,1.34-8.23-.08-1.64-.83-2.6.61-3.52,1.93-2.63,3.79-5,7.88-9.34,10.1a2.33,2.33,0,0,0-1.22,1.47c-.57,8.53-7.87,7.92-14.4,10.76,2.59-3.66,3.54-6.81,7.73-6.76,2.18,0,2.74-2.23,3.22-4,.35-1.26.11-2.67.38-4,1.69-8,1.57-8.27-6.69-8.84-2.78-.19-5.66-.5-8.36.75a12.65,12.65,0,0,1-10.33.58c-5.07-1.75-5,3.81-6.61,6.74-.11,2-1.89,2.52-3,3.61-3.18,1.38-2.43,5-4.13,7.22-1.11-1.94-2.28-3.17-3.87-.38-.43.76-1,1.42-2,1.17-1.23-.32-1.24-1.43-1.19-2.42a28.63,28.63,0,0,1,.42-4.91c.34-1.5,3.09-2.23,2-4.12a11.41,11.41,0,0,0-5.33-5.06,56,56,0,0,0-8.14-2,2.21,2.21,0,0,0-2.7,1.64c-.49,1.55-.31,3.29,1.38,3.78,3,.88,3.82,2.22,2,5s-3.14,1.48-5.56.41c-4.28-1.89-5.73-4.53-5.16-8.86.12-.89.38-2.22-.84-2.57-1.51-.43-1.85,1-2.38,2A35.4,35.4,0,0,1,547,503c-1.58-1.88-1.13-4.17-.9-6.21,1.56-13.95,2.08-28,3.06-42,.52-7.38,1.72-14.72,1.91-22.14a3.17,3.17,0,0,1,1.06-2.67c1.69.21,3.44,1.52,5-.53a1.93,1.93,0,0,1,3.36,0c1.22,1.7,0,2.91-1.52,3.45-3.76,1.36-4.66,4.39-4.88,7.85-.08,1.3-.31,3,1.27,3.42a3.13,3.13,0,0,0,3.57-2.1c1.1-2.59,2-5.25,2.91-7.93.57-1.76,1.05-3.56,2.42-4.83.83-.77,1.52-2.74,3.1-1.26,1.08,1,.85,2.35,0,3.6-4.46,6.19-7.27,12.88-6.28,20.75.23,1.81-.17,4,2.31,4.3,2.23.3,2.51-1.68,3-3.26,1.17-3.78,2.73-7.39,2.86-11.52.09-2.84.7-6.07,4.91-6.26.94-.05,1.87-1.27,2.72-2,3.54-3.21,6.58-7,11-9.19,3.21-1.63,1.87-5,2.45-7.58,1.56-.53,2.54.63,3.74,1.08,1.7.22,3.5-.05,5,1,2.25.19,5.15,0,2.11,3.43a4,4,0,0,0-.74,4.63c.87,1.64,2.34.36,3.55.14,2-.37,3.33,1.05,4,2.4,2,3.85,4,3,6.43.57.76-.77,1.47-2.21,2.79-1.63s.81,2,.54,3.08c-1.63,6.6-.14,13.48-2,20.11-.84,3-.24,6,4,6.31,2.25.13,4.29.94,5.28,3.17,2,4.51,6.41,5.74,10.36,6.55,3.24.67,6.15,2.27,9.54,2.59,2.21.2,4.68,2.87,1.76,5s-2.57,4-1.27,6.22c1.78,3,3.32-.62,5-.48C651,481.08,651.5,481,652,481Z" transform="translate(-477.16 -163.44)" fill="#977958"/>
  <path d="M552.11,430c-1.35,21.38-2.8,42.74-5,64-.3,3-.1,6-.13,8.94h0a5.06,5.06,0,0,0-.38,4.29,17.49,17.49,0,0,1-.9,12.91c-.69,1.49.22,3.28-.65,4.8q-1.06,11.47-2.12,22.94c-1.49-1.34-1-3.12-.9-4.7.56-12.22,1.79-24.4,2.72-36.59.72-9.56,1.81-19.13,2.09-28.7.61-20.37,3.64-40.54,4.27-60.9.16-5.34,2.37-10.58.88-16,.74-.93,1.46-2.05,2.5-.26A1.7,1.7,0,0,1,554,402c.33,1,.66,2,1,3C553.09,413.24,553.18,421.69,552.11,430Z" transform="translate(-477.16 -163.44)" fill="#664f39"/>
  <path d="M748,416.9l-4,1.16c-1.85.79-3.84,1.85-5.39-.27-1.43-2-.25-3.87.83-5.53a12.75,12.75,0,0,1,6.34-4.64c2.08-.81,4.41-1.52,5.77.83,1.19,2.05.48,4.15-1.33,5.82A28.35,28.35,0,0,0,748,416.9Z" transform="translate(-477.16 -163.44)" fill="#704f33"/>
  <path d="M599,419c-1.77.11-3.87,1.93-5-1,.46-2-.93-4.31,1.25-5.91,3.87-1.91,7.22-5,11.88-5.13,3.78,4.15,3.68,4.71-1.9,9.91-1-1.21.86-1.93.28-3.27C603.31,415.54,599.75,415.39,599,419Z" transform="translate(-477.16 -163.44)" fill="#79583c"/>
  <path d="M677.9,436.84c-2.11,4.2-6.37,4.94-10.24,6-2.84.76-3.71-1.33-3.67-3.83,0-.32,0-.65.07-1l3.72-4.13c1.39,0,2.36-.95,3.53-1.47C676.35,430.19,678,431.3,677.9,436.84Z" transform="translate(-477.16 -163.44)" fill="#79583b"/>
  <path d="M685,383c4.58,1.81,1,4.22.33,6.27-.46,1.48-.69,1.26-2.65.68-1.58-.46-3.56,1.22-3.52,1.74.3,4.87-3.32,3.79-5.21,2.93-2.95-1.35-2.5-4.14-.88-6.63C677,386.35,680.11,382.61,685,383Z" transform="translate(-477.16 -163.44)" fill="#775c42"/>
  <path d="M607.07,407c-4.17,1.22-7.42,4.59-11.88,5.13C598.54,409,601.81,405.68,607.07,407Z" transform="translate(-477.16 -163.44)" fill="#3e1f0b"/>
  <path d="M685,383c-4.52.38-7.27,5-11.93,5C676.29,384.63,679.93,382.16,685,383Z" transform="translate(-477.16 -163.44)" fill="#3a1e0d"/>
  <path d="M545.06,525c.52-7.35.38-14.75,1.93-22-1.12,3.74,2.34,5.47,3.58,8.17,1.46,3.17,3.55,4.69,7.13,3.22.4-.16,1.24.34,1.69.74,6.9,6.08,8.09,6.14,15.43.55.74-.57,1.26-1.61,2.48-1.16-1.84,10-8.4,13.14-17.58,9.16-3.5-1.51-7.49-2.06-11.22-3.37S547,523.94,545.06,525Z" transform="translate(-477.16 -163.44)" fill="#977958"/>
  <path d="M585.05,511c0-3.2-.9-6.78,3.57-8,3.17-1.79,6.37-3.44,10.15-1.8,2.12,4-1.11,5.75-3.53,7.45A13.82,13.82,0,0,1,585.05,511Z" transform="translate(-477.16 -163.44)" fill="#78553a"/>
  <path d="M663,487.09c-6.33-.25-6.33-.25-4-7.07l1.79-1.1c3.7-.72,7.41-4.17,11.09,0,.44,5.05-4.76,5.19-6.93,8Z" transform="translate(-477.16 -163.44)" fill="#79573a"/>
  <path d="M598.77,501.2c-3.57-.45-6.8,1-10.15,1.8l3.59-2.87C594.48,500,596.81,499.43,598.77,501.2Z" transform="translate(-477.16 -163.44)" fill="#48250e"/>
  <path d="M741.9,453.13c2.6,2.42,0,4-.92,5.92-.68,1.46-2.1,2.09-3.35,2.79-2.54,1.4-6,3.83-8,1.23-2.23-3,.31-6.11,3.31-8.08C736,454.4,738.74,452.88,741.9,453.13Z" transform="translate(-477.16 -163.44)" fill="#745235"/>
  <path d="M677.9,436.84c-1.91-5.51-1.92-5.54-7.71-2.57-1,.52-1.75.73-2.41-.37,2.11-2.82,5.14-3,8.29-2.91,1.36.06,2.33.27,3,1.82C679.91,434.71,679.39,435.82,677.9,436.84Z" transform="translate(-477.16 -163.44)" fill="#4c3217"/>
  <path d="M671.93,479c-3.69-1.52-7.39-.28-11.09,0,2.36-1.77,4.8-3.17,7.93-3.07C671,475.92,672.22,476.55,671.93,479Z" transform="translate(-477.16 -163.44)" fill="#563519"/>
  <path d="M741.9,453.13c-.93.8-6.83,2-8.92,1.86C735.68,453.07,738.46,451.51,741.9,453.13Z" transform="translate(-477.16 -163.44)" fill="#4e2d12"/>
  <path d="M689.4,429c-.79-.09-1.83.11-1.93-1s.85-1.69,1.88-1.81c.84-.09,1.75.19,1.92,1.12C691.5,428.64,690.32,428.72,689.4,429Z" transform="translate(-477.16 -163.44)" fill="#937452"/>
  <path d="M760.88,359.09c2.7,3.57.32,6.37-1.83,8.67a10.6,10.6,0,0,1-9.84,3.55c-3.22-.67-2.76-5.13.73-8.33C753.2,360.6,757.31,360.58,760.88,359.09Z" transform="translate(-477.16 -163.44)" fill="#735439"/>
  <path d="M760.88,359.09c-.06.65-.11,1.3-.17,2-3.82-.65-7.07,1.92-10.77,1.94C753,360.07,756.46,358.2,760.88,359.09Z" transform="translate(-477.16 -163.44)" fill="#432710"/>
  <path d="M543,457c-2.12,5.16-1.54,10.78-1.67,16-.45,17.17-3.81,34.13-3.32,51.33a3,3,0,0,1-1,2.7q-.22-7.12-.44-14.26c0-.32.07-.9,0-.93-6.77-2.06-4.59-9.82-8.7-13.59-2-1.83-1.43-4.67-2.35-6.92-1.7-4.13-2.63-8.58-6.53-11.7-2.21-1.76-3.65-4.39-2-7.95,1-2.21-1.11-2.41-2.88-1.64-1.55-1.41-1.08-3.37-1.34-5.11-.52-3.54-1.47-6.81-4.69-8.91a3.59,3.59,0,0,1-1.69-3.38c.88-6.41-1.16-9.7-7.33-11.67-3.63-1.15-3.76-4.6-3.83-7.31-.12-4.25-3.14-6.85-4.62-10.29a2.07,2.07,0,0,0-2.52-1.13,2.64,2.64,0,0,0-2,3c.21,4.54.39,9.09.82,13.61.34,3.57-.05,6.61-3.84,8.14-.68-19.61.77-39.2,1.32-58.78.36-13,.2-25.9.7-38.84.21-5.46,1.43-10.86,1-16.36,4.21,0,5.65,3.94,7.59,6.31,3.24,3.94,7.15,7.2,10.26,11.18s6.95,7.33,4.91,13.51c-1,3.13,3.1,6.88,6.8,7.36,1.35.62,2.48,1.82,1.59,3.06-1.38,1.93.14,2.58,1,3.63,4.16,1.74,7.84,3.3,5.63,9.4-.83,2.27,2,5.07,4.87,5.92,1.32.4,3.33-1.66,4.11.94.69,2.29,1,5.29-1.15,6.41-4.6,2.39-3.5,5.95-2.88,10.87.26-4.7,1.69-6.13,5.09-4.12a12.59,12.59,0,0,0,5.1,1.84c5.33.45,6.83,3.74,7,8.33C545.3,430.8,544.44,443.91,543,457Z" transform="translate(-477.16 -163.44)" fill="#88745d"/>
  <path d="M508,456c2.75-1.29,3.33,1,4.24,2.62,2,3.56,1.83,7.5,1.79,11.4-.47.54-1.48.9-1.6.35C511.35,465.46,508,461.23,508,456Z" transform="translate(-477.16 -163.44)" fill="#76563e"/>
  <path d="M554,401c-.66-1.16-1.34-.13-2,0,0-.32,0-.65,0-1-5.26-.1-3.21-4.76-4.58-7.3-.2-.41-.37-.83-.53-1.26,1.54-4.77-1.9-7.72-4.09-11.1-8.58-13.24-17.57-26.21-26.31-39.35a10,10,0,0,0-4.65-4.22c-2.07-.86-4.43-2.81-2.39-5.73.83-1.19-.18-1.39-.54-1.9-4-5.69-7.64-11.8-12.11-17-2.72-3.19-6.61-6-10.32-8.54.23-2.08-1.17-3.89-.93-6,.93-1.43,2.12-1.41,3.45-.64-.1.56-.72,1.41.05,1.61a4,4,0,0,0,2.29-.58c4.77-2.09,9.77-.7,14.66-1,7.12-5,15.4-7,23.59-9.36,5-1.41,6.21-.67,6.4,4.78.13,3.47,0,6.95,0,10.43,0,1.75.18,3.33,2,4.16a4,4,0,0,1,1.25,2.84c-1.14,5.92.46,11.79.35,17.71a28.42,28.42,0,0,1-1.88,10.71,10,10,0,0,0,0,7.76c-.87,7.28,5.08,11.32,8,16.78,1.46,2.68,5.71,2,6.71,5.32.79,1.07,1.65,2.09,2.37,3.22.6.92,1.27,1.78,1.9,2.69.94,1.53,2.12,3,2.1,4.9,0,2.51.51,4.7,3.31,5.53a5.45,5.45,0,0,1,2.43.91c1.54,1.44,3.36.67,5.1.66,2.56,0,4.9.41,5.58,3.46-5.54,3.26-12.1,3.61-17.86,6.21-1.18.53-3.49-.19-3.49,2.28a2.16,2.16,0,0,1,1.08,2.08C555.22,400.94,555,401.35,554,401Z" transform="translate(-477.16 -163.44)" fill="#80532d"/>
  <path d="M517,240c1.93-.41,3.43-1.67,2-3.39-3.52-4.1-1.89-6,2.41-7.37A2.3,2.3,0,0,0,523,227c2-.43,2.53,1.26,3.35,2.37,7.18,9.7,14.68,19.18,21,29.48,1.52,2.48,3.64,4.82,2.61,8.14-1.09,1.46-2.31.63-3.57.28-2.23-.6-4.33-.59-5.51,1.92-.84,1.77-2.71,1.76-4.19,2.38s-2.71.84-3.68,2.27c-3.16,4.65-3.52,4.77-6.51,0-2.86-4.56-5.94-9.24-6.29-14.84C519.82,252.56,517.57,246.44,517,240Z" transform="translate(-477.16 -163.44)" fill="#7d644a"/>
  <path d="M552,369c-6.79-3.55-10.27-10.09-14.49-16-1.61-2.24-1.63-2.16.16-4.27.2-.23-.43-1.16-.67-1.77a8.88,8.88,0,0,1,1.33-6.19c3-4.63,3.32-9.55,2.24-14.73S539.5,315.25,538,310c0-1,0-2,0-3a5.5,5.5,0,0,0,.49-4.25,44.28,44.28,0,0,1-.42-18.09c.77-4.75,3.43-5.71,7.31-2.74Q550.67,286,556,290c1.91,1.91,1.17,4.37,1.41,6.62a10.64,10.64,0,0,1-.73,4.83c-2.53,1.88-3.76-.34-4.5-1.9-1.45-3-4.12-4.72-6.44-6.83s-3.59-.63-3.44,1.55c.63,8.58,1.46,17,4.42,25.35,2.36,6.68,5.48,13.06,7.49,19.86,1.16,8.85-1.1,17.58-.86,26.39A3.89,3.89,0,0,1,552,369Z" transform="translate(-477.16 -163.44)" fill="#674126"/>
  <path d="M550,267c-2.13-6.73-6.72-12.07-10.51-17.79-5.08-7.67-10.94-14.82-16.47-22.2-5.87-8.38-10.78-17.52-18.94-24.11.61-3.67,2.16-3,4.3-1.07,6.64,6,11.12,13.65,16.23,20.76,7.34,10.23,15,20.22,22.42,30.39a31.17,31.17,0,0,1,8.42,12.59,121.2,121.2,0,0,1,5.3,22.16,3.49,3.49,0,0,1-.4,2.24,2.05,2.05,0,0,1-2.1.43c-1.68-1-.91-3.23-2.22-4.42-.33-1.08-1.2-2.34-.9-3.2C557.39,276.17,554,271.51,550,267Z" transform="translate(-477.16 -163.44)" fill="#5c3619"/>
  <path d="M497,235c.25-3.61-.61-7.29.79-10.85,1.89-4.78,5-5.64,8.67-2.17,2.29,2.18,4.65,4.38,4.69,7.92-.05,4.59,0,9.18-.19,13.77-.14,2.95-1,3.45-3,2.3-.81-6.6-2.11-13.17-1-19.87-1.06-1.21-1.77-.66-1.87.59a57.28,57.28,0,0,0-.05,6.42c.08,2.12-.81,3.08-2.93,2.85-2.1-3-.52-6.27-1.08-8.84-.65,2.2,1,5.3-1,7.89C499,236.14,498,234.69,497,235Z" transform="translate(-477.16 -163.44)" fill="#55351f"/>
  <path d="M500,235c.55-4.14-1.48-8.83,3.23-13.26-1.44,5.4-1.31,9.8-1.16,14.21,0,1.61,0,3.22,0,5.34C500,239.18,502,236.49,500,235Z" transform="translate(-477.16 -163.44)" fill="#896247"/>
  <path d="M506.94,226.08c-.52,6.67,1.83,13.19,1,19.87-.59.22-1.75.51-1.67,0C507.16,239.33,504.47,232.6,506.94,226.08Z" transform="translate(-477.16 -163.44)" fill="#8c6243"/>
  <path d="M556,286c1.82.76,2.09,2.29,2,4,1.3,2.89,1.27,5.41-2,7q0-3.51,0-7C556,288.66,556,287.33,556,286Z" transform="translate(-477.16 -163.44)" fill="#60391d"/>
  <path d="M512,230c3.42.8,4.92,2.55,3,6Q513.49,233,512,230Z" transform="translate(-477.16 -163.44)" fill="#7d644a"/>
  <path d="M575,389c-2.12-1.65-4.28-2.6-7.11-1.62-1.38.48-3.37,1-4-1.44a7.14,7.14,0,0,1-1.32-4.2c1.62-17.12,1.72-34.35,4.1-51.39,1.28-3.32,3.87-6.1,3.52-10.13a3.6,3.6,0,0,1,3.47-3.65c1.92-.21,3.17,1.2,3.78,2.75a56.92,56.92,0,0,0,5.08,10.15c2.67-3,5.5-2.22,8.29-.2,1.63,1.18,2.7,2.92,1.82,4.73-1.5,3.05-.31,6.27-1.15,9.29s2.14,4.22,3.19,6.34c-.1,4.23-.57,8.45-.35,12.68.53,4.23-1.46,8.46-.6,12.69,2.6.1,1.82-4.08,4.71-2.76,1.42,2.34,2.92,2.67,4.37.09a15.59,15.59,0,0,0,1.65-6.74c1.08-16.09,4.24-32,4.66-48.13.05-2-.14-4-.15-6a5.3,5.3,0,0,1,.33-1.58,11.39,11.39,0,0,0,2.37-7.37c0-3.13.14-6.32,2.48-8.84,2.28-.74,5.07.22,6.89-2.08.76-1,3.55-1.55.29-3.1-1-.5-.35-1.76.66-2.3,1.31-.72,2.72-1.8,4.07-1.73,5.22.25,6.16-3.53,7.15-7.2a41,41,0,0,1,2.61-8c1.31-2.61.35-4.8-1.42-6.79-1.73-3.82,1.29-3.48,3.44-3.95,1-.22,2.82,2.09,2.87-1,0-.12.89-.25,1.21-.65,1.44-1.31,3.27-1.57,5.07-1.93,3.36.21,6.22-1.69,9.43-2.16,1.26-.18,2.46-1,3.75-.16a8.88,8.88,0,0,1,1.13,10.3c-3.41,6.36-3.47,13.42-5,20.15s-3.16,13.19-2.57,20.17c.41,4.79-3.23,8.6-4.57,13.07-1.75,5.88.1,11.81-1.06,17.67-.44,2.22,0,4.72-1.12,6.8a43.55,43.55,0,0,0-4.94,19.94,34.1,34.1,0,0,0,12.35-3.64c1.34-.68,1.49-2.07,1.76-3.4,1.61-7.76,3.32-15.49,2.24-23.54-.36-2.63,1.24-4.83,2.84-6.73,3.93-4.68,5.16-9.7,5.11-16-.06-6.05-1.72-11.63-2.32-17.46-.46-4.49-.88-9,0-13.42,1.62-8.15-.63-15.78-2.48-23.5A4.31,4.31,0,0,1,661,251c1-1.3,0-2.6,0-3.9,2.82-4.92,4.75-10.4,8.7-14.6,1.58-1.66,1.94-3.75,2.93-5.61,2.07-3.87,4.33-4.1,7.38-.85l4.27,7.27c2.07-.82.66-3.06,1.74-4.25.66,1,1.32,2,2,3-1.11,2.47,1.73,4.64.55,7.12a5,5,0,0,1-3.87,2.82c-5.49.52-9.67,4.13-14.59,6-3.94,1.49-4.32,4.63-1.8,11,4.24,10.73,5.06,22.38,9,33.18,1.76,4.84,4,9.53,4.11,14.8-.67,11.08-2.53,22-4.26,32.95-.51,3.26-.72,6.57-1.55,9.79-.23.88-.31,2.06,1.16,2.23a11.27,11.27,0,0,0,3.25-.78c3.65-.63,6.47-2,6.45-6.4,0-.62.76-1,1.48-1,1.47,1.88,2.94,3.78,5.67,1.86,3.07-2.06,5.11-4.73,5.2-8.6a8.52,8.52,0,0,1,1.91-5.05,7.56,7.56,0,0,0,1.61-6.56,5.73,5.73,0,0,1,1.27-5.59c.57-.61,1.34-1.46,1.06-2.17-2.22-5.63,2.26-10.62,1.47-16.11-.26-1.77.47-3.72,2.26-4,5.76-.88,5.52-5.71,6.14-9.48.7-4.22.13-8.64,2.08-12.7a3.11,3.11,0,0,0-.49-3.3c-3.57-4.75-3.32-10.3-3.19-15.78.05-2,.34-4.36,2.32-5.22s3.73.85,5.31,2a17.15,17.15,0,0,1,1.46,1.37c.36.56.86-.1.32.29,0,0-.12-.09-.29-.31-.74-1-2.37-2-.86-3.28,1.21-1,2,.55,2.8,1.27,1,.87,1.75,2,3.07,2.5,8.4,7.59,14.8,17,22.45,25.23,7,7.54,13.73,15.3,20.32,23.18,3.46,4.15,7.9,7.53,10.21,12.61-5.32-3.55-8.54-9.19-13.39-13.26,3.35,6.76,9.49,11.34,13.65,17.61-1.11,1.25-3.24.35-4.3,2,0,1.35,1.84.09,2.09,1.33l-66.54,20.63L715,346c-.94,2.75-3.65,2-5.56,2.78-5.42,2-11.09,3.12-16.46,5.22l0,0c-27.71,8.15-55.13,17.23-82.85,25.31-6.08,1.91-12.28,3.44-18.2,5.84l-3,.85c-3.19.69-6.26,1.76-9.37,2.73C578.18,389.19,576.65,390.35,575,389Z" transform="translate(-477.16 -163.44)" fill="#764b28"/>
  <path d="M609.94,379c9-2.81,18-5.65,26.95-8.42q25.86-8,51.74-15.84A33.47,33.47,0,0,1,693,354c-7.47,4-15.85,5.38-23.82,7.93-19.35,6.18-38.81,12-58.23,18C610.66,379.58,610,379.58,609.94,379Z" transform="translate(-477.16 -163.44)" fill="#9b693f"/>
  <path d="M575,389c4.82-.26,9-3.68,14-3-9.59,4.66-20.12,6.45-30.1,9.93-1.7.59-3.58.76-5,2.06-.64-.08-1.71,0-1.86-.27-.71-1.48.7-1.42,1.51-1.67,6.28-1.94,12.56-3.84,18.83-5.8A22.18,22.18,0,0,0,575,389Z" transform="translate(-477.16 -163.44)" fill="#9c6e48"/>
  <path d="M725,344c8-3.74,16.54-5.72,25.1-7.62-8.31,2.69-16.19,6.83-25.08,7.64Z" transform="translate(-477.16 -163.44)" fill="#a16b3f"/>
  <path d="M609.94,379l1,1c-6.47,1.25-12.38,4.51-19,5.21C597.38,381.39,603.88,380.81,609.94,379Z" transform="translate(-477.16 -163.44)" fill="#9e6d45"/>
  <path d="M693,354c4.75-3.6,10.91-3.37,16-5.94a2.49,2.49,0,0,1,1,.94C704.52,351.31,699,353.35,693,354Z" transform="translate(-477.16 -163.44)" fill="#9b693f"/>
  <path d="M710,349l-1-.94a10.55,10.55,0,0,0,6-2.06c3.48.06,6.42-2.52,10-2l0,0C720.34,346.66,715.19,347.88,710,349Z" transform="translate(-477.16 -163.44)" fill="#a16f42"/>
  <path d="M554,401l1-1,8.94-2.12c-2.52,3.26-6.37,3.28-9.91,4A5.93,5.93,0,0,1,554,401Z" transform="translate(-477.16 -163.44)" fill="#937452"/>
  <path d="M762.06,332.57c3.65-1.32,7-3.46,11.07-3.14C769.54,330.89,766,332.57,762.06,332.57Z" transform="translate(-477.16 -163.44)" fill="#a16b3e"/>
  <path d="M680,226c-3.74-2.24-6.16-1.39-6.86,2.87a6.55,6.55,0,0,1-2.92,4.71c-3.76,2.84-3.28,8.52-7.17,11.42a20,20,0,0,0-2.06,2.06,7.48,7.48,0,0,1-3-3c-.85-2.57-3.67-3.11-5.18-5.16-3.85-5.2-7.21-10.08-7.12-17.26C645.79,213,642.18,205,639,197a15.15,15.15,0,0,1,4.63,4.42c.88,1.19,1.43,2.8,3.32,2.36s2.45-2.21,2.82-3.77c1-4.2-.27-8.14-1.78-12,10.72,10.29,19.43,22.36,29.45,33.28C678.58,222.52,680,224,680,226Z" transform="translate(-477.16 -163.44)" fill="#7d6143"/>
  <path d="M633.05,189c-.15,6.57-1.82,13-.41,19.76.88,4.23-1.37,5.95-4.64,5.26,1.42-2.81,1-5.78.79-8.74-.36-4.24-.83-8.49.6-12.63-1.31,4.14-1.07,8.38-.63,12.61.3,3,.53,5.93-.76,8.76-2.48,2.64-5.75,2.91-9.07,3,1.6-5.87.9-11.87,1.05-17.82a33.38,33.38,0,0,1,.13-4.48C621.39,186.82,626.26,184.69,633.05,189Z" transform="translate(-477.16 -163.44)" fill="#643d21"/>
  <path d="M593.81,349c-2.11-.35-4.48-1.19-3.67-3.62,1.24-3.72-1.22-7.67,1.44-11.34,1.48-2-.56-3.62-2.56-4.47-1.7-.72-3.61-2.6-4.86.5-.49,1.19-.89,2.22-2.43,1.71-1.2-.4-.83-1.48-1.08-2.39-1-3.45-3.82-6.07-4.43-9.78-.19-1.17-1.08-2.73-2.8-2.07-1.45.56-2.84,2-2.28,3.47,1.44,3.79-.68,5.9-3.08,8.05-1.79-1.68-1.73-3.95-1.44-6,1.45-10.43,1.45-21,3.24-31.39.48-2.29,2.71-2.14,4.23-3,2-1.1,3.58-2.54,3.68-5,0-1-.79-1.39-1.75-1.27-2.58.34-4.35,1.52-4.48,4.38a1.52,1.52,0,0,1-.21.45c-2.34,2.94-3.67,2.14-4.31-1.17.47-3.64,2.85-5.66,6-7a5.35,5.35,0,0,1,2.91-1.78c13.23-3.41,26.32-7.31,39.53-10.8a5.18,5.18,0,0,1,2-.07c5.85,1.14,8.73,5.72,11.64,10.44-.12-4.56-.13-8.83-.26-13.1A5.46,5.46,0,0,1,635,262c2.82,1.44,3.9,3.85,2.56,6.59-2.26,4.63-3.21,9.61-4.74,14.44-.37,1.15-.82,3.19-2.43,2.46-3.6-1.65-5.6,2-8.37,1.73-1,2.26,4,1,1.6,3.58-2.28,2.43-4.35,5.91-8.62,3.2-.94-.81-1-2-1.34-3.07-1.54-5.38-2.68-6-8-4.4-3.71,2.46-4.82,6.32-5,10.34-.44,11.39-3.5,22.44-4.07,33.79-.24,4.63-.71,9.21-1.21,13.8C595.19,346.09,595.4,347.82,593.81,349Z" transform="translate(-477.16 -163.44)" fill="#714421"/>
  <path d="M635,262l-6,2c-3.22,2.66-6.8,4-11,3-15,4-29.8,8.74-45,12-.69-1.12-3.31-2.31.21-3.23a23.93,23.93,0,0,0,3.53-1.52c-2.08-3-5,1.4-6.77-1.29l35.11-9.85c.29.25.37.48.26.7s-.22.32-.32.32c-.06,1.52.07,2.6,2.17,2,3.14-1,6.38-1.62,9.53-2.53,8.37-2.42,16.67-5.05,25.26-6.62-.27,3.06-1.75,3.42-4.49,2.5C636.18,259,634,259.31,635,262Z" transform="translate(-477.16 -163.44)" fill="#845226"/>
  <path d="M558.08,378.89Q557,376.45,556,374c-1.35-5.6-.43-11.24-.07-16.82.53-8.09,1.31-16.17,1.74-24.28.7-13.4,1.11-26.85,3.13-40.13.62-4,.84-8.5,3.76-11.95,1.27.48.93,1.3.47,2.16.83,13.55-.51,27-1.61,40.49-.1,1.18.68,1.33,1.54,1.43,1.21,1.28.66,2.56,0,3.84-2.14,8.22-1.83,16.72-2.35,25.06-.44,7.07-1.5,14.12-1.34,21.24C561.31,376.85,561.77,379.81,558.08,378.89Z" transform="translate(-477.16 -163.44)" fill="#522e16"/>
  <path d="M564,328c1.16-.78.94-2,.91-3.1-.23-13,3-25.81,2.07-38.85.79,2.44,2.39,1.65,4,1a2,2,0,0,1,.07,3c-1,11.18-2,22.35-3,33.53-.15,1.82,0,3.66,0,5.48L564,386l-1.93-1a3.75,3.75,0,0,1-2.16-4.11c1.94-17.42,2.35-34.95,3.94-52.4C563.82,328.28,564,328.14,564,328Z" transform="translate(-477.16 -163.44)" fill="#502d16"/>
  <path d="M565,283l0-1.94a4.18,4.18,0,0,1-1.35-2.27,5,5,0,0,1-1,4.45c-2.41-1.39-1.16-4.06-2.35-5.51.78,1.86.77,4.11,1.48,6.25.51,1.51.92,3.64-1.77,4.07-1.18-5-2.28-10.11-3.57-15.12A55,55,0,0,0,547,253c3.5-.7,2.54,3.86,5.41,4.24,1.46-.41-1.18-2,.52-2.65l3.44,4.7c-.59-2.43,1.93-3.53,2.31-6.15,4.9,8,8.7,15.74,8.73,24.94-.61-1.41-1.23-2.81-1.94-4.45C563.84,277,567.78,280.06,565,283Z" transform="translate(-477.16 -163.44)" fill="#8e5f3b"/>
  <path d="M516,372c-4,1-10.56-5.13-8.7-8.86,2.66-5.33-1.6-7.4-3.36-10.65s-6.06-4.67-7.42-7.36c-2.26-4.47-6.74-6.68-8.89-10.94-.26-.52-1-.78-1.57-1.16L486,321a53.32,53.32,0,0,1,0-15.19c2.61-2.51,3.76.11,5.09,1.56,6.33,6.91,10.55,15.29,15.89,22.9,8.58,12.23,16.44,25,25,37.23Q540.28,379.52,548,392h0c.29,6.26.74,12.53-.54,18.74-.39,1.88.29,4.4-2.44,5.24-.59-5.44-5.89-4.35-8.93-6.38-.32-.22-1.14.26-1.42,0-3.45-2.88-5.57-3.53-4.24,2.32.16.69-.14,1.44-.95,1.4-1.24-.06-2.61-.77-2.3-2,.89-3.75-3.69-9.14,3.69-11.16,2.36-.65.74-4.1,1.27-6.23-2.32-.43-4.36,3.75-5.28.84-1.05-3.27-8-4.25-3.72-9.59,1.71-2.13-.24-3.53-2-4.65-1.27-.79-3.07-.06-4.09-1.49,1.92-5.31.56-9.87-3-14.2C511.9,368.27,516.15,369.44,516,372Z" transform="translate(-477.16 -163.44)" fill="#836d55"/>
  <path d="M487,305c-2.12,5.22-.54,10.68-1,16-2.05-5.89-.6-11.94-.79-17.92,0-.76.57-1.56-.31-2.27-1.66-.19-.2,2.23-1.87,2.18V298a2.2,2.2,0,0,1,3-.06c1.15,1.88,1,4,1,6.05.28.21.37.43.27.63S487.1,305,487,305Z" transform="translate(-477.16 -163.44)" fill="#654327"/>
  <path d="M486,298l-3,.06c0-.34,0-.67,0-1a93.51,93.51,0,0,1,19-4.71c-3.89,2.9-9,2.3-13.05,4.67C487.91,297,486.74,296.82,486,298Z" transform="translate(-477.16 -163.44)" fill="#866242"/>
  <path d="M727,255c-2.93.73-3.11-2.95-5.72-3.38.31,3,4,3.79,4.57,7.28-3.22-2.19-5-5-8.1-6.31-1.69-.71-2.71-1.42-3,.94-.91,6.31-2,12.67,3,17.95.78.82,1.22,1.65.64,2.64-3.93,6.71-1.23,14.73-4.33,21.66-.84,1.89-1,3.34-3.59,2.6s-4,1.12-3.26,3.33c.91,2.73-.06,4.74-1,7.07-.64,1.64-1.93,3.49-1,5.23,1.54,3,2.08,5.56-1.54,7.41-.24.12-.55.65-.47.81,3.19,6.25-3.18,10.57-3.25,16.17-.06,4.11-2.88,6.5-6,8.58-1.35-1.46-1-3.06-.42-4.68,2.81-8.25,3.3-16.89,4.51-25.43,1-7.21,3.51-14.17,5-21.32.51-2.45,1.3-4.8.9-7.35a6,6,0,0,1,.42-3.92c4.51-7.94,4.34-16.53,3.6-25.19-.23-2.74.88-5.45.28-9.11-5,18.71-9.41,36.54-10.94,55-.67,8.13-3.62,15.9-4.3,24.06-.14,1.71-.88,3.69-3.49,2.7-1.52-2.67-.82-5.45-.43-8.23,1.4-10.14,3.66-20.16,4.51-30.39,2.43-12.44,5-24.86,6.18-37.52.21-2.31,1.48-4.34,2.16-6.53,0-3.25-1.24-7.29.25-9.51,1.37-2,5.75-1.89,8.65-3.07,3.26-1.31,6.5-2.46,10.06-2.43-.56,2.17,3,2.67,2,5-2.39-2.7-5.06,2.08-7.58-.73C717,245.82,723.91,249.05,727,255Z" transform="translate(-477.16 -163.44)" fill="#83522c"/>
  <path d="M545,416c1.56-5.49,1.74-11.14,2-16.78.11-2.43-.39-4.94,1-7.2a3.15,3.15,0,0,1,1.39,3.34c-1,2.83,1.17,3.47,2.64,4.67-2,3.45-1.39,7.43-1.75,11.06-1.48,15-2.15,30-3.29,45-1,13.3-2.22,26.57-4.3,39.8q2.86-40.41,5.72-80.84l-1.13-.06q-1.77,22.42-3.52,44.89c-1.36-.65-.42-2-.77-2.94C542.71,443.26,545.41,429.71,545,416Z" transform="translate(-477.16 -163.44)" fill="#664f39"/>
  <path d="M605,264.14l.06-1c9-2.22,17.7-5.62,26.89-7.16,1-.41,1.2.07,1,1C623.55,259,614.58,262.72,605,264.14Z" transform="translate(-477.16 -163.44)" fill="#99653c"/>
  <path d="M632.94,256.91c-.32-.32-.64-.64-1-1,8.73-3.69,18-5.22,27-8.17l.36,1.23Z" transform="translate(-477.16 -163.44)" fill="#7f5c3f"/>
  <path d="M661,251l1,1.05c-.4.89-.91,1.55-2,1-3.16.76-6.32,1.46-9.45,2.3-1.25.33-2.44,1.17-3.51-.28A84.49,84.49,0,0,1,661,251Z" transform="translate(-477.16 -163.44)" fill="#7d6143"/>
  <path d="M677,353c-2.14,1.46-3.64,2-3.08-1.71,1.87-12.3,3.54-24.64,5.54-36.93A70.45,70.45,0,0,0,680,307c.08-18.09,6-35.46,6.56-53.48a13,13,0,0,1,.66-4.06c1.09-1.33,1.46-3.44,3.77-3.45,0,2.7,1.49,5.21,1,8,2.2,3.54.44,7.18-.08,10.61-3.53,23.23-7.39,46.4-10.84,69.64C680.16,340.51,680.25,347.17,677,353Z" transform="translate(-477.16 -163.44)" fill="#5e391f"/>
  <path d="M702,249a268.56,268.56,0,0,1-4.23,30.41Q696.38,286.23,695,293c-3.45.89-3-1.59-2.78-3.46,1-7.53,2.49-15,3.1-20.58-.52,6.79-2.9,15.33-3.4,24.16-.29,5.21-1.44,6.25-5.33,5.56-.1-9,2.28-17.72,3.48-26.57.82-6.05,1.54-12.15,2.9-18.13h0c2.37-1.72.33-5.95,4-6.95,0,.31,0,.63,0,.95-.1,3.46.29,6.93-.13,10.51C697.77,254.81,699.06,251.49,702,249Z" transform="translate(-477.16 -163.44)" fill="#543018"/>
  <path d="M693,254c-.81,13-3.51,25.76-5.45,38.61A62.6,62.6,0,0,0,687,299c1.45,5.74-.9,11.14-1.59,16.67-1.5,12.15-3.52,24.24-5.41,36.34-.72,1.16-1.9.95-3,1,1.11-7.82,2.14-15.64,3.32-23.45q3.79-25.11,7.71-50.22c1.31-8.45,2.66-16.9,4-25.35Z" transform="translate(-477.16 -163.44)" fill="#6b4626"/>
  <path d="M697,247.05c-1.92,2,.24,6.27-4,6.95-.25-4.12.59-8.31-.89-12.36-.77-2.1,4-1.76,2.11-4.71C696,240.23,696.54,243.62,697,247.05Z" transform="translate(-477.16 -163.44)" fill="#6d401c"/>
  <path d="M691,246c-1.31.69-.81,3.17-3,3-4.07-3.34,0-6.68,0-10,1-2.33-2.22-4.64,0-7C689.09,236.67,691.33,241.06,691,246Z" transform="translate(-477.16 -163.44)" fill="#6b4626"/>
  <path d="M700.37,237c4.36-2.93,8-3.35,11.63-3.63A32.6,32.6,0,0,1,700.37,237Z" transform="translate(-477.16 -163.44)" fill="#966037"/>
  <path d="M601.87,455.07c3.65.88,2.48,3.79,1.62,5.47a11.4,11.4,0,0,1-9.81,6.42c-4.67.26-5.57-1.42-3.48-6C593.49,457.81,597.23,455.55,601.87,455.07Z" transform="translate(-477.16 -163.44)" fill="#7c5b3f"/>
  <path d="M620.91,489c-1.37,0-2.85,0-3.42-1.46s.86-1.85,1.65-2.66a63.74,63.74,0,0,0,5.5-6.34c1-1.28,1.54-2.6,3.44-1.47s3.27,2.38,2.77,4.75C630.48,483.57,622.83,489,620.91,489Z" transform="translate(-477.16 -163.44)" fill="#a18367"/>
  <path d="M599.68,453c-2.06-.08-3.24-.73-1.49-2.59,1.54-1.64,2.17-3.1.87-5.24-1.8-3,2-10.34,5.54-10.78,1.72-.21,2.47.89,1.89,2.5a28.17,28.17,0,0,1-2.71,6.34c-1.56,2.34-3.55,4.1-1.67,7.4C603.3,452.73,601,452.77,599.68,453Z" transform="translate(-477.16 -163.44)" fill="#937452"/>
  <path d="M601.87,455.07c-4.23,1.3-7.86,3.78-11.67,5.89A11.26,11.26,0,0,1,601.87,455.07Z" transform="translate(-477.16 -163.44)" fill="#442108"/>
  <path d="M516,372c-3.77-1.46-4.32-4.52-3.94-8,.16-1.54.85-2,2.29-1.11,4.31,2.62,5.91,12.27,2.65,16.18C513.91,377.09,516.24,374.36,516,372Z" transform="translate(-477.16 -163.44)" fill="#745537"/>
  <path d="M516.91,422.44c0,1.52-.16,2.59-1.19,3-1.69.73-2-.92-2.34-1.83-.85-2.08-3.29-4-.73-6.62.81-.83-.5-.64-1-.94-1.56-.83-1.87-2.58-1.34-4.26.16-.5.95-1.24,1.31-1.17,1.43.29,1.92,1.65,2.67,2.75C516.23,416.29,515.75,419.82,516.91,422.44Z" transform="translate(-477.16 -163.44)" fill="#725339"/>
  <path d="M487,305c0-.31,0-.63,0-.94.62-.24,1.75-.71,1.77-.68,2,4.43,7.48,4.94,10,9,3.28,5.37,7.05,10.43,10.66,15.59,1.15,1.64.94,1.5.11,3.95-.57,1.67,1.44,3.88,2.19,4,5.72.66,6.87,5.92,9.14,9.39,8.86,13.59,18.07,26.94,27.19,40.36,1,1.5.88,1.33-.48,3.2-.46.63.25,2.13.43,3.23-5.11-3.28-7.39-8.95-10.43-13.67-7.16-11.11-14.92-21.82-21.94-33-6.68-10.65-13.83-21-20.78-31.5C492.65,310.49,490.49,307.13,487,305Z" transform="translate(-477.16 -163.44)" fill="#6d421e"/>
  <path d="M556,297a15.41,15.41,0,0,0,2-7h2c2.29,2.93.63,6.15.44,9.15-1.45,22.8-2.86,45.6-4.46,68.39-.12,1.58.54,3.8-1.94,4.48-.66-1-1.33-2-2-3-.73-10.36,1.62-20.63,1-31-1.36-10.74.4-21.33,1.51-32,.16-1.46.23-3,1.47-4.07C556,300.32,556,298.66,556,297Z" transform="translate(-477.16 -163.44)" fill="#522e16"/>
  <path d="M554,372c1.52-3.17,1.42-6.61,1.62-10,.86-14,1.45-28,2.52-42,.77-10,2.14-20,1.82-30.09,0-.66,0-1.32,0-2,2.5-3.21-.38-6.27-.35-9.42,0-1.52-1-3.05-.11-4.92,2.12,2.48,1.43,5.8,3.06,8.41.94-2.47.23-4.77.61-7.39.6,2.11,1.19,4.22,1.79,6.33-1.17,6.87-3.63,13.41-4.1,20.5-1.24,18.75-1.76,37.56-3.76,56.27-.58,5.37.32,10.86-1.13,16.19Z" transform="translate(-477.16 -163.44)" fill="#76502d"/>
  <path d="M538,310c3.46,5,2.4,11.15,4.06,16.57,2.44,8-2.49,13.85-5.06,20.42a9.29,9.29,0,0,1-.57-9.23,24.55,24.55,0,0,0,.8-18C536.21,316.66,538.66,313.36,538,310Z" transform="translate(-477.16 -163.44)" fill="#6f4e2e"/>
  <path d="M564,328c-.2,15.43-1.69,30.77-2.91,46.14-.28,3.56-1,7.33.89,10.8l-1.29,1.34c-.55-2.58-5-3.77-2.65-7.39,1.53-.07,1.84-1.06,1.91-2.36.66-11.9,1.3-23.79,2-35.68.27-4.27.78-8.53,1.19-12.78,0-.1.23-.23.36-.24S563.89,327.94,564,328Z" transform="translate(-477.16 -163.44)" fill="#76502d"/>
  <path d="M554.15,387.05l-11.21-17.28c6.06,2,9.1,6.37,11.71,10.79C550.5,382.53,555.23,384.42,554.15,387.05Z" transform="translate(-477.16 -163.44)" fill="#5c2e0d"/>
  <path d="M556,302q-1.49,18-3,36c-1.79-5.3-4.67-10.07-6.36-15.58-1.8-5.87-3.36-11.89-4.84-17.88A50.5,50.5,0,0,1,540.7,294a4.41,4.41,0,0,1,2.67-4.46c2-.76,2.1,1.89,3.22,2.31C551.48,293.67,552.11,299.3,556,302Z" transform="translate(-477.16 -163.44)" fill="#60391d"/>
  <path d="M660,253l2-1c.94.45,1.82,1.11,1.86,2.17.32,7.93,3.56,15.55,1.35,23.81-1.54,5.75-1.19,12.69,1.27,17.56,2.54,5-.49,9.26,1,13.52,2.14,6-1.37,10.14-4.52,14.33-2.32,3.08-3,5.66-2.63,10A44.57,44.57,0,0,1,658.48,350a5.16,5.16,0,0,0-.54,1.9c.88,7.26-5,7.4-9.45,9a15.27,15.27,0,0,1-2,.37c-2.21.46-4.72,2.79-6.5,1.18s.82-3.77,1.58-5.61c.85-2.06-.54-3.77-.33-5.81.35-3.35,2.93-5.37,3.74-8.31a51.78,51.78,0,0,0,1.56-20.7c-.44-3.55,1.37-8.23,3.67-11.95a12.86,12.86,0,0,0,2.29-8.35c-.81-8.22,2.9-15.91,3.56-23.86.53-6.39,3-11.77,4.8-17.57C661.66,257.92,660.63,255.41,660,253Z" transform="translate(-477.16 -163.44)" fill="#825631"/>
  <path d="M688,253c.65,9.21-2.36,17.95-3.5,26.93-1,8.16-2.34,16.27-3.48,24.41-.14,1-.09,2-1,2.67.25-5.15-2.37-9.49-4-14.1-3.94-11-4.88-22.89-9-33.9-.93-1.16-.3-2.54-.49-3.8-.83-5.64.33-7,6-7.58,1.48-.15,3-.29,4.4-.57C685.07,245.48,685.33,245.62,688,253Z" transform="translate(-477.16 -163.44)" fill="#6b4626"/>
  <path d="M606,285c6.47-2.23,9,.26,9,9-1.86,3-2.16,6.42-2,9.85.14,2.66-.39,4.89-3,6.16-1.08-2.17-.55-4.47-.33-6.68s.85-4.27.9-6.35c-.22,4.59-2.25,9.17-.63,14,1.61,7.05,0,14.11-.33,21.1-.56,11.15-3.17,22.13-3.68,33.33a21.72,21.72,0,0,1-1.13,6.79c-.86,2.22-2.45,4.76-5.11,4.55-2.93-.23-1.23-3.21-1.83-4.89-1.84-2.14-1.44-4.69-1.17-7.13,1.59-14.17,2.8-28.37,3.81-42.59a13,13,0,0,1,.92-4.36c2.85-8.48,2.29-17.37,3.08-26.09C604.75,289.36,604.27,287,606,285Z" transform="translate(-477.16 -163.44)" fill="#62452f"/>
  <path d="M690,332c3.9-2.7,1.83-7.08,2.74-10.6,3.88-15.05,4.15-30.77,7.49-45.92,1.94-8.76,4.55-17.42,6.57-26.19.25-1.09.34-2.71,1.83-2.53s1.39,1.69,1.34,2.87c-.37,9.54.1,19.11-1.09,28.6a7.45,7.45,0,0,1-1.8,4,6.12,6.12,0,0,0-1.44,7.28,3.35,3.35,0,0,1,.15,2.42c-3.44,6.93-2.72,15-6.08,22-1.59,3.34-.47,7.37-1.06,11.12A217.75,217.75,0,0,1,694,347c-3.15,1.34-6.21,2.54-6-2.95C686.34,339.61,687.74,335.72,690,332Z" transform="translate(-477.16 -163.44)" fill="#895c39"/>
  <path d="M690,332l-2,12c-.29.38-.88.82-.82,1.12,1.32,6.21-3,6.42-7.18,6.88-2.69-3.32-.25-6.75.15-9.94,1.77-14.15,4.08-28.23,6.22-42.33,0-.27.41-.5.63-.74,1.67-.53,2.72-.94,3.23-3.33,2.1-9.79,3-19.77,5.33-29.54.57,6.52-1.14,12.78-2.06,19.14-.38,2.59-2.36,5.86,1.53,7.75-.48,10.35-3.09,20.39-4.48,30.62C690.17,326.44,690.15,329.2,690,332Z" transform="translate(-477.16 -163.44)" fill="#5e391f"/>
  <path d="M602.91,318c-1.73,8.29-1.69,16.77-2.57,25.14-1,9.55-1.64,19.14-2.44,28.71-1.08,2.65-.68,6.71-5.66,5.63-.82-4.69,1.29-9.35.86-14.15q1.71-20.44,3.85-40.84c.35-3.29,1.07-6.53,1.3-9.84.12-1.67,1.15-3.31,3.27-2.92,1.87.35,2.15,1.85,1.72,3.49S604.22,316.46,602.91,318Z" transform="translate(-477.16 -163.44)" fill="#faf9f8"/>
  <path d="M602.91,318a15,15,0,0,0-.4-2.94c-.53-1.61,1.47-4.5-1.06-4.7-2.88-.23-2.39,3.13-2.62,5-1.76,14.19-3.31,28.4-5,42.6-.2,1.8-.52,3.59-.78,5.39a59,59,0,0,1,.72-14.35c1.07-12.32,1.14-24.84,3.6-36.88,1.38-6.7.44-13.5,2.5-20,1.06-3.33,2.36-6.16,6.08-7.05.32,10.52-1,20.93-2.1,31.35C603.84,316.93,603.25,317.44,602.91,318Z" transform="translate(-477.16 -163.44)" fill="#765536"/>
  <path d="M688,253a2.94,2.94,0,0,1-2-2.63c0-2.61-2.4-3.15-3.8-2.91a109,109,0,0,1-13.14,1.81c-2,.08-2.16,2.19-2.09,3.91.09,1.94.67,3.89,0,5.83-3.32-8-2-9.63,4.79-13.33,5.26-2.86,11.1-3.78,16.21-6.67a2.37,2.37,0,0,1,.54,3.53c-2,2.14-1.1,4.27-.54,6.48C688,250.34,688,251.66,688,253Z" transform="translate(-477.16 -163.44)" fill="#734b25"/>
  <path d="M735,303.67c-.28-2.43.65-4.62,3-4.77,3.23-.21,3.53,3.19,3.24,5-.22,1.41-3,2-4.53,3.43C735.76,308.24,735.13,305.23,735,303.67Z" transform="translate(-477.16 -163.44)" fill="#886043"/>
  <path d="M610,310.94c-3.47-.68-1-2.95-.92-4.29a66.34,66.34,0,0,1,1.68-12.8c1.15,5.47-1.32,10.75-.7,16.16A4.85,4.85,0,0,0,610,310.94Z" transform="translate(-477.16 -163.44)" fill="#331b09"/>
  <path d="M628,214c.43-7.65-1.07-15.41,1.58-22.95-1.5,6.42-.05,12.75.34,19.11A4.6,4.6,0,0,1,628,214Z" transform="translate(-477.16 -163.44)" fill="#754f2d"/>
  <path d="M618,267l11-3c3.1,3.9-.42,9.06,2.51,13.17.58.82-1.3,2.06-2.83,1.39-.4-.17-.67-.7-1-1.1C625,273.55,622.9,269,618,267Z" transform="translate(-477.16 -163.44)" fill="#764b28"/>
  <path d="M571,290c0-1,0-2-.07-3-.32-4,2.15-6.79,5.9-6.38a2.8,2.8,0,0,1,2.81,2.35C580.14,286.74,575.18,290.73,571,290Z" transform="translate(-477.16 -163.44)" fill="#76502d"/>
  <path d="M624,277.08a4,4,0,0,1-3.69,3.82c-1,.14-2.36-.23-2-1.47.59-2,2.58-2.9,4.22-3.9C623.45,275,623.82,276,624,277.08Z" transform="translate(-477.16 -163.44)" fill="#764b28"/>
</svg>
