<svg id="Layer_1" data-name="Layer 1" xmlns="http://www.w3.org/2000/svg" viewBox="0 0 369.82 369.89">
  <title>blinkenbike-tools</title>
  <path d="M401.11,218c.2,3.63.55,7.26.55,10.89,0,3.94,1.76,5,5.35,4,12.4-3.77,24.07-9.4,36.15-14,4-1.52,7.92-3.35,11.88-5,1.26-.53,2.62-.93,1.86-2.78l.48-.51a43.13,43.13,0,0,0,11-2.93c1.05-.4,2.5-.66,2.49-2.07s-1.49-1.58-2.52-2c-7.79-3.28-15.83-5.86-23.7-8.93-1.85-.72-3.84-1.15-5.08-2.9a7,7,0,0,0-1.34-1.43c-1.89-1.26-4.39-2.29-3.56-5.18.79-2.71,3.38-3.35,5.79-4a4,4,0,0,1,2.42-.24c4.26,1.86,7.32-.14,10.15-3,20.05,3.91,37.09,12.24,46.07,32,3.68,8.11,2.94,16.82.93,24.93-2.18,8.82,2,14.22,7.19,19.86,4,4.33,7.75,8.84,11.61,13.27,2.1,5.38.3,10.59-1.74,15.25-5.3,12.11-9.32,24.71-14.66,36.79-1.21,2.73-2.79,5.25-4.06,7.94-2.61,1.52-3.6-.84-4.81-2.19-10.78-12-21.41-24.1-31.48-36.72-5.27-6.62-10.85-13-16.54-19.33a17.19,17.19,0,0,0-11.31-5.57c-14.33-1.75-28.29-4.82-40.21-13.69-3.73-2.78-7.5-5.59-9.29-10.18a30.48,30.48,0,0,1-2.5-9.09c-.08-.66-.5-1.45-.23-1.95,2.83-5.36,1.77-12.34,7.35-16.62,3.14-2.4,4.51-5.93,4.42-10.09-.09-4.41,2.32-5.66,6.21-3.56,1.29,2.16-1.23,4.42.18,6.58C401.24,209.67,399.55,214,401.11,218Z" transform="translate(-375.77 -175.78)" fill="#875f35"/>
  <path d="M557.84,312c31.32,33.46,60.88,68.49,91.75,102.35,6.36,7,12.93,13.79,19.41,20.67,1.5,1.77,2.77,3.9.46,5.59-2.14,1.59-3.68-.67-5-2-2.24-2.42-3.91-5.34-6.56-7.15.68,1.83.64,4.26-1.48,4.86-4.47,1.26-2,4.16-1.93,6.4.08,3.11,2.33,2,4,1.81a2.87,2.87,0,0,1,2.57,1.3,24.77,24.77,0,0,0,6.07,5.84,2.46,2.46,0,0,1,1.11,2.6,2,2,0,0,1-2.25,1.57c-4.61-.75-9.29.64-13.88-.63a8.15,8.15,0,0,1-4.32-2.31c-1.22-1.45-2.17-2-4.08-.69-2.21,1.49-4.6.21-6.51-1.09-3-2-5.32-1.71-8,.73-4.38,4-4.95,3.86-9.66.12-5-3.94-10.45-4.49-16.29-2.2-3.92-1.76-5.7-5.69-8.57-8.52-2.07-2.05-3.62-4.67-6.54-5.77-4.27-2.48-7-6.6-9.88-10.31-8.53-11-18.24-21-27-31.84-3.41-4.84-8.11-8.65-11.09-13.85-.9-6.71-1-13.49-1.82-20.21,3.78-1,5.45-5.51,9.73-5.71.6,0,1.1-.82,1.18-1.48.41-3.62,2-5.29,5.93-4.34,1.85.45,2.62-1.72,3.83-2.77a4.59,4.59,0,0,1,1.2-.73,15.91,15.91,0,0,1,3.95-.51c1.29-.14,2-.53,2-2.16,0-6.48,2.06-7.61,9-4.38-2.45-3.59-6.44-3.93-8.35-6.77-2.26-3.37-5.58-2.94-9-2.44a4.78,4.78,0,0,1-5.1-2.46c-1.32-2.43-1.32-4.55,2.17-5.05,3.12-.45,4.16-1.67,2-4.59C556.19,314.63,555.14,312.82,557.84,312Z" transform="translate(-375.77 -175.78)" fill="#895d2e"/>
  <path d="M603,449c7.06-3.83,13.25-2.06,18.63,3.22,2.53,2.48,4.29,1.72,6.16-.52,3.05-3.62,6-5.33,10.41-1.37,2.49,2.25,5.75,2.39,7.52-2.41,3.1,6.56,8.24,7.05,13.95,6.5,1.55-.15,3.2-.71,4.86.21.9.51,2.48.92,2.92-.61s-1.12-1.85-2.12-2.31a8.38,8.38,0,0,1-3.92-3.62c-1.06-1.81-2.27-4-4.81-1.5a.81.81,0,0,1-.45.2c-1.86.28-2.76-.66-3.09-2.4-1.47-7.76-1.46-8.45,1-8.68,4.26-.39,4.09-2.13,1.77-4.74-.62-.69-2-1.12-.82-2.23s1.85.26,2.8.86c3.5,2.23,5.25,6,8.08,8.77.85.84,1.56,2.67,3.12,1.77s.07-2.37,0-3.6c0-.49,0-1-.06-1.49,23.21,1,44,8.26,61.33,24.12a61.39,61.39,0,0,1,14.23,19.1c.89,1.88,1.53,3.68.51,5.69-3.92,3.84-9.07,5.42-14,7.4-3,1.2-5.11-.83-6.91-2.81-7-7.74-14.73-14.89-21-23.27-3.87-5.17-8.48-7.1-14.9-7.06-13.26.07-26.56.92-39.8-.63-1.71-1.53-3.36-3.36-5.84-1.18a1,1,0,0,1-.94.22c-6-3.81-9,2.14-13.21,4.07-2.56,1.18-3.54,2.95-1.83,5.52,2.18,3.27,2.42,6.34-1.3,9.06,8,1.57,8,1.57,6.43,6.67a7.19,7.19,0,0,1-1.34,1.62c-5.72,1.85-6.29,5.82-4.45,10.79a5.06,5.06,0,0,1-4.08,1.49c-2.49-.13-5.31-.69-6.32,2.44a7.47,7.47,0,0,0,2,7.83c4,4,7.17,8.7,10.82,13,2,2.3,4.55,5.59,2,7.73-2.38,2-5-1.58-6.77-3.51-2.6-2.78-5-5.79-7.8-8.36a8,8,0,0,1-.85-1.16c-2-5.33-6-10.06-5.24-16.27.5-3.84.34-8,3.19-11,1.49-1.57-.25-1-.53-1.27-4-3.92-4-6.48-.12-10.67.71-.76,1.55-1.54,1.07-2.57-1.65-3.58-1.57-7.39-1.84-11.18-.15-2.05-1.76-3-3.3-4.07C605.5,454.87,602.9,452.83,603,449Z" transform="translate(-375.77 -175.78)" fill="#906132"/>
  <path d="M557.84,312c-1.52,1.52-.65,2.83.56,3.8,4.42,3.57.88,4.43-1.78,5.9-1.16.64-4-1.54-3.49,1.74.34,2.49,2.36,4.18,4.62,3.4,9.4-3.25,12.19,6.58,18.62,9.09.78.31,1.78,1.45,1,2.43s-2.16.7-3.19.05c-.83-.53-1.49-1.34-2.31-1.88-1.55-1-2.92-.18-4.09.74-.9.71-1.78,1.78-.83,3,4.55,5.77-.77,4.31-3.44,4.68a25.39,25.39,0,0,1-3.49,0c-1.4-1.23.2-2.87-.67-4.44-2.07.79-4.14,1.6-6.53,2.7,2.42,1.82,5.33-.3,7.2,1.74-1.47,2.65-2.32,6.26-6.77,3.72-1.92-1.1-2.17.47-2.22,1.91-.12,3.12-.64,5.78-4.87,4.59-.83-.23-2,0-1.91,1,.26,4.87-3.05,2.72-5.25,2.78-2.93-1.67-3.63-4.72-4.63-7.57.37-3.16-3-4.85-3.12-7.8a3.69,3.69,0,0,1,1.15-2.54c4.94-4.35,5.31-10.47,6.33-16.34.9-5.65,3.73-10.66,5.28-16.09.33-1.15,1-1.75-.81-2.9-2.52-1.63-1.43-4.84-.75-7.39,1.42-5.3,3.52-10.4,5.42-15.52,3.53-9.44,5.93-19.38,12-27.84,3-4.23,2-5.76-2.21-8.93s-9.38-3.05-14.29-3.5c-2.06-.19-3.32,1.47-4.09,3.19-1.47,3.31-3.9,6.22-4.18,10.06-.09,1.12-.47,2.36-2.07,2.32-1.61-1.49-.57-3.39-.77-5.1,1.68-6.5,5-12.28,7.87-18.25,1-2.06,2.32-2.6,4.4-1.94,7.29,2.31,14.67,4.36,21.85,6.95,3.85,1.39,2.47,4.78,1.5,7.44-5.92,16.23-11.83,32.46-18.07,48.57-1.41,3.65-1,6.07,1.66,8.75C553.72,306.88,556.48,308.89,557.84,312Z" transform="translate(-375.77 -175.78)" fill="#945e30"/>
  <path d="M630,483l1-1c4-7.57,7.76-15.25,12.69-22.27,1-1.45,1.55-4,4.33-2.76,2.94-1.24,5.86.11,8.79.08,9.65-.12,19.37.63,28.94-.24,9.28-.84,15.16,2.83,20.59,9.86,6,7.72,13.15,14.47,19.57,21.85,2.29,2.63,4.43,2.14,7,1,4.05-1.87,8.12-3.68,12.18-5.51-.77,10.19-7.71,17.58-17.55,18.8-2.21.27-3.38-1.13-4.6-2.46-6.89-7.47-14-14.71-20.5-22.53-4.94-6-10.23-8.87-18.34-8.34-10.92.7-21.94,0-32.91-.32-4.44-.12-7.44,1.52-9.91,5.27-4.08,6.21-7,13.2-12.11,18.7-3.94-1.6-2.39-4.52-1.57-7.12C628,484.76,629.44,484.2,630,483Z" transform="translate(-375.77 -175.78)" fill="#725138"/>
  <path d="M541.09,379.82a60.55,60.55,0,0,1,11,13.07c0,2.27-1.9,1.9-2.59,1.13-3.72-4.13-8.18-2.31-12.49-1.91.36,5.36-2.81,9.44-5,13.88-5.13,7.09-6,16.23-11.19,23.29-1.87,1.84-3.49,3.91-5.33,5.78-2.65,4.8-6.45,9-7.65,14.56-.59,2.74-1.2,5.49-3,7.75-1.38,1.7-1.22,3.67-1.1,5.66a5.36,5.36,0,0,1-2.19,3.79c-1.83.72-1.95,2.37-2.44,4-1.22,4-3.34,7.35-7.29,9.23-1.63-2.33-.43-4.52.51-6.59,3.44-7.6,5.86-15.56,8.41-23.47A39.49,39.49,0,0,1,506,438.72c2-2.76,3.36-5.75,3.06-9.28-.17-2,.77-3.32,2.13-4.77,3.64-3.89,4.53-9,5.54-14,.19-1-.49-1.91-1-2.76a5.55,5.55,0,0,1-.54-1.42c-.34-5.31,3.23-9.59,3.84-14.65,3.55-11,7.44-21.95,11.91-32.65,1.21-1.6-.4-3.92,1.34-5.38,5,3.29,7.11,11.31,4.36,17.62a36.88,36.88,0,0,0-2.94,15.16C537.61,385.42,537.91,381.05,541.09,379.82Z" transform="translate(-375.77 -175.78)" fill="#462414"/>
  <path d="M386,240c1.38,4.21,4.93,6.5,8.14,9,11.36,8.93,24.94,12.28,38.79,13.66,7.46.74,12.28,4.26,16.57,9.39,10.8,12.91,21.05,26.31,32.32,38.8,5.23,5.8,9.56,12.59,16.18,17.11,3.41-2.12,5.42-.88,6.4,2.7.38,1.39,1,2.72.83,4.22-1.54,1.62-3.43,1.4-5.34,1-2.17-.59-2.78-2.73-4.07-4.19-15.81-17.93-30.73-36.61-46.64-54.45-3.93-4.4-8.82-5.5-13.93-6.18,8.57.3,11.64,7.77,16.27,13.24,1.54,1.82,1.21,2.1-.79,3.77-6.38-10.81-17.09-12.38-28.25-14.29-14.89-2.54-28.12-9.08-38.06-21a22.86,22.86,0,0,1-1.57-2.5c-.06-.15-.21-.35-.16-.45,1.66-3.89,1.92-7.49-1.68-10.62a2.56,2.56,0,0,1-.22-3.2C383.91,235.54,384.37,238.54,386,240Z" transform="translate(-375.77 -175.78)" fill="#6f4f34"/>
  <path d="M616,514c5.59,3.1,7.83,9.85,13.92,12.71,1.09-5.39-3.51-7.77-6-11a65.54,65.54,0,0,0-8-9.42c-2.84-2.57-2.95-6.63-1.4-9.76,1.15-2.31,4.15-2.76,7.07-1.87,1.25.39,2.86-.4,4.31-.65,3-.78,3.17,3.69,6,3.31,8.24,9.05,16.38,18.18,22.82,28.66-3.38,6.87-10.37,7.59-16.55,9.61-1.26.41-2.55-.59-3.65-1.32a84.76,84.76,0,0,1-17.13-15C616.29,517.9,614.6,516.27,616,514Z" transform="translate(-375.77 -175.78)" fill="#906436"/>
  <path d="M616,514c.09,2.17,1.56,3.77,2.84,5.13a99,99,0,0,0,16.54,14.22,5.43,5.43,0,0,0,6,.38c4.74-2.13,9.84-3.67,13.45-7.76.67,7.75-1.49,13.08-9.27,17.14s-13,3.26-19.35-2.24c-9.33-8.13-16.75-17.35-20.78-29.12a20.58,20.58,0,0,1-1.52-7.75,47.6,47.6,0,0,1,0-13.06c.11-.66.23-1.32.34-2,3.29-.65,2.75,2,3.06,3.71A57.92,57.92,0,0,0,616,514Z" transform="translate(-375.77 -175.78)" fill="#6f543d"/>
  <path d="M606.38,472c-18.38-23-37.82-45.06-56.72-67.6-1.7-2-3.26-4.16-4.89-6.24.35-3.9,1.8-4,5.26-2.44,9.89,4.59,14.94,13.94,21.65,21.51,10.91,12.28,21.41,24.93,32.17,37.34,2,2.26,2.66,5.84,6.28,6.53C611.73,466.07,610.13,470.73,606.38,472Z" transform="translate(-375.77 -175.78)" fill="#6b4f3d"/>
  <path d="M505,334.93c-.59-.94-2.08-1.33-1.92-2.68.5-4.1-1.9-4.61-5.08-4.26-1.07-3.77,2.23-6.07,3.39-9,3.71-9.31,7.16-18.72,10.92-28a172.2,172.2,0,0,0,6.18-17.17c.63-2.18-2-4.14.33-5.83l5.19,5.28c2.83-7,5.52-13.61,8.2-20.24,1.35,1.48.58,3.29.8,4.95-.29,7.05-.93,14-3.46,20.74-4.22,11.19-9.82,21.78-14.12,32.95-2.21,5.75-2.95,12-5.89,17.44-.83,1.56-.11,2.83,1.26,3.87.85.64,2.22,1.33.64,2.65C509.17,336.5,507,336.79,505,334.93Z" transform="translate(-375.77 -175.78)" fill="#78512d"/>
  <path d="M424,475.86c1.1-7.83,4.59-14.89,7.46-22.1,12.37-31,25-61.94,37.63-92.88,3-7.3,6.35-14.35,13.81-18.28,2.11,3.06-.85,4.83-1.81,7.12-.37.57-.78,1.12-1.17,1.67a58.14,58.14,0,0,1-2.91,5.09c-1,3.17-2.82,6.1-2.49,9.61-.66,2.57-2.39,4.59-3.48,6.94-4.91,11.47-9.76,23-14.95,34.3-3.19,7-6.8,13.88-8.78,21.53-1.42,5.52-4.92,10.48-6.63,16.08C438,453.4,434,461.2,429.46,468.78c-1.24,2.08-1,4.5-1.24,6.82-.54,2.29-1.11,4.56-4.35,3.55A3.52,3.52,0,0,1,424,475.86Z" transform="translate(-375.77 -175.78)" fill="#503830"/>
  <path d="M386,240l-5-4c-2.78-1.56-2.24-5.38-4.82-7.07-2-17,2.92-31.08,17.56-41,1.49-1,3.09-2.74,4.85-1.91s1.32,3.2,1.35,5c0,2.65,0,5.31,0,8-3.61-.44-5.82-.39-4.88,4.79.71,3.87-1.71,7.72-5.21,10.24-1.05.75-2.61,1-2.85,2.53C385.81,224.33,380.4,231.93,386,240Z" transform="translate(-375.77 -175.78)" fill="#8a6741"/>
  <path d="M480,350c.2-2.75,3.38-4.36,2.85-7.4a14.34,14.34,0,0,1,6.24-3.94c3.94-1.06,2.2-2.83.93-4.7a1.67,1.67,0,0,1-.29-1.93c2.92,1.48,6.83-.14,9.25,2.93l6,0h7c2.2-1.78,4.38-.68,6.45.18A35.47,35.47,0,0,1,531,343.46c1.11,2.63,3.23,4.74,4,7.54l4,8c2.3,5.61,1.3,11.75,2.82,17.5.26,1-.45,2.21-.71,3.32-1.12,3-3.18,5.34-5.1,7.82-.71.92-1.36,1.41-2.44,1.21-1.54-.29-1.69-1.58-1.51-2.72.75-4.7.32-9.64,2.88-14,4.07-6.87.56-12.52-2.92-18.18a4.36,4.36,0,0,1-2.86-2.59c-3-5.72-8.22-7.84-14-9.15-.65-.15-1.42-.64-1.92-.41-6.93,3.17-14.9.41-21.76,3.89-2.47,1-4.75,1.91-5.16,5.19a3.08,3.08,0,0,1-3.71,2.51C480.88,353.1,479.49,352.16,480,350Z" transform="translate(-375.77 -175.78)" fill="#4e2e1e"/>
  <path d="M499,335c-1.34.3-3.44-3.52-4.06.74l-4.9-3.76c-8.36-8.27-15.1-18-23.13-26.52C462.65,300.9,459.8,295,454,292l-3.26-3.87c.79-.47,1.41-1.17.7-2-5.36-6.14-8.65-15.08-19.17-14.36-.22,0-.47-.36-.69-.54a2.14,2.14,0,0,1,2.5-2c6.06,2,12.73,2.07,17.19,8.26,5,6.94,11.49,12.8,16.83,19.53,9.46,11.91,19.57,23.24,29.56,34.69C498.37,332.59,498.55,333.89,499,335Z" transform="translate(-375.77 -175.78)" fill="#6f553e"/>
  <path d="M520,429a60.67,60.67,0,0,0,5.51-12.89c1.13-4,3.65-7.2,6.52-10.12-3,11.09-7.64,21.57-11.66,32.28q-11.13,29.66-22.73,59.11c-3.25,8.29-7.6,15.88-15.67,20.56-1.86-.27-3,2.48-5.13,1.19a2.33,2.33,0,0,1-.22-1.37c2.75-4.13,7.29-6.51,10.11-10.67,3-4.4,6.12-8.62,7.21-13.95.68-2.4.31-5.15,2.33-7.11a18.72,18.72,0,0,0,4.54-10.3c.67-5.33,4.93-9.43,5.16-14.92a17.67,17.67,0,0,1,1.5-3.35c4.69-6.94,6.06-15.3,9.79-22.65C518.22,432.9,518.89,430.84,520,429Z" transform="translate(-375.77 -175.78)" fill="#554533"/>
  <path d="M606.38,472c2.22-3.36,4.84-6.61,2.65-11-5.13-4.86-9-10.79-13.65-16.08-1.51-1.72-3.07-3.4-4.58-5.13-1.18-1.36-2.59-2.63-1.82-4.74,5.21,1.22,6.6,6.57,10.22,9.52A31.57,31.57,0,0,1,603,449c2.08,2.94,3.59,6.29,7.58,7.5,2.4.73,2.49,3.22,2.44,5.49-.06,3.3-.38,6.61,1.93,9.54,2,2.52-.32,3.6-2.13,4.33s-3.46,1.59-2.43,3.45c.94,1.7.17,5,3.66,4.82,1.31-.08,2.53.35,2.55,1.73,0,1.81-1.22,2.11-2.78,1.6-1.09-.36-1.17.27-1.48,1.21-2.84,8.54-.94,16.35,3.37,23.85A4.86,4.86,0,0,1,616,514c-5.78-5.82-8.26-13.21-10-21-.33-1.51.59-3.5-1.8-4.07C604.48,483.24,606.77,477.79,606.38,472Z" transform="translate(-375.77 -175.78)" fill="#906436"/>
  <path d="M456.9,211.12c-13.86-5.45-27.74-10.86-41.57-16.4-2.16-.86-3.75-2.1-3-5.31.61-2.69-1-5.74.66-8.51l.53.48c.38,2.56.64,2.43,3.8,3.39a213,213,0,0,1,23.32,8.86c1.32.58,3.05,1.57,2.11,3.32-.7,1.31-2.31.75-3.62.27-1.67-.61-3.26-1.42-5-2,5.55,2.15,10.8,5,16.45,6.91,1.67.56,3.69,1.31,3.35,3.69-.3,2,1.2.54,1.76,1,1.31,1.1,3.69,1.55,1.52,3.93Z" transform="translate(-375.77 -175.78)" fill="#79553d"/>
  <path d="M453,177.94c-.7,1.29-1.51,2.52-2.08,3.86-.93,2.18-2.36,2.76-4.23,1.32a6.16,6.16,0,0,0-5.63-.91c-2.15.56-5.12.78-5.6,3.38s2.37,3,4.25,3.88c.63.3,1,.88.27,1.53-3.19,1.72-5.74-.56-8.35-1.56-6.27-2.42-12.73-4.47-18.48-8.11l-.21-.43c3.25-4.28,8.28-3.54,12.66-4.15C434.78,175.47,444,175.1,453,177.94Z" transform="translate(-375.77 -175.78)" fill="#8b6843"/>
  <path d="M589,435c5.56,7.05,11.07,14.15,16.73,21.11A25.83,25.83,0,0,1,609,461c-.18,1.3-.68,2-1.7.61-11.5-15.63-25-29.6-37.11-44.71-4.46-5.56-9.37-10.74-14-16.14-2.28-2.66-6.09-2.5-8.62-5-1.47-1.47-1.27,2.21-2.81,2.47-3-1.43-3.29-6.42-7.73-6,4.35-1.32,8.87-5.4,12.68,1,.6,1,1.67.84,2.4-.2,9,9.7,17.67,19.67,25.91,30C581.41,427.16,585.31,431,589,435Z" transform="translate(-375.77 -175.78)" fill="#503823"/>
  <path d="M477,518c0,.3,0,.6,0,.89-.86,2.19-3,2.43-4.83,3A41.24,41.24,0,0,1,442,519.65c-1.31-.6-2.46-1.76-4.11-1.42A40.73,40.73,0,0,1,424,475.86l.18,3.22A33.52,33.52,0,0,1,427.07,490c.51,7.48,3.94,13.63,8.48,19.27,7.5,9.31,17.83,10.6,28.82,10C468.61,519.06,472.6,516.59,477,518Z" transform="translate(-375.77 -175.78)" fill="#4b413d"/>
  <path d="M454,292c.84-3.06,2-.53,2.47,0q7.95,8.81,15.71,17.75c5.37,6.22,10.62,12.55,16,18.8.86,1,1.87,1.89,1.89,3.35v2Z" transform="translate(-375.77 -175.78)" fill="#543d32"/>
  <path d="M376.2,228.91c.68,0,1-1.94,1.69-.63A82.14,82.14,0,0,1,381,236a5.21,5.21,0,0,0,1.68,4c4.67,3.47,3.26,6.83.15,10.3A28.25,28.25,0,0,1,376.2,228.91Z" transform="translate(-375.77 -175.78)" fill="#6e5a49"/>
  <path d="M437.89,518.23c.9-1.59,1.78-.6,2.85-.11,12,5.58,24.05,6.67,36.27.77,1.87.82,2.85-3,5-.95C473,525.59,451.3,527.88,437.89,518.23Z" transform="translate(-375.77 -175.78)" fill="#41261b"/>
  <path d="M632,497.31c-.17,1.17-.68,1.38-1.58.58L626,494c-4.6-6-4-7.77,4-11-1,3.3-3.82,6.45-.85,10.08C628.9,495.29,630.88,496,632,497.31Z" transform="translate(-375.77 -175.78)" fill="#895d2e"/>
  <path d="M603.89,490.94V504A27,27,0,0,1,603.89,490.94Z" transform="translate(-375.77 -175.78)" fill="#906436"/>
  <path d="M401.11,218c-2.35-4-.68-8.3-1-12.45C401.57,209.64,401.16,213.85,401.11,218Z" transform="translate(-375.77 -175.78)" fill="#8a6741"/>
  <path d="M413.17,181.33c7.6,1.18,13.92,5.8,21.19,7.84,1.9.54,3.76,1.22,5.64,1.83,6.32,3.69,13.42,5.44,20.18,8,3.71,1.41,7.47,2.71,11.11,4.28,1.45.62,3.57,2.19,1.16,3.55-4.63,2.61-9.4,5.57-15.22,4,.07-.32.26-.9.19-.93-3.34-1.53-4.13-5.73-8-7-5.78-1.94-11.32-4.59-17-6.9a1.66,1.66,0,0,1-1.26-1.93c4.12-1.22,7.11,2.59,11.33,2.93-1.43-2.91-4-2.95-6-3.63-7.5-2.55-14.33-7-22.59-7.56C412.09,185.65,413.38,182.88,413.17,181.33Z" transform="translate(-375.77 -175.78)" fill="#6b492d"/>
  <path d="M468.2,263.14c-5.33-1.21-7.15-3.83-6.11-8.76.64-3,6.79-6,10.92-5.18a61.66,61.66,0,0,1,8.1,2.39c5,1.79,5.95,6.86,2.22,10.6-1.33,1.33-2.41,1.94-4.24.55-3.66-2.78-7.38-2-10.94.43Z" transform="translate(-375.77 -175.78)" fill="#6b4c33"/>
  <path d="M468.15,263.17c3.31-.47,6.67-1.31,9.65,1.08-3.3.44-6.92,3.59-9.6-1.11Z" transform="translate(-375.77 -175.78)" fill="#f1eeea"/>
  <path d="M648,457c-4.85,3.85-6.9,9.63-10.1,14.62-2.24,3.51-3.28,7.83-6.92,10.41,1.21-3.46,1.33-6.18-3.65-4.58a2.77,2.77,0,0,1-3.69-1.52c-1-1.92,1-2.15,2-2.69,3.38-1.8,1.33-3.86.3-5.73-2.87-5.21-2.69-6.26,2.79-8.31a8,8,0,0,0,3.75-2.86c1.94-2.43,4.14-4.58,7.25-1.2,1,1.12,2.13,1,3.37-.26C646.25,451.71,647.5,453.63,648,457Z" transform="translate(-375.77 -175.78)" fill="#895d2e"/>
  <path d="M617.3,456c-2,0-3.25-.25-3.2-2.08a2.58,2.58,0,0,1,2.79-2.79c1.9,0,2.69,1.32,2.71,2.87C619.63,455.69,618.08,455.82,617.3,456Z" transform="translate(-375.77 -175.78)" fill="#895d2e"/>
  <path d="M620.67,461c-.16.9-.63,1.57-1.53,1.54-1.23,0-1.49-1.15-1.53-2.05,0-.39.75-1.13,1.22-1.18A1.63,1.63,0,0,1,620.67,461Z" transform="translate(-375.77 -175.78)" fill="#906436"/>
  <path d="M531.06,344c-4.35-1.54-7.17-5.53-11.56-7.11-2.48-.89-4.81-2-7.52-1.94-5.65-2.42-5-2.26-3-8.32q4.62-13.82,10-27.3a185.09,185.09,0,0,1,7.83-17c4-7.66,3.38-16.4,6.16-24.32,1.26-3.62,2-7.33,3.88-10.85,2.4-4.41,4.26-6.91,10.21-5.62,4.48,1,8.55,1.87,12.62,4.22,3.51,2,3.6,4.23,2.7,7.31a6.63,6.63,0,0,1-.86,1.8c-9.09,13-11.64,28.65-17.63,42.9a12.49,12.49,0,0,0-.73,7.29c1.54.67,2-1.67,3.73-1.15-1.84,7.23-5.67,13.76-6.93,21.1-1.86,5.86-3.35,11.87-7,17a2.06,2.06,0,0,0-1,2C531.68,344.47,531.37,344.47,531.06,344Z" transform="translate(-375.77 -175.78)" fill="#94501f"/>
  <path d="M560,345c-2.28-.56-4.48,1.42-6.8.2-.93-.49-2.65.23-2.71-1.47,0-1.09,1.11-1.54,2-2,2.21-1,4.62-1.28,6.66-3,1.52-1.32,2.78.12,2.33,2.08A36,36,0,0,1,560,345Z" transform="translate(-375.77 -175.78)" fill="#895d2e"/>
  <path d="M533,342c1.43-6,5-11.21,7-17C538.71,331.1,538.72,337.73,533,342Z" transform="translate(-375.77 -175.78)" fill="#895d2e"/>
  <path d="M531.06,344c.31,0,.63,0,.94,0,.89,2.39,4.14,3.76,3,7C533.28,348.89,531.3,346.92,531.06,344Z" transform="translate(-375.77 -175.78)" fill="#895d2e"/>
  <path d="M520,392c-.1,5.33-4.12,9.61-4,15a5.29,5.29,0,0,0-1.17,1.49A15.34,15.34,0,0,1,516,407c2.49,1.62,2.82,3.75,1.83,6.46-1.13,3.09-1.64,8-3.22,9.05-5.26,3.67-2.68,9.71-5.45,13.56-8.81,12.22-9.79,27.59-16.8,40.49-.51.93-.25,2.28-.35,3.43,1.94,4.86-2.68,12.93-7.81,13.63-2.91.4-4.89-2-4.23-5.63.59-3.28,1.16-5.65-3.42-2.88-2.77,1.68-4.73.25-5.58-2.72-.22-.8-.23-1.64-.38-2.46-1.23-6.56-3.78-8.53-10.56-8.66-2.7-.06-5.21.94-7.86,1-1.74-2.38-.32-4.5,1.37-5.56,8.95-5.58,10.73-15.28,14-24,1.35-3.58,3.1-6.62,6.16-8.81a15.74,15.74,0,0,0,6.18-8.83c1.13-4.32,3.32-7.94,5.68-11.54a9.82,9.82,0,0,0,2.06-5c.25-7,3.28-12.8,7.72-18a25.91,25.91,0,0,0,4.05-7.36c2.89-7,5.44-14.18,9.29-20.63,2.79-4.68,4.16-9.56,5.7-14.61-2-.64-2.85.66-3.51,1.63-3.23,4.83-7.41,9.12-10.08,14.16-4.64,8.76-10.29,17.12-14,26.18-3.38,8.25-8.24,15.44-12.32,23.16-.74,1.41-1.17,3.28-3.44,2.93a3.3,3.3,0,0,1-.75-3.72c2.79-5.62,3.54-11.91,7.08-17.41,3.93-6.09,8.35-12.35,8.58-20.19a5.64,5.64,0,0,1,1.53-3.62c1.93-2.1,2.83-4.23,1.92-7.23-1-3.3,1.53-5.14,3.82-6.9,2.53-.5,3.24-1.71,1.49-3.87,0-1.68,1.12-2.83,2-4.1,2.53-.3,2.72-1.94,2.27-4,7.37-1.46,14.64-4.4,22.25-1,1.83.82,3.72,1.39,4,3.76-4.82,4.36-5.74,10.67-7.86,16.32-1.51,4-2.69,8.18-4.94,11.93a24.94,24.94,0,0,0-3.52,9.27c-1,6.52-5.93,11-8.52,16.76-.94,2.08-1.91,3.77-.25,5.94,1.23,1.6.74,3.47.05,5.24-3.13,8-5.91,16.2-10.25,23.7-3.4,5.87-2.25,13-5,19.06-.85,1.89,1.78,3.48,1.68,6.47,3.37-8.71,7.51-16.15,10.2-24.24a91.07,91.07,0,0,1,10.15-21c2.53-3.9,3.26-8.35,3.14-12.9-.06-2.4.58-4.22,2.7-5.44a10.69,10.69,0,0,0,3.59-4.07C517.26,393.45,517.75,391.56,520,392Z" transform="translate(-375.77 -175.78)" fill="#411c0c"/>
  <path d="M525,348c-4.39-4-9.08-6-15.19-3.57-3.34,1.35-7.46-.92-10.81,1.57a4.23,4.23,0,0,1-2,3c.41,1.87-.92,2.87-2,4a3.93,3.93,0,0,1-1,4c-2,2.79-5.76,5.12-2.56,9.34-4.23,4.57-3.06,11.23-6.28,16.19-.26.42-.78.74-.88,1.18-1.52,6.78-6.74,11.75-9,18.05-1.64,4.64-4,9.16-4.32,14.24,0,.22-.09.44-.13.66-.66,1.73-3,2.81-1.95,5.2a3,3,0,0,1-.78,3.73c-4,2.32-4.13,7.53-7.58,10.27-3.77,6.53-5.82,14-11.07,19.73-3.92,3.53-7.29,7.62-11.53,10.84-2,1.53-2.66,3.45-1.18,6.05,3,5.37,1.86,7.37-4.29,7.77-1.59.1-3.28.74-4.81-.34-.78-1.22-.08-2.48-.08-3.71.93-5.43,3.63-9.91,7.26-13.95,2.82-3.13,4.91-6.59,5.34-11a13.68,13.68,0,0,1,4.6-9.15,16.93,16.93,0,0,0,5-8.51c1.23-4.52,4-8.52,5.19-12.92,3.09-11.83,10.28-21.75,14.47-33.1,3.26-8.83,6.19-17.88,10.36-26.39,2.91-6,7.06-11.07,11.22-16.17,3.11-2.59,6.9-3.06,10.6-2.5a12,12,0,0,0,5.74-.44c8.82-2.84,16.92,0,22.09,7.72.92,1.36,1.72,2.8,2.57,4.21-.25,1.67,2.16,3.34,0,5C530.06,355.08,526.31,352.32,525,348Z" transform="translate(-375.77 -175.78)" fill="#412315"/>
  <path d="M452,472c9.23-4.62,20.26-2.49,20,9.36,0,1.39.21,2.72,1.64,3.33s2.45-.4,3.47-1.28c1.18-1,2.31-3.19,4-1.87s1.25,3.88.51,5.54c-1,2.24-1.64,4.16.79,5.47s3.42-1.22,4.87-2.38c3.25-2.61,5.63-5.63,4.68-10.17,1.89-4.36,7.06-7,6.56-12.69-.07-.85,1.4-1.23,2.44-1.3a3.49,3.49,0,0,1,.58,3.75c-2.12,5.6-2.85,11.56-4.59,17.25-2.5,1.39-.46,4.3-2,6a33.92,33.92,0,0,1-12.14,15.28c-.54.37-.14-.25-.35.32-2.51,6.73-8.68,6.64-14.21,7.56-5.83,1-11.64,2.64-17.65,1.38-1.76-.37-3.65-.5-4.79-2.22-.51-2.79,1.84-3.57,3.42-4.92,3.87-3.29,3.48-6-1.12-8.07-4.36-2-5.06-3.51-2.77-7.62,2-3.56,1.29-6.59-.71-9.77-2.62-4.17-2.94-8.37.37-12.41A8.06,8.06,0,0,1,452,472Z" transform="translate(-375.77 -175.78)" fill="#41261b"/>
  <path d="M525,348c3.1,3.18,6.78,6,7,11q-6,16.5-12,33c-3,2.82-3.85,7.34-8.26,9.38-1.8.83.11,4.73-.48,7.41a37.8,37.8,0,0,1-4.9,11.66,84.1,84.1,0,0,0-8.12,17.89c-2.41,7.61-6.75,14.32-9.18,21.88a6,6,0,0,1-3.88,4.27c.69-2.25,1.22-4.38-1.21-5.69a2,2,0,0,1-.84-1.64c1.94-5.67,1.88-12.17,4.12-17.27,4-9.17,8.18-18.32,12.07-27.57.53-1.26,1.32-3,.05-3.66-4.29-2.26-1.52-4.45-.31-6.82,3.38-6.69,7.45-12.84,9.74-20.32,2.41-7.89,6.66-15.41,9.44-23.37.71-2,1.25-4.1,1.91-6.14C520.91,349.66,522,347.64,525,348Z" transform="translate(-375.77 -175.78)" fill="#39190a"/>
  <path d="M520,429c.42,5-2.74,9-4.5,13.28-2.2,5.32-2.61,11.65-7.48,15.73-2.65-.4-2.54-2.09-1.71-3.93,3-6.66,5.25-13.62,8.69-20.08C516.69,432.35,517.7,430,520,429Z" transform="translate(-375.77 -175.78)" fill="#493122"/>
  <path d="M497,487c-1.28-7.5,2.91-13.95,4-21l2-3c.85-1.63,1.66-3.32,4-2C504,469.79,502.69,479.24,497,487Z" transform="translate(-375.77 -175.78)" fill="#493122"/>
  <path d="M507,461c-1.73-.13-2.61,1.44-4,2-1-1.85-1.71-3.8.07-5.5,2.89-2.75,2.71-6.61,4-9.93A50.19,50.19,0,0,1,515,434c-2.18,6.21-3.5,12.75-7,18.44-1.23,2-2.39,3.71,0,5.57Z" transform="translate(-375.77 -175.78)" fill="#41261b"/>
  <path d="M491,345c-3.17,6.92-8.38,12.6-11.53,19.59-2.18,4.85-2.78,10.1-5.27,14.86-5.55,10.59-9.46,21.93-14.85,32.68-3.27,6.5-6.55,13.82-8.26,21.32-.92,4-2.65,7.52-6,10-2.69,2-3.47,5.06-3.64,7.91a17.24,17.24,0,0,1-5.42,11.35c-3.75,3.83-5.53,8.76-8.06,13.27-.61-.06-.64-.71-1-1-.87-6,3.08-10.37,5.77-14.79,3.61-5.93,5.49-12.45,7.7-18.77,2.38-6.8,5.32-13.44,7.89-20.09,4.49-11.61,10.39-22.78,15.42-34.25,2.17-5,4.41-10,6.23-15.1,2.37-1.31,3.26-3.6,4-6-2.49-4,1.79-6.57,2-10,5.42,1,2.29-3.16,3-5l1-1c.91,1.31,1.62,3.25,3.65,2.47,1.61-.61,1.94-2,1.86-4C485.37,345,489,346,491,345Z" transform="translate(-375.77 -175.78)" fill="#452d23"/>
  <path d="M427,475l1,1v4c.28,7.43,4.26,13.74,6.38,20.62C436.31,506.86,441,511.11,446,515c8.15,3.48,16.16.84,24.19-.6,1.44-.26,2.76-1.09,4.34-.65,2.59.72,4.18-.27,4.63-3,.62-3.75,4.66-3.94,6.58-6.34,3.06-3.82,6.15-7.62,9.22-11.43-1.77,9.42-7.64,16.17-14.53,22.24-1.11,1-2.3,1.84-3.46,2.75-11.36,3.3-22.61,4.54-33.85-.77-5.63-2.67-8.62-7.4-12.08-12.24-5.68-8-5.37-17.1-6.93-25.91C426.56,478.75,427.12,477.11,427,475Z" transform="translate(-375.77 -175.78)" fill="#3d2f2a"/>
  <path d="M479,351c.13.46.12,1.1.43,1.35,1.49,1.26,3.38,2.4,1.46,4.63-2.1,2.44-3.27-.55-4.89-1Z" transform="translate(-375.77 -175.78)" fill="#4e2e1e"/>
  <path d="M474,366c.23,3-.8,5.24-4,6Z" transform="translate(-375.77 -175.78)" fill="#4e2e1e"/>
  <path d="M636,468c-1.23,0-2.48-.44-2.53-1.75-.07-2,1.59-2.16,3.1-2.17,1.2,0,2.44.18,2.24,1.81S637.39,467.9,636,468Z" transform="translate(-375.77 -175.78)" fill="#906436"/>
  <path d="M452,472c-1.76,1.8-4.13-.09-6,1-.11-.12-.33-.3-.3-.36,2.52-5.61,1-12,3.3-17.63,4.78-6.06,6.46-13.82,11-20,4.69-1.72,4.4-7.41,8-10a2.63,2.63,0,0,0,0-3c-.69-2.85,2.07-4,3-6h0c2.64-4.12,6-8,7.68-12.45,1.3-3.57,4.73-5.45,5.47-9.29,1.33-6.93,5.39-12.62,9.26-18.35a21.32,21.32,0,0,0,2.43-4.9c3.18-9.11,10-15.86,15.3-23.55.9-1.3,2.17-3.33,4.42-1.37s-.32,3.08-.43,4.53c-.67,8.58-7.14,14.58-9.82,22.39-2,5.82-3.9,12.73-8.57,17.83S488.86,401.77,489,409a4.45,4.45,0,0,1-.61,2.83c-5.37,5.47-6.51,13.13-10.11,19.53-1.59,2.83-4.5,3.11-6.23,5.39-3.42,4.48-4.09,10-6.31,14.91-2.63,5.85-4.4,12.13-10.92,15.26C453,467.78,452.25,469.92,452,472Z" transform="translate(-375.77 -175.78)" fill="#39190a"/>
  <path d="M494,357c.14-1.38-.46-2.95,1-4,2,.27,3,1.69,2.56,3.39C497,358.5,495.36,357.66,494,357Z" transform="translate(-375.77 -175.78)" fill="#39190a"/>
  <path d="M497,349a3,3,0,0,1,2-3c1.24.24,3,.27,2.11,2.19S498.64,350.07,497,349Z" transform="translate(-375.77 -175.78)" fill="#39190a"/>
  <path d="M516,407c0,.16,0,.33,0,.49-.12,1.42.43,3.14-1.41,3.83-.28.1-1.22-.67-1.33-1.15-.46-2.14.82-3,2.74-3.17Z" transform="translate(-375.77 -175.78)" fill="#462414"/>
  <path d="M449,455c0,3.32-1.43,6.78,1.17,9.84.65.78,0,1.58-.82,2-2.68,1.25-2.65,3.92-3.35,6.2-2.9,3.9-2.91,7.64,0,11.68,2.55,3.53,3.48,7.3,0,11.13-1.75,1.93-1.53,4.14,1.27,5,2.64.81,6,.74,6.21,4.39s-1.74,6-5.19,7.28c-.94.35-1.53,1.64-2.28,2.5-6,.92-7.32-4.95-9.6-8-4.74-6.25-6.1-14.44-9.17-21.7-.8-1.89.65-3.53.76-5.32,1.78-1.12,3.78-1.07,5.76-1,1.59.06,2.88-.23,3.64-1.88s-.22-2.54-1.2-3.39c-3.23-2.78-2.76-5.51.37-7.75C441.12,462.75,444.21,457.92,449,455Z" transform="translate(-375.77 -175.78)" fill="#2f1b14"/>
  <path d="M468,425c-2.09,3.79-2.08,9.26-8,10a25,25,0,0,0,3.95-6.78A4.44,4.44,0,0,1,468,425Z" transform="translate(-375.77 -175.78)" fill="#411c0c"/>
  <path d="M471,416c-.2,2.4-2.39,3.8-3,6C465.73,418.36,469.33,417.66,471,416Z" transform="translate(-375.77 -175.78)" fill="#411c0c"/>
  <path d="M465,492c.23,2.59-2.26,3.74-3.53,5s-4.4.84-5.37-1.94c-.86-2.45,1.85-6.42-3.22-7.18-.33-.05,1.42-1.83,1.94-3,.41-.92,4.27-1.88-.22-2.75-1.09-.21-1.61-2.61,0-4.18,3.24-3.21,10.2-2.12,12.45,2C461.22,482.38,460.51,486.57,465,492Z" transform="translate(-375.77 -175.78)" fill="#4b342a"/>
  <path d="M465,492c-3.16-.16-5-3.94-4.05-8.23.74-3.38,2.23-5.44,6.07-3.75C468.64,484.38,467.15,488.23,465,492Z" transform="translate(-375.77 -175.78)" fill="#654d45"/>
</svg>
