<svg xmlns="http://www.w3.org/2000/svg" viewBox="0 0 472.34 232.89">
  <title>motor</title>
  <g id="Layer_2" data-name="Layer 2">
    <g id="Layer_1-2" data-name="Layer 1">
      <g>
        <path d="M182.5,210.22C89.07,195.44,2,164.33,2,107.72S84.53-13.22,182.5,5.22C217.92,11.88,275.39,34.9,301,47.84c68,34.38,165.36,86.53,168,113,.73,7.3-.24,19.67-3,26.26-3,7.26-7.63,20.39-14,26.74C415.39,250.18,234.07,218.38,182.5,210.22Z" fill="#dfc5a4" stroke="#b0906e" stroke-miterlimit="10" stroke-width="4"/>
        <circle cx="83.45" cy="116.45" r="26.75" fill="#470044" stroke="#2a1000" stroke-miterlimit="10" opacity="0.88"/>
        <line x1="56.7" y1="116.45" x2="110.2" y2="116.45" fill="none" stroke="#fff" stroke-miterlimit="10" stroke-width="2"/>
        <g opacity="0.6">
          <g>
            <path d="M88.93,32.31,95.86,29A83.92,83.92,0,0,1,107,25.42,134.87,134.87,0,0,1,126.43,22l-2,.13,10-.59-2,0q10.77-.2,21.53.23l-2-.17,13.42,1.19-2-.29q9.57,1.07,19,2.9,8.46,1.45,16.82,3.43c14.3,3.2,28.48,6.86,42.65,10.57,1.13.09,1.6-.43,1.44-1.54a11.65,11.65,0,0,0-3.72-4.94q-4.12-4.17-8.58-8a11.54,11.54,0,0,0-5.2-3.34c-32.08-6.79-64.54-13.73-97.54-11.4a164.41,164.41,0,0,0-31,4.77A199,199,0,0,0,67.61,25.5a1.2,1.2,0,0,0-.45,2.05,10.25,10.25,0,0,0,5.31,2.28c3.53.94,7.09,1.71,10.68,2.34A10.26,10.26,0,0,0,88.93,32.31Z" fill="#b0906e" opacity="0.11"/>
            <path d="M92,24.15a55.7,55.7,0,0,1,14-5.89,105,105,0,0,1,15.37-3.52c9.87-1.51,19.76-1.45,29.71-1.18a232.64,232.64,0,0,1,39.77,5c18.11,3.67,36,8.45,53.81,13.18a1.37,1.37,0,0,0,1.62-1.34,6.69,6.69,0,0,0-2-4.15,76.37,76.37,0,0,0-5.5-6.67,6.74,6.74,0,0,0-3.7-2.76C202.8,9,170,.56,136.51,1.52c-10.83.32-21.56,1.06-32.18,3.39A155.26,155.26,0,0,0,87.94,9.56a65.91,65.91,0,0,0-13.7,5.25c-3.57,1.61,3,4.59,3.54,4.85q4.47,2,9.1,3.62A8.38,8.38,0,0,0,92,24.15Z" fill="#b0906e" opacity="0.11"/>
            <path d="M93.92,30.77a52.88,52.88,0,0,1,14.06-6,107,107,0,0,1,15.33-3.5C133.14,19.78,143,19.77,152.9,20a232.75,232.75,0,0,1,39.71,4.74c18.12,3.57,36,8.26,53.85,12.93,1.19.27,1.71-.2,1.55-1.42a15,15,0,0,0-3.87-5.88q-4.33-5.12-9-9.92A14.87,14.87,0,0,0,229.63,16c-18.92-4-37.84-8.14-57.09-10.13a221.52,221.52,0,0,0-43.08-.75A175.08,175.08,0,0,0,97.4,10.73q-8.13,2.4-16.08,5.32a63.26,63.26,0,0,0-13.68,5.34c-4.39,2,6.28,5.05,6,4.95q6.53,2,13.17,3.61A15.47,15.47,0,0,0,93.92,30.77Z" fill="#b0906e" opacity="0.11"/>
            <path d="M101.7,37.71l7-3.37-1.52.56c7.41-2.59,14.71-4.95,22.52-6a140.27,140.27,0,0,1,19.64-1.33,215.27,215.27,0,0,1,26.62,1.34c11.85,1.49,23.48,3.89,35.14,6.44l-1.61-.38c14.76,3.49,29.38,7.24,44,11.16A1.35,1.35,0,0,0,255,44.65a7,7,0,0,0-2.33-4.1,83.24,83.24,0,0,0-6-6.44,7,7,0,0,0-3.93-2.6c-14.64-3.32-29.32-6.79-44.14-9.28a306.62,306.62,0,0,0-33.92-3.83,198.19,198.19,0,0,0-28.93.68,128.46,128.46,0,0,0-21.35,3.58c-4.77,1.26-9.37,2.72-14,4.36l-7.22,2.57a59.23,59.23,0,0,0-8,3.5,1.4,1.4,0,0,0-.31,2.08A6.42,6.42,0,0,0,89,36.9a74.85,74.85,0,0,0,8.28,1.25A6.43,6.43,0,0,0,101.7,37.71Z" fill="#b0906e" opacity="0.11"/>
            <path d="M101.1,31.42a59.67,59.67,0,0,1,14.17-5.91,102.44,102.44,0,0,1,15.28-3.39c9.8-1.45,19.6-1.36,29.47-1.07a232.12,232.12,0,0,1,39.55,5c18.06,3.67,35.88,8.42,53.69,13.14,1,.19,1.58-.24,1.67-1.29A9.25,9.25,0,0,0,252.51,33c-2-2.82-4.08-5.55-6.3-8.18a9.23,9.23,0,0,0-4.15-3.58C209.24,13.64,175.83,5.54,141.88,7.76a174.1,174.1,0,0,0-32.28,4.72q-8.2,2.17-16.18,5.05A65.77,65.77,0,0,0,79.84,22.7c-4,1.78,4.59,4.75,4.63,4.77q5.3,1.88,10.74,3.29A10.65,10.65,0,0,0,101.1,31.42Z" fill="#b0906e" opacity="0.11"/>
            <path d="M91,24.78q6.94-3.3,14.08-6.21a98.76,98.76,0,0,1,15.25-3.06c9.71-1.2,19.4-.83,29.14-.3a240.46,240.46,0,0,1,39,5.73c17.87,4,35.52,8.79,53.16,13.63,1,.28,2.67-1.39,2.71-2.33.06-1.2-1.54-2.75-2.61-3-17.88-4.85-35.78-9.68-53.89-13.61A247.27,247.27,0,0,0,148,9.94c-10-.51-20-.81-29.95.45a108.46,108.46,0,0,0-15.67,3.16Q95.26,17,87.87,19.71A2.72,2.72,0,0,0,86.56,23C87.08,24,89.93,25.26,91,24.78Z" fill="#b0906e" opacity="0.11"/>
            <path d="M87.5,31.11l6.31-3.36-1.23.51a125.9,125.9,0,0,1,14.83-4.6,108.2,108.2,0,0,1,15.51-2.38,202.53,202.53,0,0,1,27.21-.07,249,249,0,0,1,33.63,4.72c18,3.6,35.7,8.29,53.42,12.94,2.09.55,3.38-.6,2.34-2.7a28.85,28.85,0,0,0-4.32-4.38,29,29,0,0,0-4.95-3.65c-33-7.88-66.4-16.12-100.62-15A136.44,136.44,0,0,0,97.34,17.6a171.23,171.23,0,0,0-22.66,8.34,1.64,1.64,0,0,0-.48,2,4.38,4.38,0,0,0,3.14,1.86,46.77,46.77,0,0,0,6.52,1.53A4.43,4.43,0,0,0,87.5,31.11Z" fill="#b0906e" opacity="0.11"/>
            <path d="M92.74,40.73a71.45,71.45,0,0,1,14.11-5.89A95.74,95.74,0,0,1,122,31.32c9.68-1.48,19.38-1.43,29.13-1.15A236.32,236.32,0,0,1,190.3,35c18,3.58,35.69,8.24,53.4,12.88a2.1,2.1,0,0,0,2.59-.26,2.12,2.12,0,0,0-.39-2.57,38.46,38.46,0,0,0-5.32-4.72,38.22,38.22,0,0,0-5.89-4c-31-7-62.42-14.35-94.43-13.44a154.51,154.51,0,0,0-29.48,3.22c-10.09,2.25-19.67,6-29.1,10.16a1.81,1.81,0,0,0-.28,3.56,25,25,0,0,0,5.63.91A25.35,25.35,0,0,0,92.74,40.73Z" fill="#b0906e" opacity="0.11"/>
            <path d="M100.26,23.66a52.12,52.12,0,0,1,13.93-5.94,100,100,0,0,1,15.37-3.41c9.88-1.4,19.77-1.23,29.71-.88A231.22,231.22,0,0,1,199,18.74c18.08,3.82,35.91,8.7,53.73,13.53a1.77,1.77,0,0,0,1.75-1.16,3.8,3.8,0,0,0-.83-3.24,40.4,40.4,0,0,0-3.35-5.07,3.82,3.82,0,0,0-2.66-2c-18.54-4.88-37.09-9.9-55.93-13.52a228.8,228.8,0,0,0-42.78-4.63c-11,0-21.84.28-32.66,2.3A133.69,133.69,0,0,0,99.65,9.23a56.3,56.3,0,0,0-13.46,5.15c-3.12,1.44,1.46,4.18,2.41,4.75A71.77,71.77,0,0,0,96,22.76,6.21,6.21,0,0,0,100.26,23.66Z" fill="#b0906e" opacity="0.11"/>
            <path d="M89.78,37.33A39.25,39.25,0,0,1,102,32a94.47,94.47,0,0,1,15.11-3.55C126.8,27,136.5,27,146.25,27.3a236.15,236.15,0,0,1,39.2,4.8c18,3.57,35.71,8.24,53.43,12.88,2.3.6,3.45-.76,2.16-2.86a35.07,35.07,0,0,0-5.12-4.46A35,35,0,0,0,230.23,34C199.38,26.86,168.15,19.38,136.29,20A156.54,156.54,0,0,0,106.76,23,107.75,107.75,0,0,0,91.5,27.39,65.63,65.63,0,0,0,78.25,33c-.72.35-1.54.68-1.65,1.6-.18,1.39,1.23,2,2.3,2.26a30.41,30.41,0,0,0,5.85,1C86.55,38,88.16,38.23,89.78,37.33Z" fill="#b0906e" opacity="0.11"/>
            <path d="M98.86,21.2a50,50,0,0,1,13.87-5.94l-1,.34a89,89,0,0,1,15.49-3.3l8-.74a141.76,141.76,0,0,1,16.1,0,132.5,132.5,0,0,1,17.24,1.24A287,287,0,0,1,202.3,19c16.17,3.89,32.22,8.12,48.24,12.53a2.62,2.62,0,0,0,3.05-1.88c.15-1.18-1.51-4-2.69-4.35C232.54,20.25,214.16,15.18,195.57,11q-11.62-2.67-23.44-4.39a186.17,186.17,0,0,0-24-2c-11.38-.41-22.77-.15-34,2.28A75.66,75.66,0,0,0,105,9.38a69.57,69.57,0,0,0-13.66,5.39,2.21,2.21,0,0,0-1,1.86A2.66,2.66,0,0,0,92,18.75,23.71,23.71,0,0,0,96.17,21,2.69,2.69,0,0,0,98.86,21.2Z" fill="#b0906e" opacity="0.11"/>
            <path d="M88.23,28.53q7-3.24,14.17-6.13a96.54,96.54,0,0,1,15.24-3c11.6-1.4,23.16-.59,34.77.06l-.9-.11,12.09,1.41-.89-.14,12,2-.9-.18c21.93,4.53,43.54,10.19,65.12,16.11,1,.29,2.56-1.64,2.5-2.56-.07-1.29-1.89-2.65-3-3-17.84-4.8-35.71-9.58-53.79-13.44a259.83,259.83,0,0,0-34-5.24c-11.73-.92-23.79-1.26-35.5.24a104.56,104.56,0,0,0-15.57,3.17Q92.42,21.09,85,23.82c-1,.42-1.6,2.5-1,3.43A4.66,4.66,0,0,0,88.23,28.53Z" fill="#b0906e" opacity="0.11"/>
          </g>
        </g>
        <g opacity="0.7">
          <g>
            <path d="M56.85,44.93a24.87,24.87,0,0,1,7.46-5.08l-1.34.6,5.43-2.32L67,38.68c4-1.51,8.08-2.94,12-4.75A22.74,22.74,0,0,0,83.2,31.7a25.37,25.37,0,0,0,6-4.42c2.45-2-3.83-2.69-4.06-2.72q-4-.48-8.15-.62a7.64,7.64,0,0,0-4.29.5,48.5,48.5,0,0,1-8,5.37q-4.23,2.43-8.57,4.62t-8.32,4.48a35.68,35.68,0,0,0-7.29,5.4.92.92,0,0,0,.1,1.58,7.28,7.28,0,0,0,4.18.57q4-.06,8-.46A7.29,7.29,0,0,0,56.85,44.93Z" fill="#b0906e" opacity="0.11"/>
            <path d="M58.94,38.69a25.38,25.38,0,0,1,7.4-5.07q4.06-1.83,8.29-3.25a80.23,80.23,0,0,0,8.55-3.62,36.51,36.51,0,0,0,8.12-5.66c2.22-1.78-2.49-3-3.26-3.22q-3.62-1-7.31-1.7a6.63,6.63,0,0,0-4-.09,42.65,42.65,0,0,1-8,5.4q-4.47,2.37-9.08,4.46t-8.94,4.29a33.86,33.86,0,0,0-7.54,5.28c-2.38,1.93,3.48,2.74,3.81,2.8,2.59.38,5.18.64,7.79.78A7.08,7.08,0,0,0,58.94,38.69Z" fill="#b0906e" opacity="0.11"/>
            <path d="M60.55,43.76a24.09,24.09,0,0,1,7.34-5.1c2.72-1.21,5.49-2.3,8.31-3.25a75,75,0,0,0,8.5-3.65A34.12,34.12,0,0,0,92.78,26c2.67-2.19-4.76-3-5-3-3.38-.52-6.77-.91-10.18-1.19a11.5,11.5,0,0,0-5.38.19,48.64,48.64,0,0,1-8,5.49q-4.3,2.63-8.74,5Q51.1,34.76,47,37.35a36.25,36.25,0,0,0-7.29,5.52c-2.77,2.38,5.71,2.23,5.39,2.22,3.4,0,6.81-.1,10.21-.33A11.47,11.47,0,0,0,60.55,43.76Z" fill="#b0906e" opacity="0.11"/>
            <path d="M65.93,49.09l4.35-3.65-.87.73a40.07,40.07,0,0,1,7.82-3.8c2.8-1,5.59-2,8.35-3.14q2.69-1.12,5.24-2.5A32.12,32.12,0,0,0,98.9,31a1.07,1.07,0,0,0,0-1.58,4.71,4.71,0,0,0-3.24-.75,53.59,53.59,0,0,0-6.21.13,4.7,4.7,0,0,0-3.21.88,71.62,71.62,0,0,1-8,5.41c-3.06,1.73-6.23,3.23-9.38,4.77A80,80,0,0,0,61,44.23a45.28,45.28,0,0,0-6,4.79,1.13,1.13,0,0,0,.3,1.55,2.81,2.81,0,0,0,2.08.3,19.55,19.55,0,0,0,3.87-.51A24.31,24.31,0,0,0,65.93,49.09Z" fill="#b0906e" opacity="0.11"/>
            <path d="M66,43.91a23.61,23.61,0,0,1,7.41-5L72,39.45l5.51-2.25-1.45.52c4-1.44,8.11-2.81,12-4.61a21.59,21.59,0,0,0,4.2-2.21,25,25,0,0,0,6-4.48c2.45-2-3.73-2.83-4.1-2.9-2.8-.46-5.62-.79-8.45-1a8.25,8.25,0,0,0-4.49.28,44.05,44.05,0,0,1-8,5.47q-4.3,2.55-8.75,4.83Q60.16,35.21,56,37.71a33,33,0,0,0-7.28,5.36c-2.55,2.17,4.7,2.21,4.5,2.21q4.23,0,8.45-.37A8.18,8.18,0,0,0,66,43.91Z" fill="#b0906e" opacity="0.11"/>
            <path d="M59.67,38.15A22.27,22.27,0,0,1,65.83,33q4.11-1.7,8.37-3a80.9,80.9,0,0,0,8.46-3.36,38.4,38.4,0,0,0,8.1-5.83c.66-.54,1.34-1.68.8-2.56-.36-.59-2.62-1.53-3.24-1a37.64,37.64,0,0,1-8.1,5.85,90.64,90.64,0,0,1-8.7,3.48c-3,1-6,2-8.87,3.27a20,20,0,0,0-5.74,5.22c-.56.62-1,1.93-.36,2.66C57,38.29,59.11,38.71,59.67,38.15Z" fill="#b0906e" opacity="0.11"/>
            <path d="M56.21,43.33l3.17-2.84-.81.58a28.54,28.54,0,0,1,7.54-3.79c2.84-1,5.65-2,8.44-3.15a51.3,51.3,0,0,0,5.1-2.36,34.29,34.29,0,0,0,8.1-5.61,1.27,1.27,0,0,0,.14-1.57,3.18,3.18,0,0,0-2.43-1,32.58,32.58,0,0,0-4.83-.42,3.11,3.11,0,0,0-2.57.59,44.1,44.1,0,0,1-8,5.33l.87-.45C66,31,60.86,33,55.92,35.37a42.81,42.81,0,0,0-9.68,6.57,1.29,1.29,0,0,0,0,1.58,3.17,3.17,0,0,0,2.55.77,33.14,33.14,0,0,0,4.88-.09A3.1,3.1,0,0,0,56.21,43.33Z" fill="#b0906e" opacity="0.11"/>
            <path d="M61,50.65a31.79,31.79,0,0,1,6.77-4.87c3.25-1.63,6.8-2.69,10.18-4a56.94,56.94,0,0,0,8.36-3.94,48,48,0,0,0,6.8-5A1.32,1.32,0,0,0,93,31.26a2.08,2.08,0,0,0-1.67-.57,13.09,13.09,0,0,0-3.19,0,16.77,16.77,0,0,0-4,.63,42.7,42.7,0,0,1-8,5.39q-4,2.13-8.22,4t-7.92,3.84a26.06,26.06,0,0,0-6.55,5,1.44,1.44,0,0,0,.54,2.63,13.17,13.17,0,0,0,3.59-.38A13.2,13.2,0,0,0,61,50.65Z" fill="#b0906e" opacity="0.11"/>
            <path d="M65.07,37.94a24.46,24.46,0,0,1,7.41-5q4.08-1.77,8.29-3.17a75.19,75.19,0,0,0,8.56-3.54,35.46,35.46,0,0,0,8.12-5.67c2-1.61-1.59-2.86-2.54-3.22a57.34,57.34,0,0,0-6.15-1.74,4.92,4.92,0,0,0-3.42-.12,39.37,39.37,0,0,1-8,5.4q-4.53,2.33-9.21,4.3t-9.11,4.12a30.55,30.55,0,0,0-7.52,5.11c-2.2,1.75,2.62,2.76,3.16,2.88a66.3,66.3,0,0,0,6.74,1A5.54,5.54,0,0,0,65.07,37.94Z" fill="#b0906e" opacity="0.11"/>
            <path d="M57.25,48.52A31.89,31.89,0,0,1,64,43.65a109.46,109.46,0,0,1,10.23-4,55.93,55.93,0,0,0,8.36-3.94,46.76,46.76,0,0,0,6.81-4.94,1.34,1.34,0,0,0,0-1.57A2.83,2.83,0,0,0,87,28.41c-2.14-.2-5.13-.4-6.93.93l-3.9,2.9L77,31.7A138,138,0,0,1,62.41,39a66.79,66.79,0,0,0-6,2.9,27.46,27.46,0,0,0-6.75,5c-1,.88-1.08,2.15.36,2.66a13.76,13.76,0,0,0,3.68-.14A13.82,13.82,0,0,0,57.25,48.52Z" fill="#b0906e" opacity="0.11"/>
            <path d="M63.61,35.58a26.16,26.16,0,0,1,10.85-6.2c2.89-1,5.75-2,8.6-3.07q2.58-1,5.1-2.18a35.22,35.22,0,0,0,8.07-5.66c2.73-2.21-5.12-5.17-6.76-3.87a37.26,37.26,0,0,1-7.92,5.47q-6.45,2.76-13.09,5.05a38.41,38.41,0,0,0-5.37,2.27A29.82,29.82,0,0,0,55.2,32.2a1.37,1.37,0,0,0-.32,1.54A2.67,2.67,0,0,0,56.94,35a26.05,26.05,0,0,0,4.28.9A2.65,2.65,0,0,0,63.61,35.58Z" fill="#b0906e" opacity="0.11"/>
            <path d="M57.77,40.82a22.47,22.47,0,0,1,6.42-5q4-1.66,8.1-2.94a78.1,78.1,0,0,0,8.41-3.38,38.21,38.21,0,0,0,8.07-5.83A2.27,2.27,0,0,0,89.36,21c-.4-.59-2.4-1.18-3-.68a38.14,38.14,0,0,1-8.07,5.85q-4.22,2-8.61,3.52c-2.84.91-5.64,1.95-8.38,3.13A22.19,22.19,0,0,0,55,38a2.34,2.34,0,0,0-.16,2.68A2.82,2.82,0,0,0,57.77,40.82Z" fill="#b0906e" opacity="0.11"/>
          </g>
        </g>
        <g opacity="0.7">
          <g>
            <path d="M265.49,57.88a189.11,189.11,0,0,1,22.15,4.17,196.92,196.92,0,0,1,41.57,15.16A192,192,0,0,1,348,87.94c.81.3,1.26,0,1.34-.84a9.39,9.39,0,0,0-1.8-4.44q-2.26-4-4.82-7.72a9.22,9.22,0,0,0-3.2-3.58,216.48,216.48,0,0,0-20.05-9.86Q309.11,57,298.32,53.61c-14.28-4.53-29-7.49-43.69-10.18-3.37-.61,1.44,5.22,1.28,5q2.82,3.4,5.91,6.57A8.77,8.77,0,0,0,265.49,57.88Z" fill="#b0906e" opacity="0.11"/>
            <path d="M267.71,52.11a220.49,220.49,0,0,1,22.11,4.24,192,192,0,0,1,21.37,6.49,195.26,195.26,0,0,1,20.16,8.73,192,192,0,0,1,18.78,10.78,1.05,1.05,0,0,0,1.42-.68,4.83,4.83,0,0,0-.67-3.3,56.8,56.8,0,0,0-2.73-5.67A4.82,4.82,0,0,0,346,70.12a205.36,205.36,0,0,0-19.74-10.56,214.16,214.16,0,0,0-21-8.49c-14.25-4.91-29-7.9-43.73-10.77-2.72-.54-.3,3.73-.08,4.13a59.68,59.68,0,0,0,3.67,5.36A5.1,5.1,0,0,0,267.71,52.11Z" fill="#b0906e" opacity="0.11"/>
            <path d="M269.12,56.64a176,176,0,0,1,22.09,4.11,198.14,198.14,0,0,1,41.55,15.12,192.75,192.75,0,0,1,18.82,10.7c.81.43,1.28.2,1.41-.71a11,11,0,0,0-1.58-5Q349.34,76.35,347,72a10.85,10.85,0,0,0-3.05-4.25,217.73,217.73,0,0,0-20.43-10.11q-10.56-4.56-21.51-8c-14.31-4.56-29.06-7.64-43.8-10.37-3.46-.64,1.18,5.61,1.19,5.63q2.85,4.15,6,8.09A11.26,11.26,0,0,0,269.12,56.64Z" fill="#b0906e" opacity="0.11"/>
            <path d="M274.15,63a196.24,196.24,0,0,1,22.19,4.18,194.45,194.45,0,0,1,41.34,15.28,190.3,190.3,0,0,1,18.66,10.8,1,1,0,0,0,1.44-.66,5.06,5.06,0,0,0-.65-3.4,57.89,57.89,0,0,0-2.67-5.9,5.08,5.08,0,0,0-2.14-2.73A208.46,208.46,0,0,0,332.3,70a214.25,214.25,0,0,0-21.18-8.38c-14.23-4.78-28.89-7.83-43.63-10.52-2.77-.51-.12,3.85.08,4.19a58.64,58.64,0,0,0,3.9,5.36A5.25,5.25,0,0,0,274.15,63Z" fill="#b0906e" opacity="0.11"/>
            <path d="M274.14,57.75a199.33,199.33,0,0,1,63.58,19.4,189.39,189.39,0,0,1,18.75,10.77,1,1,0,0,0,1.48-.57,6.23,6.23,0,0,0-.59-3.83c-.75-2.32-1.62-4.59-2.6-6.83a6.23,6.23,0,0,0-2.11-3.25,207.15,207.15,0,0,0-20.19-10.71,217.7,217.7,0,0,0-21.37-8.54c-14.21-4.82-28.87-8-43.6-10.71-2.9-.55-.29,4.12,0,4.65q1.81,3.4,3.93,6.61A6.84,6.84,0,0,0,274.14,57.75Z" fill="#b0906e" opacity="0.11"/>
            <path d="M265.85,55.53a85.65,85.65,0,0,1,21.53,3.14,180.93,180.93,0,0,1,21.11,6.57,189,189,0,0,1,19.9,8.86A185.89,185.89,0,0,1,346.84,85c.68.42,2.19-.65,2.35-1.3.23-.94-.76-2.24-1.49-2.7a192.41,192.41,0,0,0-38.81-19.83,183.12,183.12,0,0,0-21.25-6.57,77.19,77.19,0,0,0-21.47-3,2.37,2.37,0,0,0-2.1,1.67A2.7,2.7,0,0,0,265.85,55.53Z" fill="#b0906e" opacity="0.11"/>
            <path d="M263.05,57.68a215.59,215.59,0,0,1,22.12,4.21l-1.06-.26c10.74,2.9,21.3,6,31.5,10.45l9.89,4.57a191.45,191.45,0,0,1,18.7,10.63c1.49.9,2.63.24,2.2-1.54a25.28,25.28,0,0,0-2.56-4.27,25.33,25.33,0,0,0-3.15-3.85l-9.48-5.33a156.67,156.67,0,0,0-14.89-7,194.77,194.77,0,0,0-26.19-9.35c-11.19-3-22.53-5.23-33.9-7.48a1.16,1.16,0,0,0-1.13,1.1,3.94,3.94,0,0,0,1.44,2.65,45.9,45.9,0,0,0,3.9,4A4,4,0,0,0,263.05,57.68Z" fill="#b0906e" opacity="0.11"/>
            <path d="M268,64.53a194.23,194.23,0,0,1,22.16,4.14L289,68.35l12,3.28-1.18-.35,11.67,3.89-1.17-.39a195.43,195.43,0,0,1,20.08,8.63,191.78,191.78,0,0,1,18.71,10.65c.51.32,1.33.92,2,.47,1-.72.05-2.33-.35-3.06a46,46,0,0,0-3.44-5.21,11.91,11.91,0,0,0-3.69-3.75c-6.09-3.32-12.14-6.64-18.49-9.45-5.32-2.35-10.63-4.45-16.09-6.4C293,61,276.46,57.46,259.7,54.5a1,1,0,0,0-1.08,1.15,4.81,4.81,0,0,0,1.83,2.85,54.25,54.25,0,0,0,4.61,4.36A4.86,4.86,0,0,0,268,64.53Z" fill="#b0906e" opacity="0.11"/>
            <path d="M273.51,52.2c11.08,2.24,22.35,4.22,33.13,7.67l10.52,3.6a193.57,193.57,0,0,1,20.11,8.87l-.79-.43,18.75,10.93c.5.31.94.63,1.56.41.9-.31,1-1.19.87-2-.29-2-1-5.08-2.87-6.2-3.17-2-6.32-4-9.55-5.85a206.05,206.05,0,0,0-47.09-19.49A114,114,0,0,0,287.07,47q-8.35-1.71-16.56-4.06a1.31,1.31,0,0,0-1.4.72,3,3,0,0,0,.39,2.56,32.51,32.51,0,0,0,2.16,4.19A3,3,0,0,0,273.51,52.2Z" fill="#b0906e" opacity="0.11"/>
            <path d="M264.55,62.43a169,169,0,0,1,22,4l-1.16-.26c10.73,2.9,21.3,6,31.5,10.45l9.88,4.56a190.35,190.35,0,0,1,18.71,10.62c1.65,1,2.76.29,2.13-1.63a31.88,31.88,0,0,0-3.14-4.68,33.16,33.16,0,0,0-3.7-4.24,265,265,0,0,0-24.48-12.12A191.6,191.6,0,0,0,290.05,60c-11.15-2.86-22.34-5.14-33.7-7.09a1.08,1.08,0,0,0-1.05,1.18,4.55,4.55,0,0,0,1.81,2.73,52,52,0,0,0,4.54,4.1A4.56,4.56,0,0,0,264.55,62.43Z" fill="#b0906e" opacity="0.11"/>
            <path d="M272.31,53.18c16.88,1.19,32.6,5.58,48.11,11.95a142,142,0,0,1,14.86,6.77,188.34,188.34,0,0,1,18.5,10.89,2.07,2.07,0,0,0,2.54-.86,3.74,3.74,0,0,0-1.11-3.3C349,74.76,342.88,70.9,336.4,67.57a194.78,194.78,0,0,0-25.48-10.82,212,212,0,0,0-21.83-6.2c-8.59-2-5.51-1.33-16.77-1.8a1.72,1.72,0,0,0-1.65,1.71C270.67,51.08,271.55,53.13,272.31,53.18Z" fill="#b0906e" opacity="0.11"/>
            <path d="M263.9,58.36a89.15,89.15,0,0,1,21.47,3.23,183.68,183.68,0,0,1,21.12,6.58,188.89,188.89,0,0,1,38.36,19.77c.73.45,2.15-.82,2.24-1.49.14-1-1.09-2.34-1.88-2.83a191.93,191.93,0,0,0-18.72-10.88,197.19,197.19,0,0,0-20.1-8.83,185.5,185.5,0,0,0-21.25-6.53,77.35,77.35,0,0,0-21.33-3,2.28,2.28,0,0,0-1.95,1.84A2.88,2.88,0,0,0,263.9,58.36Z" fill="#b0906e" opacity="0.11"/>
          </g>
        </g>
        <g opacity="0.7">
          <g>
            <path d="M453.09,199a64.94,64.94,0,0,1,3.12-7c1.53-2.88,3.27-5.65,4.77-8.55a47.4,47.4,0,0,0,3.16-7.37,38.08,38.08,0,0,0,1.59-10.36c.09-2-2.73,0-3.16.31q-2.2,1.45-4.27,3.1a4.85,4.85,0,0,0-1.89,2.05c-.49,2.36-.92,4.78-1.62,7.09a62.63,62.63,0,0,1-3.85,9.19c-2.58,5.26-5.52,10.26-7.73,15.71-.79,2,3.15.12,3.15.12,1.57-.76,3.11-1.58,4.6-2.48A4.68,4.68,0,0,0,453.09,199Z" fill="#b0906e" opacity="0.11"/>
            <path d="M454.4,194.86a66.56,66.56,0,0,1,4.1-8.77c1.6-2.84,3.34-5.64,4.72-8.6a48.85,48.85,0,0,0,2.88-7.58c1-3.51.89-5.51,1-9.13,0-1.13-4.42,1.23-4.76,1.41-1.31.68-2.58,1.41-3.83,2.19a5.82,5.82,0,0,0-2.39,2,57,57,0,0,1-1.34,6.84,55.6,55.6,0,0,1-3.82,9.2c-2.63,5.3-5.71,10.3-8,15.78-.83,2,3.18.47,3.4.4q2.76-.94,5.44-2.11A5.72,5.72,0,0,0,454.4,194.86Z" fill="#b0906e" opacity="0.11"/>
            <path d="M455.43,198.31a67,67,0,0,1,4.11-8.8c1.61-2.85,3.36-5.65,4.74-8.62a48.65,48.65,0,0,0,2.86-7.57,30.52,30.52,0,0,0,.89-8.49c.06-2.17-3.34.51-3.76.78q-2.79,1.9-5.43,4a7.59,7.59,0,0,0-2.5,2.51c-.58,2.3-1.06,4.67-1.78,6.93a71.29,71.29,0,0,1-3.84,9.21c-2.54,5.32-5.48,10.39-7.72,15.87-.92,2.24,4-.43,3.82-.32q3-1.55,5.84-3.3A7.54,7.54,0,0,0,455.43,198.31Z" fill="#b0906e" opacity="0.11"/>
            <path d="M459.59,201.12a76.27,76.27,0,0,1,5-10.36c1.61-2.86,3.22-5.7,4.55-8.72a51.83,51.83,0,0,0,2.1-5.75,33.81,33.81,0,0,0,1.15-9.23c.05-1.18-1.49-.46-1.86-.15a9.41,9.41,0,0,0-1.54,1.55,11,11,0,0,0-1.6,2.22,56.58,56.58,0,0,1-3,11.58,78.4,78.4,0,0,1-3.37,7.19,142.1,142.1,0,0,0-6.57,13.69c-.35.91.13,1.64,1.15,1.38a11,11,0,0,0,2.19-1.52A10.79,10.79,0,0,0,459.59,201.12Z" fill="#b0906e" opacity="0.11"/>
            <path d="M459.06,198a65.48,65.48,0,0,1,3.19-7.1c1.55-2.88,3.28-5.65,4.79-8.54a47.05,47.05,0,0,0,3.15-7.38,36.45,36.45,0,0,0,1.51-10.51c.07-2.06-3,.53-3.18.7-1.41,1.15-2.76,2.36-4.07,3.63a5.06,5.06,0,0,0-1.74,2.3c-.63,2.37-1.13,4.81-1.88,7.14a70.68,70.68,0,0,1-3.86,9.2c-2.55,5.26-5.43,10.32-7.65,15.74-.84,2.06,3.43-.33,3.22-.21q2.31-1.38,4.49-3A5,5,0,0,0,459.06,198Z" fill="#b0906e" opacity="0.11"/>
            <path d="M453.71,192.87a64.71,64.71,0,0,1,4.68-9.84,96.07,96.07,0,0,0,4.66-8.73,28.78,28.78,0,0,0,1.61-4.23,37,37,0,0,0,1.43-10.43c.05-2.2-4-.28-4,1.09a33.72,33.72,0,0,1-.74,7.5l-2.62,7q-1.34,2.72-2.91,5.31a76.72,76.72,0,0,0-6,12.32C449.06,194.87,453.23,194.17,453.71,192.87Z" fill="#b0906e" opacity="0.11"/>
            <path d="M452.14,197.3a56,56,0,0,1,2.87-6.83c1.51-2.9,3.29-5.65,4.81-8.54a45.62,45.62,0,0,0,3.17-7.36,38.18,38.18,0,0,0,1.59-10.32c.07-1.51-1.8-.62-2.36-.31-1.07.59-3.73,1.95-3.91,3.38a50.38,50.38,0,0,1-1.27,7.21,49.65,49.65,0,0,1-3.83,9.2c-2.63,5.15-5.59,10-7.72,15.4-.58,1.47,1.85.88,2.23.75C448.93,199.48,451.63,198.67,452.14,197.3Z" fill="#b0906e" opacity="0.11"/>
            <path d="M456.25,201.69A66.46,66.46,0,0,1,461,191.57c1.62-2.85,3.23-5.69,4.56-8.69a39.58,39.58,0,0,0,3.2-14.3c0-.78-.41-1.46-1.29-1.23a5.65,5.65,0,0,0-2.73,2.85A39,39,0,0,1,462,181.89a75.39,75.39,0,0,1-3.42,7.14,109.59,109.59,0,0,0-6.39,13.4,1.06,1.06,0,0,0,1.05,1.45A5.21,5.21,0,0,0,456.25,201.69Z" fill="#b0906e" opacity="0.11"/>
            <path d="M458.35,194a67.53,67.53,0,0,1,4.14-8.78c1.61-2.83,3.37-5.62,4.75-8.58a48.43,48.43,0,0,0,2.87-7.58c.89-3.26.8-5.3.89-8.6.05-1.87-2.51-.22-3.11.11q-2.22,1.31-4.31,2.79a4.58,4.58,0,0,0-1.94,1.91c-.43,2.3-.78,4.66-1.44,6.91a55.43,55.43,0,0,1-3.83,9.18c-2.63,5.27-5.69,10.25-8,15.69-.79,1.86,2.85.52,3.06.45,1.59-.59,3.15-1.24,4.68-2A4.54,4.54,0,0,0,458.35,194Z" fill="#b0906e" opacity="0.11"/>
            <path d="M453.55,200.46a55.76,55.76,0,0,1,3.77-8.43c1.59-2.84,3.33-5.64,4.72-8.58.64-1.37,1.3-2.77,1.82-4.19a24.26,24.26,0,0,0,1.65-6,24.26,24.26,0,0,0,.6-6.36c.07-1.31-1.64-.6-2.07-.31-1,.67-2.44,1.73-2.62,3a46.13,46.13,0,0,1-1.38,7.56,59.09,59.09,0,0,1-4.55,10.48A109.27,109.27,0,0,0,449,201.1c-.29.77,0,1.53.91,1.54S453.25,201.27,453.55,200.46Z" fill="#b0906e" opacity="0.11"/>
            <path d="M457.08,192.22a62.32,62.32,0,0,1,3.13-7c1.54-2.88,3.29-5.63,4.81-8.53a46.07,46.07,0,0,0,3.16-7.37,36.51,36.51,0,0,0,1.51-10.52c.05-1.54-1.71-.78-2.46-.45a28.71,28.71,0,0,0-3.25,1.82,2.6,2.6,0,0,0-1.42,1.42,43.24,43.24,0,0,1-1,7.06,46,46,0,0,1-3.8,9.19c-2.7,5.23-5.83,10.12-8.09,15.58-.61,1.48,1.73,1.09,2.28,1a26.63,26.63,0,0,0,3.5-1.06A2.56,2.56,0,0,0,457.08,192.22Z" fill="#b0906e" opacity="0.11"/>
            <path d="M452.34,195a70.25,70.25,0,0,1,4.26-8.88c1.63-2.84,3.39-5.62,4.78-8.58.63-1.34,1.24-2.7,1.77-4.08a25.28,25.28,0,0,0,1.56-6.11,21,21,0,0,0,.41-6.71c0-1.93-3.05-1.41-3.05,0a26.13,26.13,0,0,1-.72,8.54A47,47,0,0,1,456.78,180c-1.35,2.28-2.69,4.57-4,6.87a46.75,46.75,0,0,0-3.44,7.3,1.33,1.33,0,0,0,.58,1.69A2.88,2.88,0,0,0,452.34,195Z" fill="#b0906e" opacity="0.11"/>
          </g>
        </g>
        <g opacity="0.7">
          <g>
            <path d="M256.28,45.84a7.08,7.08,0,0,0,4.62,3.95q16.28,6.38,32.68,12.43c1.12.17,1.63-.32,1.53-1.44a11.79,11.79,0,0,0-3.42-5.22q-3.88-4.47-8.11-8.61a11.8,11.8,0,0,0-5-3.72Q266,39,253.44,34.57a23.8,23.8,0,0,0-10-3.11,19.21,19.21,0,0,0-5.41-.2c-4.39.52,3.24,6,3.18,5.94q4.64,3.34,9.52,6.29A11,11,0,0,0,256.28,45.84Z" fill="#b0906e" opacity="0.11"/>
            <path d="M259.53,38.12l1.59.2-1.61-.5,1.16.82-5.6-5.11a19.06,19.06,0,0,0,8.84,8.18q16.08,6.95,32.56,12.9a1.38,1.38,0,0,0,1.69-1.24,6.66,6.66,0,0,0-1.74-4.23,76.09,76.09,0,0,0-5.07-6.91,6.59,6.59,0,0,0-3.51-2.93A250.91,250.91,0,0,1,263,29.64q-4.86-2.22-9.83-4.18l1.52.65a19.8,19.8,0,0,0-7.46-2,1.33,1.33,0,0,0-1.41,1.56,7.33,7.33,0,0,0,2.77,4,86.58,86.58,0,0,0,6.74,6.11A7.41,7.41,0,0,0,259.53,38.12Z" fill="#b0906e" opacity="0.11"/>
            <path d="M261.2,44.29l1.57.19-11.46-7.79A50.93,50.93,0,0,0,265.5,48.08q16.35,6.35,32.81,12.38c1.17.35,1.72-.08,1.65-1.31A14.84,14.84,0,0,0,296.51,53q-4-5.38-8.3-10.48a14.79,14.79,0,0,0-5.16-4.76q-12.87-4.39-25.81-8.63a43.9,43.9,0,0,0-10.62-3.25,19.65,19.65,0,0,0-5.88-.35c-4.66.45,3.51,6.81,3.57,6.86Q249.5,36.81,255,40.8A15.21,15.21,0,0,0,261.2,44.29Z" fill="#b0906e" opacity="0.11"/>
            <path d="M260.36,47.91l9.12,5.23-9.43-7.45,8.55,8a6.09,6.09,0,0,0,3.17,2.42C282.83,60.59,294,64.8,305.16,69a1.37,1.37,0,0,0,1.65-1.31,7,7,0,0,0-2-4.25,80.35,80.35,0,0,0-5.47-6.87,6.9,6.9,0,0,0-3.7-2.89q-12.69-4.47-25.3-9.14a55.07,55.07,0,0,0-13.75-4.31c-1-.23-3.29-.5-2.87,1.44l.79,1.47A42.23,42.23,0,0,0,260.36,47.91Z" fill="#b0906e" opacity="0.11"/>
            <path d="M268.09,45.45l1.62.26-4.79-3.07a39.53,39.53,0,0,0,13.91,8.25A131.94,131.94,0,0,0,305,62.05a1.26,1.26,0,0,0,1.76-1.17,8.92,8.92,0,0,0-2-5q-2.61-4.38-5.63-8.48a8.92,8.92,0,0,0-3.83-3.79q-18.09-6.55-36.06-13.36l-1.94-.74a8.79,8.79,0,0,0-4-.46c-4.22,0,1.8,6,2,6.14q3.79,3.81,7.93,7.28A9.9,9.9,0,0,0,268.09,45.45Z" fill="#b0906e" opacity="0.11"/>
            <path d="M256.08,40l3.55,2.72-.82-1.69a5.25,5.25,0,0,0,1.4,3.27,2.31,2.31,0,0,0,1.17.81Q277.07,52,293.19,57.69c1,.37,2.75-1.26,2.84-2.17.13-1.22-1.39-2.79-2.43-3.18q-16.14-5.62-31.8-12.44l2.38,3a18.74,18.74,0,0,0-.5-2.22,11.22,11.22,0,0,0-1.43-1.86,12.66,12.66,0,0,0-5.48-3.8A1.43,1.43,0,0,0,255,35a3.79,3.79,0,0,0-1.34,1.62C253.21,38,254.87,39.59,256.08,40Z" fill="#b0906e" opacity="0.11"/>
            <path d="M247.69,43l8,2.88-6.63-3q3.69,3,7.47,5.79,15.88,7.16,32.31,13c2.1.79,3.41-.45,2.5-2.57a30,30,0,0,0-4.16-4.7,29.45,29.45,0,0,0-4.82-4,247.71,247.71,0,0,1-32-12.92,40,40,0,0,0-5.55-1.08c-1-.19-2.85.2-2.53,1.76C242.72,40.31,246.12,42,247.69,43Z" fill="#b0906e" opacity="0.11"/>
            <path d="M262.93,58.14l-1.42-2.51-9.34-5.39a97.46,97.46,0,0,0,10.76,7.9q16.14,6.51,32.47,12.5A1.79,1.79,0,1,0,297.79,68a40.25,40.25,0,0,0-5.07-5.21,39.31,39.31,0,0,0-5.7-4.5q-16.45-5.67-32.64-12c-2.38-.9-3.53.59-2.31,2.73a38,38,0,0,0,5.12,5A38.7,38.7,0,0,0,262.93,58.14Z" fill="#b0906e" opacity="0.11"/>
            <path d="M267.5,38.11l1.67.34L267.86,38l1.19,1-1.7-1.64,1.11,1.22a16.23,16.23,0,0,0,10,5.85c11.53,5.68,11.42,5.34,26,10.91a1.84,1.84,0,0,0,1.82-1.06,3.64,3.64,0,0,0-.59-3.19c-1.08-2.46-2.79-6.15-5.45-7.16l-16.74-6.4,1.16.48-17.4-8.34,1.18.58A35.68,35.68,0,0,0,264,27.36,16.19,16.19,0,0,0,259.63,26a1.6,1.6,0,0,0-1.58,1.39,4.78,4.78,0,0,0,1.59,3.45,51.26,51.26,0,0,0,4.64,5.24A4.75,4.75,0,0,0,267.5,38.11Z" fill="#b0906e" opacity="0.11"/>
            <path d="M245,47.28l10.64,4.5-5.82-2.67,4.5,2.47-6.42-4a97,97,0,0,0,10.36,7.56q16,6.72,32.34,12.62c2.32.88,3.51-.54,2.34-2.7a37.34,37.34,0,0,0-5-4.93,36.85,36.85,0,0,0-5.59-4.21q-16.31-5.46-32.09-12.29-2.86-.63-5.79-1c-1.09-.18-2.27.15-2.38,1.37C242,45.54,243.85,46.61,245,47.28Z" fill="#b0906e" opacity="0.11"/>
            <path d="M265.85,37.59l1.44.23-1.06-.67L268,39.09l-1.75-2.72c.86,1.58,1.59,3.47,2.94,4.7a15.1,15.1,0,0,0,8.55,4,244.17,244.17,0,0,0,24.52,9.73,2.7,2.7,0,0,0,3.18-1.65c.25-1.15-1.12-3.9-2.24-4.32A257.14,257.14,0,0,1,270.1,35l1.74,2.1a13,13,0,0,0-3.75-4.76,8,8,0,0,0-3.5-1.58,2.4,2.4,0,0,0-2.68,2.38,7,7,0,0,0,1.62,2.53A7,7,0,0,0,265.85,37.59Z" fill="#b0906e" opacity="0.11"/>
            <path d="M253.37,44l3.48,2.71-1-1.65.09,1.06c.12,1.38,1.61,2.45,2.76,2.93q15.68,6.84,31.81,12.57c1,.38,2.65-1.51,2.65-2.41,0-1.34-1.77-2.76-2.88-3.16q-16.11-5.55-31.73-12.38l2.75,2.92a7.2,7.2,0,0,0-2.44-4.48A12.93,12.93,0,0,0,253.62,39a2.26,2.26,0,0,0-2.94,1.86C250.32,42.3,252.15,43.57,253.37,44Z" fill="#b0906e" opacity="0.11"/>
          </g>
        </g>
        <g opacity="0.7">
          <g>
            <path d="M360.65,102.84q13.94,5,27.33,11.21t26.29,13.49c.8.35,1.26.09,1.38-.77A9.53,9.53,0,0,0,414,122.2q-2.11-4.1-4.52-8a9.38,9.38,0,0,0-3.06-3.76q-13.23-7.07-27-13.07-13.14-6-26.55-11.38c-3.21-1.33.35,5.52.23,5.28q2.08,4,4.48,7.9A9.26,9.26,0,0,0,360.65,102.84Z" fill="#b0906e" opacity="0.11"/>
            <path d="M362.69,97q13.85,5.34,27.35,11.47T416.31,122a1.06,1.06,0,0,0,1.45-.63,4.8,4.8,0,0,0-.56-3.32,56.65,56.65,0,0,0-2.51-5.76,4.83,4.83,0,0,0-2.06-2.66q-13.11-7.29-26.8-13.39-13.36-5.89-26.77-11.65c-2.52-1.09-1,3.56-.91,4a54.85,54.85,0,0,0,2.49,5.79A4.88,4.88,0,0,0,362.69,97Z" fill="#b0906e" opacity="0.11"/>
            <path d="M364.26,101.54q13.92,4.9,27.29,11.15t26.29,13.48c3.2,1.73-.07-6.08.08-5.7q-1.86-4.62-4.06-9.1A10.85,10.85,0,0,0,411,107q-13.31-7.14-27.13-13.22-13-6.09-26.35-11.42c-3.21-1.34-.14,5.62-.11,5.69q1.84,4.64,4,9.11A11,11,0,0,0,364.26,101.54Z" fill="#b0906e" opacity="0.11"/>
            <path d="M368.91,108.13q13.93,5,27.38,11.23t26.2,13.52a1,1,0,0,0,1.47-.58,5,5,0,0,0-.48-3.43,57.62,57.62,0,0,0-2.38-6,5,5,0,0,0-2-2.83q-13.17-7.29-26.92-13.43-13.06-6-26.43-11.32c-2.51-1-1.23,3.41-1.07,4a58.52,58.52,0,0,0,2.28,6A5,5,0,0,0,368.91,108.13Z" fill="#b0906e" opacity="0.11"/>
            <path d="M369.14,102.83q13.88,5,27.27,11.23t26.25,13.51c2.61,1.42,1.16-4,1.09-4.33q-1-3.48-2.29-6.86a6.16,6.16,0,0,0-2-3.31q-13.2-7.33-27-13.51-13-6-26.25-11.34c-2.61-1.09-1.34,3.61-1.17,4.31q.9,3.52,2.15,6.94A6.11,6.11,0,0,0,369.14,102.83Z" fill="#b0906e" opacity="0.11"/>
            <path d="M359.88,101.09a149.21,149.21,0,0,1,27,10.08q13.35,6.14,26,13.52c.72.39,2.21-.47,2.41-1.18a3.16,3.16,0,0,0-1.37-2.81q-12.76-7.4-26.16-13.53a133.84,133.84,0,0,0-26.91-9.89,2.34,2.34,0,0,0-2.36,1.28A2.73,2.73,0,0,0,359.88,101.09Z" fill="#b0906e" opacity="0.11"/>
            <path d="M357.94,102.83q13.86,4.89,27.19,11.07l-1-.49,14.33,6.94-1-.52,12.94,7c.54.29,1.22.81,1.86.4,1-.65.29-2.06-.07-2.82a35.73,35.73,0,0,0-2.86-4.74,9.39,9.39,0,0,0-3.23-3.39c-6.6-3.44-13.15-6.83-19.89-10-11-5.14-22.23-9.81-33.47-14.47a1.1,1.1,0,0,0-1.33.86,4.37,4.37,0,0,0,1,3,49.14,49.14,0,0,0,3.23,5A4.33,4.33,0,0,0,357.94,102.83Z" fill="#b0906e" opacity="0.11"/>
            <path d="M362.73,109.56q13.95,5,27.41,11.23t26.2,13.51a1,1,0,0,0,1.34-.84,5.64,5.64,0,0,0-1.22-3.47,66.47,66.47,0,0,0-3.68-5.83,5.65,5.65,0,0,0-2.6-2.6q-13.12-7.09-26.79-13.1-13.2-6-26.65-11.31a1,1,0,0,0-1.34.84,5.38,5.38,0,0,0,1.18,3.39,65.29,65.29,0,0,0,3.59,5.67A5.42,5.42,0,0,0,362.73,109.56Z" fill="#b0906e" opacity="0.11"/>
            <path d="M368.78,98.74a209,209,0,0,1,27.09,10.72q13.42,6.18,26.22,13.59a1.51,1.51,0,0,0,1.51-.47,2.27,2.27,0,0,0,.17-2.19c-.29-1.72-.88-4.56-2.55-5.47q-13-7.48-26.61-13.71a280.36,280.36,0,0,0-26.56-10.82c-1.83-.69-1.89,1.67-1.74,2.67A24,24,0,0,0,367.42,97,2.39,2.39,0,0,0,368.78,98.74Z" fill="#b0906e" opacity="0.11"/>
            <path d="M359.2,107.31q10.46,3.64,20.53,8.2,10.23,4.29,20.09,9.42l-1.13-.59L412.75,132a1,1,0,0,0,1.29-.91,5.48,5.48,0,0,0-1.35-3.36,63,63,0,0,0-3.9-5.56,5.47,5.47,0,0,0-2.69-2.43q-13.08-7.07-26.69-13-13.2-5.91-26.66-11.22a1,1,0,0,0-1.29.91,5.24,5.24,0,0,0,1.3,3.27,64.32,64.32,0,0,0,3.8,5.37A5.21,5.21,0,0,0,359.2,107.31Z" fill="#b0906e" opacity="0.11"/>
            <path d="M366.57,98.89a129.89,129.89,0,0,1,27.2,10q13.37,6.13,26.09,13.53a2.09,2.09,0,0,0,2.58-.73c.35-.75-.19-2.92-.94-3.33q-12.78-7.44-26.23-13.6A109.79,109.79,0,0,0,368.13,95a2.24,2.24,0,0,0-2.55.84C365.3,96.52,365.82,98.66,366.57,98.89Z" fill="#b0906e" opacity="0.11"/>
            <path d="M357.94,103.9a145.27,145.27,0,0,1,26.9,10.16q13.37,6.14,26.07,13.53c.77.42,2.18-.62,2.31-1.36.18-1-1-2.56-1.77-3q-12.78-7.38-26.19-13.51a123.85,123.85,0,0,0-26.74-9.84,2.25,2.25,0,0,0-2.25,1.47A3.05,3.05,0,0,0,357.94,103.9Z" fill="#b0906e" opacity="0.11"/>
          </g>
        </g>
        <g opacity="0.7">
          <g>
            <path d="M343.65,89.89a30.87,30.87,0,0,1,8.27,2.77,48.55,48.55,0,0,1,7.67,4l-1.36-.9,6,4.18c.82.28,1.26,0,1.31-.88a9.34,9.34,0,0,0-2-4.39q-2.4-3.9-5.09-7.59a9.33,9.33,0,0,0-3.32-3.48q-5.35-2.82-10.94-5.15a48.9,48.9,0,0,0-10.29-4c-.83-.22-1.25.1-1.26.95a9,9,0,0,0,2.13,4.2q2.55,3.67,5.38,7.13A8.94,8.94,0,0,0,343.65,89.89Z" fill="#b0906e" opacity="0.11"/>
            <path d="M345.79,84.11A38.6,38.6,0,0,1,354,87.05a49.81,49.81,0,0,1,7.64,4l-1-.65,5.67,3.94a1,1,0,0,0,1.4-.73,4.88,4.88,0,0,0-.78-3.3A58.72,58.72,0,0,0,364,84.64a4.92,4.92,0,0,0-2.24-2.55A139.24,139.24,0,0,0,340.63,72a1,1,0,0,0-1.36.79,4.91,4.91,0,0,0,1,3.29,56.76,56.76,0,0,0,3.2,5.56A5,5,0,0,0,345.79,84.11Z" fill="#b0906e" opacity="0.11"/>
            <path d="M347.26,88.63a37.21,37.21,0,0,1,10.86,3.88,54.93,54.93,0,0,1,9.65,6.07c.82.4,1.28.15,1.38-.77a11.16,11.16,0,0,0-1.8-4.94q-2.25-4.47-4.83-8.75A11.11,11.11,0,0,0,359.29,80q-5.49-2.94-11.2-5.45A41.7,41.7,0,0,0,338,70.36c-3.4-1.12.76,5.87.67,5.7q2.46,4.36,5.23,8.55A11,11,0,0,0,347.26,88.63Z" fill="#b0906e" opacity="0.11"/>
            <path d="M352.15,95.07a32.2,32.2,0,0,1,8.29,2.81,43.69,43.69,0,0,1,7.6,4l-1.05-.68,5.6,4a1,1,0,0,0,1.41-.72,5.22,5.22,0,0,0-.83-3.41,61.67,61.67,0,0,0-3-5.84,5.23,5.23,0,0,0-2.28-2.66,89.17,89.17,0,0,0-11-5.78,45.79,45.79,0,0,0-10.07-4.13,1,1,0,0,0-1.37.78,5.19,5.19,0,0,0,1,3.38,59.56,59.56,0,0,0,3.27,5.7A5.18,5.18,0,0,0,352.15,95.07Z" fill="#b0906e" opacity="0.11"/>
            <path d="M352.23,89.81a41.9,41.9,0,0,1,10.83,4,53,53,0,0,1,9.59,6.11,1,1,0,0,0,1.45-.63,6.34,6.34,0,0,0-.78-3.84c-.87-2.3-1.86-4.56-2.95-6.77a6.36,6.36,0,0,0-2.28-3.19,98.76,98.76,0,0,0-11.1-6,40.84,40.84,0,0,0-9.88-4.21c-2.82-1-.65,4.17-.5,4.56q1.44,3.48,3.21,6.81A6.55,6.55,0,0,0,352.23,89.81Z" fill="#b0906e" opacity="0.11"/>
            <path d="M343.56,87.81a30.54,30.54,0,0,1,7.9,1.93A26.17,26.17,0,0,1,363.25,97c.63.48,2.2-.71,2.34-1.31.25-1-.8-2.16-1.49-2.69A75,75,0,0,0,357,88a11.38,11.38,0,0,0-5-2.26,40.68,40.68,0,0,0-7.87-1.82A2.34,2.34,0,0,0,342,85.46,2.71,2.71,0,0,0,343.56,87.81Z" fill="#b0906e" opacity="0.11"/>
            <path d="M341.08,89.74l5.55,1.64L345.58,91a52,52,0,0,1,7.73,3.65,38.71,38.71,0,0,1,7.12,4.54c1.51,1,2.61.07,2.16-1.59a24.55,24.55,0,0,0-2.68-4.23,25.17,25.17,0,0,0-3.25-3.81,71.41,71.41,0,0,0-10.4-5.35,100.43,100.43,0,0,0-11.46-4.49,1.13,1.13,0,0,0-1.21,1,4.13,4.13,0,0,0,1.28,2.82,45.27,45.27,0,0,0,3.67,4.4A4.07,4.07,0,0,0,341.08,89.74Z" fill="#b0906e" opacity="0.11"/>
            <path d="M346,96.58l5.64,1.61-1.17-.44a47.48,47.48,0,0,1,7.79,3.7,38.36,38.36,0,0,1,7.08,4.6c1.67,1.17,2.75.27,2.15-1.61a33.78,33.78,0,0,0-3.2-4.84,33.48,33.48,0,0,0-3.76-4.4c-4.31-2.36-8.67-4.46-13.18-6.43a83.84,83.84,0,0,0-8.85-3.23,1,1,0,0,0-1.19,1,5.06,5.06,0,0,0,1.6,3.09,58.54,58.54,0,0,0,4.26,4.91A5.05,5.05,0,0,0,346,96.58Z" fill="#b0906e" opacity="0.11"/>
            <path d="M352.07,85.52a23,23,0,0,1,10.47,3.41l-.82-.4a48.53,48.53,0,0,1,9.7,6.19c1.06.76,2.33.48,2.51-1a12.89,12.89,0,0,0-.91-3.39,12.61,12.61,0,0,0-1.58-3.13,89,89,0,0,0-11-6.64l-3-1.43a17.4,17.4,0,0,0-7.26-2.31c-2-.45-1.64,2-1.35,3a26.17,26.17,0,0,0,1.65,4A2.58,2.58,0,0,0,352.07,85.52Z" fill="#b0906e" opacity="0.11"/>
            <path d="M342.54,94.48,348,95.93l-1.15-.38a49.87,49.87,0,0,1,7.79,3.67,38.86,38.86,0,0,1,7.1,4.57c1.68,1.17,2.71.07,2.08-1.69a31.92,31.92,0,0,0-3.28-4.62,31.58,31.58,0,0,0-3.83-4.17c-4.26-2.32-8.56-4.38-13-6.29a77.35,77.35,0,0,0-8.74-3,1.06,1.06,0,0,0-1.16,1.08,4.81,4.81,0,0,0,1.63,3,56.92,56.92,0,0,0,4.3,4.62A4.84,4.84,0,0,0,342.54,94.48Z" fill="#b0906e" opacity="0.11"/>
            <path d="M350.19,85.64a22.83,22.83,0,0,1,13.12,4.17,39.74,39.74,0,0,1,6.84,4.91c.69.54,2.25-.14,2.54-.88a3.8,3.8,0,0,0-1.15-3.3L367,87a22.35,22.35,0,0,0-8-4.25c-4.24-1.58-3.1-1.17-8.36-1.27a1.8,1.8,0,0,0-1.79,1.53C348.81,83.62,349.47,85.57,350.19,85.64Z" fill="#b0906e" opacity="0.11"/>
            <path d="M341.62,90.64a28.35,28.35,0,0,1,7.82,2,26.45,26.45,0,0,1,11.2,6.81,1.71,1.71,0,0,0,2.57-.47c.64-.9-.23-2.4-1-3a83.39,83.39,0,0,0-7.73-5.32,12.14,12.14,0,0,0-5-2.26,34,34,0,0,0-7.74-1.78,2.26,2.26,0,0,0-2.07,1.7A3,3,0,0,0,341.62,90.64Z" fill="#b0906e" opacity="0.11"/>
          </g>
        </g>
        <g opacity="0.7">
          <g>
            <path d="M35.79,60.94l.53-1.82-.61,1.31a34.6,34.6,0,0,0,8.15-10.9,25.32,25.32,0,0,1,8.76-5.6l-10,3.56,9.88-2.93-7.63,1.63,10.25-1.35,2.71-.5c.55-.22,1.71-.71,1.64-1.5s-1.3-1.06-1.88-1.18l-2.76,0a18.62,18.62,0,0,0-11,3.06c-6,2.38-6.18,1.56-9,5a47.31,47.31,0,0,0-3.53,4.88C29,58.22,26.61,61.9,24.68,65.72a15.59,15.59,0,0,0-1.57,5.1C23,71.61,23.4,72,24.19,72a7.13,7.13,0,0,0,3.52-2.22q3-2.58,5.69-5.41A7,7,0,0,0,35.79,60.94Z" fill="#b0906e" opacity="0.11"/>
            <path d="M37.83,54.64l.56-1.83-.91,1.37A10.42,10.42,0,0,1,40,51.73a64.05,64.05,0,0,0,6.63-9.66L45.6,43.25a26.46,26.46,0,0,1,8.76-5.58l-6.78,1.75,9.33-2L46.29,38.66l10.63-.52c1.17,0,3,.16,4-.64s.2-1.51-.56-1.88c-1.54-.74-3.55-.71-5.22-.82a37.75,37.75,0,0,0-3.83-.17,31,31,0,0,0-4.62.1,26.51,26.51,0,0,0-6.57,3.11,27,27,0,0,0-6.22,5.8c-3.71,4.62-6.45,9.66-9.33,14.89l-1.16,2.13a11,11,0,0,0-1.35,4.46c-.62,3.37,5.3-1.14,5.26-1.1q3.74-2.74,7.25-5.75A9.53,9.53,0,0,0,37.83,54.64Z" fill="#b0906e" opacity="0.11"/>
            <path d="M39.33,60l.54-1.83-3.07,4.2A54.27,54.27,0,0,0,48.23,47.26l-1,1.43A34.06,34.06,0,0,1,53.46,44l-7.59,3.85,10-4.74-16,5.79,21.19-5.39,1.6-.74a.9.9,0,0,0-.17-1.57c-1.39-.78-3.76-.32-5.22-.24a90.38,90.38,0,0,0-11.59,1.44,7.27,7.27,0,0,0-5.91,3.87,12.5,12.5,0,0,0-5.09,4.89c-1.13,1.73-2.22,3.47-3.18,5.3-2,3.85-4.38,7.7-6,11.72a16.83,16.83,0,0,0-1.23,5.26c-.34,3.59,5.52-2.27,5.28-2q3.56-3.44,6.85-7.13A10.87,10.87,0,0,0,39.33,60Z" fill="#b0906e" opacity="0.11"/>
            <path d="M45.9,62.89l.41-1.57-1.68,3c.91-.9,1.78-1.84,2.61-2.81a56.15,56.15,0,0,0,7.2-10.24L52,54.17l7.27-5.85-4.19,2.56,4.23-2.08-4,1.58,6.18-2-4.29,1.09,3.94-.27a40.77,40.77,0,0,0,5.25-1,3,3,0,0,0,2.18-1c.93-1.13.47-1.84-.89-2.29-2.19-.71-3.39-1.19-5.82-.84a17.33,17.33,0,0,0-6.39,2.6,27.2,27.2,0,0,0-5.75,4.73c-2.76,3.06-4.81,6.65-7.07,10.07l4.17-4a18,18,0,0,0-4.49,4.14,16.77,16.77,0,0,0-1.57,2.34,5,5,0,0,0-.8,2.88,1.47,1.47,0,0,0,2.23,1.49,11.48,11.48,0,0,0,2.14-2.57A11.49,11.49,0,0,0,45.9,62.89Z" fill="#b0906e" opacity="0.11"/>
            <path d="M44.26,60.5l.93-3.18-1.92,3.59c1.17-1.17,2.28-2.38,3.35-3.63q6.16-7.1,12.73-13.8l-6,3.5,5.86-2.92-7.56,3.08,10-3.47L51,46.23l13.13-2.15a7.46,7.46,0,0,0,4.06-1.32A.91.91,0,0,0,68,41.19l-24,8.62L43.2,51c-.67.94-1.29,1.92-1.89,2.91a103.44,103.44,0,0,0-6.13,11.29,12.56,12.56,0,0,0-1.37,5.13.94.94,0,0,0,1.24,1,4.58,4.58,0,0,0,2.15-1.63,34.51,34.51,0,0,0,3.35-3.89A42.32,42.32,0,0,0,44.26,60.5Z" fill="#b0906e" opacity="0.11"/>
            <path d="M35.42,52a5,5,0,0,1,3.27-4q5.13-11,15.37-12.85l-2.31.16L58,36.44c.94.27,2.51.65,3.09-.43a1.69,1.69,0,0,0-.71-2.51,20.1,20.1,0,0,0-7.74-1.58c-2.75.11-5.89,1.61-8.19,3a14.71,14.71,0,0,0-3.06,2.21,18.77,18.77,0,0,0-5.61,6.33A22.3,22.3,0,0,1,31,49.25a6.25,6.25,0,0,0-2,3.49A1.56,1.56,0,0,0,30.43,55a8.93,8.93,0,0,0,2.68-1.23A8.89,8.89,0,0,0,35.42,52Z" fill="#b0906e" opacity="0.11"/>
            <path d="M32.76,59.59l1.12-2.93-.39,1a33.17,33.17,0,0,0,8.77-10.87,29.72,29.72,0,0,1,6.5-4.48l-3.84,1.63,4.82-1.77L45,43.28,52.33,42l-4.7.59,5.11.05c.92,0,4,.21,4.78-.89a1.39,1.39,0,0,0-.78-2.13L40,42.34,37.6,44.26a48.52,48.52,0,0,0-7,8.6c-1.69,2.41-3.62,4.74-5.25,7.2a18.08,18.08,0,0,0-1.85,4.23,1.16,1.16,0,0,0,1,1.23,2.52,2.52,0,0,0,1.9-.63,17.07,17.07,0,0,0,3-2.13A21.8,21.8,0,0,0,32.76,59.59Z" fill="#b0906e" opacity="0.11"/>
            <path d="M39.62,64.62l.72-1.88L38.85,65l2.29-2.68-2.2,2.25c4.22-3.79,15.3-14.93,16-15.19l-3,.89L56,50.12A11.83,11.83,0,0,0,59.37,50a11.77,11.77,0,0,0,3.25-.88,1.47,1.47,0,0,0-.42-2.65c-1.85-.61-3.62-1.28-5.62-1a16.57,16.57,0,0,0-3.87,1c-3.33,1.32-5.78,3.55-8.32,6A31.27,31.27,0,0,0,41,57a10.19,10.19,0,0,1-2.73,3.64,6.87,6.87,0,0,0-1.09,1.13,15.38,15.38,0,0,0-3.09,5.33c-.42,1.14,1.16,2,2.06,1.71C37.58,68.36,39.11,66,39.62,64.62Z" fill="#b0906e" opacity="0.11"/>
            <path d="M43.47,53.05l.6-1.84L41.56,54.5a39.73,39.73,0,0,0,11-13.88l-.83,1.13a35.43,35.43,0,0,1,3.07-2.38,15.21,15.21,0,0,1,5.84-2.83l-5.89,1.61,8.5-1.7-9.2,1c3.58,0,7.15-.1,10.72-.26a3.43,3.43,0,0,0,2.31-.52c.72-.7.33-1.44-.42-1.89-1.66-1-4.17-.92-6.07-1.08-4.6-.38-8.25-.23-12.43,2.73a36.85,36.85,0,0,0-8,8.09c-3,3.93-5.09,8.48-7.57,12.72a15.06,15.06,0,0,0-1.94,5.46c-.07.79.29,1.18,1.07,1.16a7,7,0,0,0,3.54-2.15c2-1.68,3.91-3.45,5.75-5.31A7.05,7.05,0,0,0,43.47,53.05Z" fill="#b0906e" opacity="0.11"/>
            <path d="M35.7,62.73A33.87,33.87,0,0,1,39,58.62,24.23,24.23,0,0,1,50,47.23l-3.55,1.56L52.94,47l-3.38.39,3.81.23a22.94,22.94,0,0,0,4.05-.37,2,2,0,0,0,1.71-.7,1.39,1.39,0,0,0-.56-2.36,10.6,10.6,0,0,0-5.76-.93,11.92,11.92,0,0,0-3.28.74,22.69,22.69,0,0,0-5.47,2.6,29.61,29.61,0,0,0-5.93,5.53q-3.43,4.93-7.19,9.64a7.2,7.2,0,0,0-1.77,3.6,1.49,1.49,0,0,0,1.89,1.91,10.87,10.87,0,0,0,2.56-2A11.23,11.23,0,0,0,35.7,62.73Z" fill="#b0906e" opacity="0.11"/>
            <path d="M41.27,50.43l.63-1.85-.53,1A28.79,28.79,0,0,0,50.49,38l-.63.89a37.32,37.32,0,0,1,3.19-2.39,15.16,15.16,0,0,1,6.15-2.81l-4.08.75,5.32-.51L56,33.79a56.31,56.31,0,0,0,9,.71,1.44,1.44,0,0,0,1.18-1.14c.38-1.95-2.89-2.3-4-2.52a20.36,20.36,0,0,0-11.36,1,26.56,26.56,0,0,0-6,3.87c-5,4.26-7.52,9-11.2,14.69l.61-.94a19.72,19.72,0,0,0-2.72,3.83,8.55,8.55,0,0,0-1.11,3.19,1.09,1.09,0,0,0,.93,1.28,4.55,4.55,0,0,0,3-1.19A53.53,53.53,0,0,0,39.2,53,4.59,4.59,0,0,0,41.27,50.43Z" fill="#b0906e" opacity="0.11"/>
            <path d="M33.42,54.48l1.94-2.71a10.68,10.68,0,0,0,2.12-1.59,22.38,22.38,0,0,0,4-4.85q4.35-8.62,14.95-5.83c.89.3,2.31.3,2.7-.71a1.76,1.76,0,0,0-.81-2.43c-2.39-.93-4.49-1.8-7.14-1.5a20,20,0,0,0-6.53,1.84,27,27,0,0,0-5.38,4A67.48,67.48,0,0,1,29.8,52,8.51,8.51,0,0,0,28,54.83c-.53.93.53,2.21,1.47,2.24C30.64,57.12,32.91,55.51,33.42,54.48Z" fill="#b0906e" opacity="0.11"/>
          </g>
        </g>
        <g opacity="0.7">
          <g>
            <path d="M419.41,133.8a72.46,72.46,0,0,1,10.48,5.75,107.05,107.05,0,0,1,9.92,6.7l6.16,5a116.09,116.09,0,0,1,11.15,11c.72.51,1.22.34,1.51-.49a9.8,9.8,0,0,0-.74-4.89c-.85-3-1.82-6-2.9-8.93a10,10,0,0,0-2.29-4.39,173.49,173.49,0,0,0-19.42-15.17c-6.58-4.29-13.23-8.45-20.07-12.3-3.07-1.72-.11,5.69-.24,5.33q1.71,4.27,3.75,8.38A9.41,9.41,0,0,0,419.41,133.8Z" fill="#b0906e" opacity="0.11"/>
            <path d="M421.49,128.31l7,3.68a106.06,106.06,0,0,1,10,6.46,139.33,139.33,0,0,1,15.17,12.61l-.82-.87,6.17,6.57a1.07,1.07,0,0,0,1.54-.37,4.68,4.68,0,0,0,.05-3.32,54.61,54.61,0,0,0-1.43-6,4.66,4.66,0,0,0-1.54-2.94A145.64,145.64,0,0,0,439,128.2c-6.53-4.49-13.32-8.6-20.12-12.66a1,1,0,0,0-1.5.5,5,5,0,0,0,.27,3.39,58.21,58.21,0,0,0,2,6A4.93,4.93,0,0,0,421.49,128.31Z" fill="#b0906e" opacity="0.11"/>
            <path d="M423,132.46a68.73,68.73,0,0,1,10.46,5.7,113.45,113.45,0,0,1,9.89,6.68l6.17,5a118.12,118.12,0,0,1,11.16,11c.68.6,1.19.49,1.54-.35a10.73,10.73,0,0,0-.32-5.15q-.9-4.83-2.16-9.58a10.6,10.6,0,0,0-1.92-4.79,174.86,174.86,0,0,0-19.72-15.66c-6.53-4.34-13.1-8.58-19.92-12.44-3.05-1.73-.66,5.66-.67,5.63q1.38,4.76,3.1,9.39A10.88,10.88,0,0,0,423,132.46Z" fill="#b0906e" opacity="0.11"/>
            <path d="M427.5,139.15c7.11,3.7,14,7.54,20.37,12.49l6.1,5a117.18,117.18,0,0,1,11,11.06,1.06,1.06,0,0,0,1.56-.22,4.64,4.64,0,0,0,.36-3.28,54.13,54.13,0,0,0-.88-6.09,4.55,4.55,0,0,0-1.26-3,148.53,148.53,0,0,0-19-16.33q-9.64-6.71-19.86-12.48c-2.35-1.33-1.62,3.21-1.53,3.77a56.41,56.41,0,0,0,1.54,6.15A4.9,4.9,0,0,0,427.5,139.15Z" fill="#b0906e" opacity="0.11"/>
            <path d="M427.83,133.91a128.37,128.37,0,0,1,20.29,12.4l6.14,5a116.94,116.94,0,0,1,11.09,11.06,1,1,0,0,0,1.56-.18,5.49,5.49,0,0,0,.41-3.6,66.73,66.73,0,0,0-.78-6.75,5.45,5.45,0,0,0-1.23-3.4A150.43,150.43,0,0,0,446.22,132c-6.39-4.46-12.93-8.65-19.71-12.48-2.45-1.39-1.7,3.42-1.62,4.07a68.24,68.24,0,0,0,1.41,6.94A5.82,5.82,0,0,0,427.83,133.91Z" fill="#b0906e" opacity="0.11"/>
            <path d="M418.12,132.22A40.18,40.18,0,0,1,428.34,137a60.81,60.81,0,0,1,9.76,6.56l6,5a109.62,109.62,0,0,1,10.75,11.12c.56.61,2.29-.19,2.57-.79.43-.93-.34-2.43-1-3.09-5.34-5.81-10.72-11.43-17.06-16.19L432.92,135a50.11,50.11,0,0,0-13.54-6.48,2.34,2.34,0,0,0-2.45,1.1A2.75,2.75,0,0,0,418.12,132.22Z" fill="#b0906e" opacity="0.11"/>
            <path d="M416.59,133.88a61.41,61.41,0,0,1,9.8,5.23,105.8,105.8,0,0,1,9.42,6.3,148.41,148.41,0,0,1,17.25,15.81c1.29,1.36,2.55.94,2.48-1a40.94,40.94,0,0,0-4.06-10c-6-5.62-12-11.07-18.84-15.59-6.68-4.41-13.49-8.53-20.47-12.43a1.09,1.09,0,0,0-1.4.74,4.6,4.6,0,0,0,.76,3.18,52.94,52.94,0,0,0,2.85,5.37A4.51,4.51,0,0,0,416.59,133.88Z" fill="#b0906e" opacity="0.11"/>
            <path d="M421.32,140.55a79.74,79.74,0,0,1,10.52,5.8,96.81,96.81,0,0,1,9.89,6.68l-1-.81,7.13,5.78-1-.85,6.69,6.2-.95-.9,5.34,5.64c.42.44,1,1.33,1.79,1.07,1.21-.42.65-2.36.46-3.17a49.23,49.23,0,0,0-2-6.25c-.64-1.73-1.2-3.6-2.6-4.87a155.57,155.57,0,0,0-18.94-15.31q-9.79-6.5-20-12.25a1,1,0,0,0-1.41.69,5.57,5.57,0,0,0,.82,3.56,67.24,67.24,0,0,0,3,6.15A5.53,5.53,0,0,0,421.32,140.55Z" fill="#b0906e" opacity="0.11"/>
            <path d="M427.29,129.84a87.36,87.36,0,0,1,25.59,16.64,115.15,115.15,0,0,1,11,11.19,1.53,1.53,0,0,0,2.66-.32,13.24,13.24,0,0,0-.73-6.07,140.19,140.19,0,0,0-18.24-17,149.82,149.82,0,0,0-20.26-12.55,1.51,1.51,0,0,0-1.55.3,2.27,2.27,0,0,0-.42,2.14C425.44,125.67,425.69,129.08,427.29,129.84Z" fill="#b0906e" opacity="0.11"/>
            <path d="M417.79,138.25a102.33,102.33,0,0,1,13.88,7.83l-1.09-.7a115.69,115.69,0,0,1,23.76,20.34c.41.44,1.14,1.28,1.87,1,1.18-.5.47-2.43.23-3.22a51.34,51.34,0,0,0-2.42-6.2,13.63,13.63,0,0,0-2.95-4.75,154.92,154.92,0,0,0-14.89-12.29,253.17,253.17,0,0,0-23.85-14.79,1,1,0,0,0-1.37.78,5.47,5.47,0,0,0,1,3.47,63.49,63.49,0,0,0,3.35,5.9A5.48,5.48,0,0,0,417.79,138.25Z" fill="#b0906e" opacity="0.11"/>
            <path d="M424.85,130a39.22,39.22,0,0,1,10.42,4.72,57.53,57.53,0,0,1,9.81,6.57l6,5a114.13,114.13,0,0,1,10.77,11.11c.56.62,2.22.32,2.67-.31a3.44,3.44,0,0,0-.38-3.25c-5.36-5.89-10.74-11.55-17.12-16.38l-6.48-4.68a46.65,46.65,0,0,0-13.83-6.43c-.78-.29-2.15-.21-2.61.64C423.77,127.59,424.11,129.72,424.85,130Z" fill="#b0906e" opacity="0.11"/>
            <path d="M416.19,135l6.55,2.57a65.63,65.63,0,0,1,10.18,6.51,61.14,61.14,0,0,1,6.19,4.82,90.46,90.46,0,0,1,13.65,13.46c.62.69,2.28-.34,2.48-1,.35-1.11-.71-2.77-1.42-3.52A132.72,132.72,0,0,0,436.9,142l-6.39-4.63A36.35,36.35,0,0,0,417.06,131a2.24,2.24,0,0,0-2.36,1.28A3.1,3.1,0,0,0,416.19,135Z" fill="#b0906e" opacity="0.11"/>
          </g>
        </g>
        <g>
          <path d="M34.83,63.61c8.36-17.46,22.65-20.3,35.87-25.2,58.65-21.72,124.26-12.89,181.19,13,10.89,5,21.41,10.72,32.45,15.34,14.18,5.92,29.11,9.9,43.26,15.87,20.86,8.81,39.66,21.77,58.22,34.74" fill="#dfc5a4"/>
          <g>
            <path d="M386.84,115.13c.45.35.52-.11.63-.12C386.65,114.55,386.8,115.23,386.84,115.13Z" fill="#b0906e"/>
            <polygon points="378.66 110.59 378.89 110.55 377.52 110.11 378.66 110.59" fill="#b0906e"/>
            <path d="M371.46,105.68c.29,1,2.68,1.67,3.82,2.76l.12.28.91-.08A43.51,43.51,0,0,1,371.46,105.68Z" fill="#b0906e"/>
            <path d="M368.44,101.81c.09.39-1-.35.86.67a.92.92,0,0,1-.12-.16C369,102.22,368.8,102.07,368.44,101.81Z" fill="#b0906e"/>
            <path d="M369.18,102.32c.78.49-.38-.53,0,0Z" fill="#b0906e"/>
            <path d="M365.53,100.12l1.15.45c-.12-.28-1-.9-.61-.78C365,99.23,365.08,99.51,365.53,100.12Z" fill="#b0906e"/>
            <path d="M364.28,99.93l.58.25C364.81,100.06,364.68,100,364.28,99.93Z" fill="#b0906e"/>
            <path d="M366.11,100.72l-1.25-.54c.09.19,0,.4.56.27C365.21,100.57,365.55,100.54,366.11,100.72Z" fill="#b0906e"/>
            <path d="M366.68,101.22c.48.51,1.16,1.07,0,.61C368.68,103,368.67,102.42,366.68,101.22Z" fill="#b0906e"/>
            <path d="M370.68,106l.64.68.78.24C371.71,106.84,370.76,105.83,370.68,106Z" fill="#b0906e"/>
            <path d="M359.33,95.74c-.14.09.13.56.11.78l.85.33C360,96.51,359.26,96,359.33,95.74Z" fill="#b0906e"/>
            <path d="M359.44,96.52,358.16,96C359.17,96.68,359.41,96.7,359.44,96.52Z" fill="#b0906e"/>
            <polygon points="363.67 100.48 365.81 101.21 363.31 100.26 363.67 100.48" fill="#b0906e"/>
            <polygon points="354.94 93.05 355.78 93.14 354.33 92.9 354.94 93.05" fill="#b0906e"/>
            <path d="M352,91.37c.63,0-.43-.82.18-.67a9.6,9.6,0,0,0-2.39-.75A6.51,6.51,0,0,1,352,91.37Z" fill="#b0906e"/>
            <path d="M348.56,89.64a11,11,0,0,0,1.2.31A5.71,5.71,0,0,0,348.56,89.64Z" fill="#b0906e"/>
            <path d="M356.24,94.78a1.6,1.6,0,0,0-.68-.93l.23.64Z" fill="#b0906e"/>
            <path d="M355.8,94.52v0l-1-.61Z" fill="#b0906e"/>
            <path d="M356.35,94.85l-.11-.07C356.26,94.84,356.28,94.87,356.35,94.85Z" fill="#b0906e"/>
            <path d="M360.91,98.27c-.79-.22-2.32-.88-1.17.28C360.38,98.6,359.72,97.94,360.91,98.27Z" fill="#b0906e"/>
            <path d="M356.64,95.64l1.16.83c0-.11-.1-.39.3-.28Z" fill="#b0906e"/>
            <polygon points="355.97 95.4 356.64 95.64 356.2 95.34 355.97 95.4" fill="#b0906e"/>
            <path d="M350.5,91.2a8.27,8.27,0,0,1-1.91-.81c.67.48,1.39.93,2.08,1.33C350.84,91.66,351.27,91.62,350.5,91.2Z" fill="#b0906e"/>
            <path d="M353.07,92.83l-.13,0C353,92.86,353,92.9,353.07,92.83Z" fill="#b0906e"/>
            <polygon points="341.98 86.81 342.05 86.94 342.11 86.88 341.98 86.81" fill="#b0906e"/>
            <path d="M350.75,91.86a2.71,2.71,0,0,0,1.23.53c-.41-.2-.85-.42-1.31-.67C350.6,91.75,350.57,91.78,350.75,91.86Z" fill="#b0906e"/>
            <path d="M346.62,88.8a10.23,10.23,0,0,0,.83.72C347.24,89.25,346.78,88.76,346.62,88.8Z" fill="#b0906e"/>
            <path d="M352.82,92.58l.09,0C352.78,92.43,352.78,92.48,352.82,92.58Z" fill="#b0906e"/>
            <path d="M352.82,92.58a4.16,4.16,0,0,0-.84-.19,7.18,7.18,0,0,0,1,.39A.71.71,0,0,1,352.82,92.58Z" fill="#b0906e"/>
            <path d="M338.72,88.21c.27-.31,1.86.11,2.89,1.12,1.35.37,1.17-1.19.44-2.39-.12.13-.19.27-1.55-.17.34.42,2.54,1.89,1.32,1.66-1.74-.68-1.29-.83-2-1.43.47.78-2.44-.41-2.4.42l1.57.49C339,88,338.36,87.92,338.72,88.21Z" fill="#b0906e"/>
            <path d="M344.42,88.22l.53.24A9.12,9.12,0,0,1,343.43,87c-.95-.28-1.2-.24-1.32-.16.84.47,1.69.91,2.51,1.39Z" fill="#b0906e"/>
            <path d="M347.25,89.71c-.61.16-1.92-.35-1.4.47,1.51.79,1.23.25,2.2.59-2.45-1.25.81.16-.81-1a11.43,11.43,0,0,1,1.35.63c-.4-.29-.78-.59-1.14-.87l0,0h0c.07.11.09.15,0,.06l-.05,0a.42.42,0,0,1-.19.09c-.66-.46-.06-.16.19-.09l.06,0h0L345,88.46A20.85,20.85,0,0,0,347.25,89.71Z" fill="#b0906e"/>
            <path d="M358,98.56c0-.08,0-.1,0-.13C357.82,98.38,357.74,98.37,358,98.56Z" fill="#b0906e"/>
            <path d="M357.2,97.74a1.77,1.77,0,0,1,1,.38c.4.4-.11.17-.16.31.39.1,1.32.46.39-.37l-.19,0c-.86-.71-1.8-1.9-1.6-1.85A3.57,3.57,0,0,0,357.2,97.74Z" fill="#b0906e"/>
            <path d="M352.16,93.73l-2.09-1,.83.9.06-.23C352,94.18,351.93,93.8,352.16,93.73Z" fill="#b0906e"/>
            <polygon points="341.85 86.5 342.33 86.24 340.85 86.19 341.85 86.5" fill="#b0906e"/>
            <polygon points="339.15 85.19 339.43 84.89 338.61 84.75 339.15 85.19" fill="#b0906e"/>
            <path d="M181.64,32.07H181A4.83,4.83,0,0,0,181.64,32.07Z" fill="#b0906e"/>
            <path d="M186.36,32.93l.15-.17C186.27,32.82,186.17,32.88,186.36,32.93Z" fill="#b0906e"/>
            <path d="M271.77,58.26c-.71-.75-1.43-1.74-1.52-1.29l.07.52A5.22,5.22,0,0,1,271.77,58.26Z" fill="#b0906e"/>
            <path d="M225.05,40.9l.22.21.76-.18Z" fill="#b0906e"/>
            <path d="M223.82,42.37l-1.12-.67A8.32,8.32,0,0,0,223.82,42.37Z" fill="#b0906e"/>
            <path d="M155.63,29.5l-.8.39C156,30,155.52,29.71,155.63,29.5Z" fill="#b0906e"/>
            <path d="M310.77,73.82a12,12,0,0,0-1.9-.93C309.75,73.45,310.4,74.07,310.77,73.82Z" fill="#b0906e"/>
            <path d="M184.31,27.83c-.42,0-.61.07-.61.17C184.13,28,184.38,28,184.31,27.83Z" fill="#b0906e"/>
            <path d="M306.57,72.1c.13.09.26.16.39.24a12.31,12.31,0,0,1,1.91.55A4.18,4.18,0,0,0,306.57,72.1Z" fill="#b0906e"/>
            <path d="M62.77,43.84l-.22,0C62.55,43.93,62.64,43.9,62.77,43.84Z" fill="#b0906e"/>
            <path d="M37.49,55.53c.15-.25.44-.62.7-1A6.08,6.08,0,0,0,37.49,55.53Z" fill="#b0906e"/>
            <path d="M328.27,80c.6.22.11,0,0,0Z" fill="#b0906e"/>
            <path d="M330.42,82.78c-.14,0-.26,0-.31.09A.38.38,0,0,1,330.42,82.78Z" fill="#b0906e"/>
            <path d="M299.79,72.63l-.05,0C299.89,72.75,299.86,72.73,299.79,72.63Z" fill="#b0906e"/>
            <path d="M329.08,80.53a7.13,7.13,0,0,0-.7-.44C328.49,80.17,328.7,80.31,329.08,80.53Z" fill="#b0906e"/>
            <path d="M329,80.29l.49.26C329.63,80.52,329.59,80.45,329,80.29Z" fill="#b0906e"/>
            <path d="M327.44,79.66a9.14,9.14,0,0,1,.94.43c-.11-.07-.14-.12-.11-.12Z" fill="#b0906e"/>
            <path d="M111.61,29.58l-.14,0C110.88,29.83,111.15,29.76,111.61,29.58Z" fill="#b0906e"/>
            <path d="M255.15,55.17h.08l-.08-.06Z" fill="#b0906e"/>
            <path d="M253,54.51a2.82,2.82,0,0,1,2.16.61L255,53.68Z" fill="#b0906e"/>
            <path d="M170.27,30.51l1.51.56c-2,.43-3.28.06-1.89.77.19-.66,1.7-.53,3.21-.39s3,.41,3.22-.25l1,.45c-.29-.06-.34,0-.63,0,1.88,1,1.62-.73,4.15-.13.88.24,1.47.53.83.6l2.05,0c.57.12.39.33-.19.21,1,.11,2,.3,3,.47l0,0a16.21,16.21,0,0,1,2-.28c.72.35-.42.06-.25.27l1.73,0c.61.48-.84.53-2,.25,1.29,1.64,1.45-.05,4.64,1.41l-1.6-.15c.85,1,2.13.94,3.79,1.77-.36-.33-3.29-1.91-1.41-1.87a4.62,4.62,0,0,0,2.18.32c-.09.46.87.58,2.06.85l-.23.6c1.31.14,1.29-.2,2.11-.29,1.4.42,1.58,1,1.81,1.46,2.24.67-1.38-1.16,1.34-.6a20,20,0,0,0,5.58,1c1.25.6-.33.31.09.62l1.3-.14c.28.09.14.22.07.28,1,.1.26-.59,1.85-.3.62-.55,2.87,1.92,5,1.72.41.32-.35.31-.28.59a41.62,41.62,0,0,0,4.69.36l1.68,1c-1.18-.91.7-.87,2.35-.8a12.44,12.44,0,0,0-1-.9l2.5.49c.25.2-.06.32-.54.44h.49c.77.51.21.71-.52.84l-.73-.67c-.71.17-1.4.39-1.4.79a2.82,2.82,0,0,1,.83.1c-.18,0-.31.1-.26.19s.35,0,.79,0l.31.85.22-.22,3,1.48a28.63,28.63,0,0,1,8.32,1c-1.06.16-.5.73-.77,1.28-.71-1-2.8-.78-4.54-1.59.91.42.6.62.32.62l3.42.69c-.25.44.55.61,1.31,1.13-.27-1.17,2.64.3,4.06.53-.05.35-.49.53-2.05-.15,1.48,1.36,2.71-.19,4.16,1.14-.38-.16-.57-.3-.79-.21,1,.11,3.11,1.28,2.48,1.33l-.38-.16c2.49,1.21,7.74,3.32,8.46,2.76a3.75,3.75,0,0,1-1,.87c1.89-.18,3.8-.34,5.71-.49-.71.48.05,2.77-2.2,2.15a7.72,7.72,0,0,0,2.59,1.21c-.36-.29-.55-1.44,0-1.23a17,17,0,0,0,2.44,2.44c-.54-.44.63-1.14,1.58-.64-.22.08-.42,1.06-.82,1l2.89.17c-.69-.11-.53.8-.14,1.35-.15-.32,2.06,1,2.75,1.25l-.9-.73c2.63,1.48,3.37-.1,6,1.25-.43,0-1.43.9-.12,1.69.88-.22,4-1.15,6.55-.46l.32.51,2,.49a37.28,37.28,0,0,1-7.54.25c.9.72.11.48,1.66,1.18.41.54-1,0-1.5-.17l3.51,1.86c.12-.67,3.05.65,3.14.07l-4.21-1.15c.13-.68,3.05-.68,5.55.55.55.53-1,.88-1,1.11a8,8,0,0,1,2.79.9l-1.24-.13c1.35.85,2.7.18,4.2,1.47.58.3,1.48,1.52,1.73,1.19-.71-1.1,0-3.37.84-3.66a37.09,37.09,0,0,1,3.43,2.51c.78.94-2,.78-1.33,1.58.1-.16.73-.16,1-.14.58.38-.46.44.95.87.47-.56,2.8,1.08.85-.31,1.42.31,1.39.66,3,1.2-.36-.6,1.92-.91,3.34-.62-.13.13.1.45.21.6,2.76,1,4.16,1.82,6.75,2.71.18.24,1.37.86.74,1a4.25,4.25,0,0,1,1.64.17c1.35,1.08-1.81-.53-.86.55.22-.34,2.24.19,3.46.35-.15-.7-2.59-1-3.81-1.18.26-.8,2.54-1,5.38-.38,2.22.56.75.84,1.16.86,4,1.58,3.95-.16,7.09,1.66,1.14,1-.32,1-.16,1.5-1.81-.47-2.56-1.32-3.75-1.73l1.37.77a6.35,6.35,0,0,1-2.41-.71c.95.84,6.76,2.57,9.64,4.27.61,0,1.61.27,1.25-.12l-1-.32c-.73-.77,2,.19.9-.5A13.24,13.24,0,0,1,332,83l.08.72c0-.19-1-.86-1.62-.91.88.07,2.43,2,3.58,1.65l-1.08-1c1.41.32,3.3.45,4.79,1.43-.46-.9-.39-.12-1.22-1.31.61,1.25-4.09-2-2.89-.37-.83-1.3-1.89-1.25-3.16-2.56,0,.2.4.59-.93-.1a1.42,1.42,0,0,1-.37,0l-.08,0,.06.06c-.07,0-.08,0,0,0a1.87,1.87,0,0,1,.57.58c-.85.12-3-.79-3.85-.87-.78-.43.42-.08.06-.46l-1.24-.11c.06-.46-1.9-1.55.13-1L323.11,78a9.58,9.58,0,0,0-3.26-1.4c-.79-.39-2.25-.29-1.42-.36l-2.83-.73v-.11c-2.69-1-5.82-1.24-8.65-3.07a15.56,15.56,0,0,1-3.41-1l-.17-.47c-1.21-.27-3.37-1.57-4-1.36-.9-1.42-5.53-2.2-7.46-3.15l-.26.45a44.15,44.15,0,0,0-4.51-1.43l-.07.46c-1.61-.25-3.64-1.84-5.94-2.82.23-.09.79.21,1.16.49-2.32-2.12-6.06-1.94-8.21-3.79A3.3,3.3,0,0,1,272.6,59l.16.05-.24-.13-.75-.63a3.94,3.94,0,0,0,.61.57,18.78,18.78,0,0,0-2-.76l-.09-.58-.16-.07c-.61-.5-.66-.07-.45.44a6,6,0,0,0-1.06-.19c-.21-1-1.95-.68-2.35-1.8-.65.13-3.67-1.47-4.42-.88,0-.11-.16-.26.22-.08a6.09,6.09,0,0,0-2.3-1.07l-.07-.72L257.65,53c-.88-.84-1.23-1.25,0-1.17-2.83-.54-2.16-.73-4.62-1.07l.27-.31c-.78-.36-2.24-.4-2.58-.9-.71-.72-2.86-1.68-5.35-2.78l-3.86-1.73a37.58,37.58,0,0,1-3.64-1.74c.46,1.43-1.92-1.3-2.43-.53-.17-.36-.75-.75.08-.69-2.43-.64-3.34-1.78-5.22-1.64-.18-.36.64-.21.46-.45-.21,0-.84,0-1-.27s.43-.1.84-.08c-2.43-.78-3-.07-3.39.63a3.14,3.14,0,0,0-2.77-.74c-.34-.39-1-.89.57-.47-.83-.32-5-2.12-5.3-1.54a3,3,0,0,0-1.42-.4c-1.9-.6-2.05-.71-3.94-1.21l.48.26c-1,.52-1.6-.3-3.14-.66l.07-.06c-3.32-1.54-1.55-.24-4.83-1.76l.06.51c-.59.92-2.9-1.36-5-1.48l.65.45c-1.17.06-2.72-2.14-3.8-2.54-.22-.15.41,0,.76,0-2.76-1.32-.52.51-2.71.11-.32-.41.72-.73-.74-1.09-.68-.42-4.49.19-6.35-.85.39.34.77.69-.27.67-1.57-.2-4-1.88-5.57-1.24-.18-.11-.24-.19-.24-.25-1.23,0-3.94-.27-4.73.05-.42-.9-2.31-1-4.05-1.06s-3.35.05-3.24-.73L168,25.92l.12-.14A7.54,7.54,0,0,0,164,26c-.54-.16-.13-.26-.07-.33a14.74,14.74,0,0,0-3.55-.46,18.23,18.23,0,0,0-3.19.45l-.27-.51a14.75,14.75,0,0,1-3.21-.41,15.73,15.73,0,0,0-5.19-.23c0-.06.11-.15.38-.22-3.84.54-9.2-1.53-10.59.31l-2.52.53c3.27,0-.46.81.88,1.06-1.27.15-3.32-.43-1.75-.58l.25.08c.55-1-4.06-.18-4-.82-1.61.09-3.21.07-4.79.17l-4.73.26a83.75,83.75,0,0,0-9.21.72l.78.62-2.08.27c-.57-.09-.82-.46.68-.65a3.26,3.26,0,0,0-2.47.88c-2.95.13,1-1,.12-.9l-1.21.23.29,0a5.85,5.85,0,0,1-2.77,1c-1.15,0-.65-.36-1.1-.32,0-.05-.16-.05-.69.08l-2.62.48,1.15.35c-1.1.52-2.45.47-1.13.87-1-.32-3.41.1-5.75.58-1.16.24-2.31.48-3.23.7a11.33,11.33,0,0,1-1.89.41,18.94,18.94,0,0,1-5,1.72c.51,0,1,.54-.72.91.13-.73-.68-.66-1.72-.48-.52.09-1.1.2-1.65.27A3.79,3.79,0,0,1,80,33c1.38.21-4.64,1.73-2.49,2-1.4.36-.24-.45-1.38-.4a26.85,26.85,0,0,1-5.33,1.84,59.9,59.9,0,0,0-5.87,1.85c0,.19.75.21,0,.76l-2.4-.1c-.77.37-.39,1.22-2,1.17.26.06.64.16.13.41a41,41,0,0,0-11.78,5.24A88.35,88.35,0,0,0,38.2,53.89c1.06-.69.52-.09,0,.66.42-.42.33.28.59.34-.88.84-1.87,1.64-2.68,2.58.1.47-.42,1.3-.91,2.1s-.86,1.64-.67,2L35,60.45c0,.86.59.58,1.29.2s1.57-.81,1.91-.47A4.08,4.08,0,0,1,40,57.74a9.61,9.61,0,0,0,1.32-1.31,4.52,4.52,0,0,0,1-1.71c.53-.3-.1.58.27.49a2.62,2.62,0,0,1,.49-1.12,7.12,7.12,0,0,1,1.33-1.18l0,.19c.37-.36.7-.71,1.06-1l1-.8,1-.7,1-.6a23.88,23.88,0,0,1,2.16-1.16c.8-.4,1.68-.84,2.76-1.3l-.53-.26a5.18,5.18,0,0,1,1.65-.48c.72-1.18-2.54,1.26-2,.08a3.88,3.88,0,0,0,1.71-.41c.71-.25,1.51-.62,2.3-1,1.62-.66,3.22-1.26,3.85-.9,1.48-.56-.63-.35.85-.91l.5.14.25-.5c1-.29,1.63-.12,1.75.1a7.26,7.26,0,0,0-.9.42c1.38-.13,3.58-1.38,4.06-1.43l-1.52.33c2-.84,4.37-1.65,6.66-2.47a52,52,0,0,0,6.4-2.54L78,37.62a9.76,9.76,0,0,1,2.77-1,23.93,23.93,0,0,0,3.07-.81l-.11.08a8.4,8.4,0,0,1,2.45-1c-.79.48,1.76,0,.7.63,3.25-1.33,1.57-.78,3.6-2.19l.6.22a5,5,0,0,1,2.4-1.25c-1.35.62,1.23.3-.26,1.07,3.79,0,5.21-1.92,7.12-1.11C101.8,31,97.08,32.39,98,32c-.85-.16,1.23-1,2.39-1.17s2.22.83,5.14.31c-.29,0-.3.12-.59.15,1.14.1,2.1-.66,3.52-.44.66-.73,1.75-.23,1.85-1l-2.67.58c1.49-.43,2.8-1.56,5.4-1.49a5.45,5.45,0,0,1-1.4.7c.77.12,1.4-.37,2.2-.24-.11.82-3.26.66-4.81,1.49.84.22,3-1,2.31,0,1-1.25,2.91-.3,4.8-1.4l-.08.48a6.24,6.24,0,0,1,1.53-.43l-1,.71c1.57-.67,3.17.17,4.69-.25-3.24.31-.78-.51-2.19-.72,4-1,2.43,1,6.89.38-.6.13-2.3-.07-1.37-.38a10.13,10.13,0,0,1,2.55.3c3-.24-.49-.48.76-.83,1,.54,1.45-.29,2.76-.52l0,.48c3.43.18.87-1,4-.78l-1.28.72,1.6-.23-.32.56a9.65,9.65,0,0,1,4-.3c-.4-.33.21-.9,1.73-.88,1,.31-.57.45,1.57.42a1.74,1.74,0,0,1-2,.2c-.09.16-.47.3-.57.45a12.91,12.91,0,0,0,3.56.13,4.25,4.25,0,0,1-.84-.13l3.12-.62c.48.19.09.33-.29.46.62,0,1.06-.26,2-.28-.25.38-.2.79-1.51,1l3-.4c.2.17,1.5.49,1.11.63,1.62.26,4-.52,6.2-.1a2.16,2.16,0,0,1,.81-.15c2,.24,3.8.76,6.25.48l1.3.86c1.9,0-1.76-1.09,1.4-1,2.25,0,.77.69,1.53,1a8.64,8.64,0,0,1,5.12.07A15.64,15.64,0,0,1,170.27,30.51Zm23.13,3.65c-.47,0-1.42.13-1.69-.21C192.33,33.51,192.67,33.85,193.4,34.16ZM228,42.89a2.22,2.22,0,0,1-1.34-.56A4.41,4.41,0,0,1,228,42.89Zm93.64,34.88h-.06C320.71,77.23,321,77.43,321.66,77.77Zm1.92,1c.23,0,.24,0,.18-.15a2.46,2.46,0,0,1-1.13-.33C322.72,78.42,323,78.59,323.58,78.73ZM104.47,27.35l.44.06C104,27.69,104.24,27.53,104.47,27.35Z" fill="#b0906e"/>
            <path d="M224,42.21a.42.42,0,0,1-.1-.31C223.68,41.91,223.64,42,224,42.21Z" fill="#b0906e"/>
            <path d="M155.78,29.42h-.07a.22.22,0,0,0-.08.09Z" fill="#b0906e"/>
            <path d="M291.16,71.56a2.48,2.48,0,0,1-.7-.53C290.39,71.13,290.54,71.3,291.16,71.56Z" fill="#b0906e"/>
            <path d="M334.39,82.45,333.08,82a3.52,3.52,0,0,1,1.06.67C334.16,82.53,334,82.27,334.39,82.45Z" fill="#b0906e"/>
            <path d="M343.67,90.44c.2,0,.37.19.57.23l.06-.22C343.55,90.06,343,89.94,343.67,90.44Z" fill="#b0906e"/>
            <path d="M334.86,84.44c-.07.41.77.63,1.66,1l-.16-.08C336.87,85,335.87,84.69,334.86,84.44Z" fill="#b0906e"/>
            <path d="M336.72,85.52a7.4,7.4,0,0,1,.8.39C337.72,85.75,337.22,85.71,336.72,85.52Z" fill="#b0906e"/>
            <path d="M326.21,79.48c.39.28.46-.37.64-.11C327.52,79.07,323.79,78.8,326.21,79.48Z" fill="#b0906e"/>
            <polygon points="334.99 85.97 334.9 85.37 334.24 85.51 334.99 85.97" fill="#b0906e"/>
            <path d="M328.29,82.54l1.34.74c0-.09.21-.06.44,0C329.22,82.89,328.31,82.39,328.29,82.54Z" fill="#b0906e"/>
            <path d="M330.07,83.28a4.62,4.62,0,0,0,1.16.42A11.41,11.41,0,0,0,330.07,83.28Z" fill="#b0906e"/>
            <polygon points="333.04 85.23 332.68 84.94 331.72 84.46 333.04 85.23" fill="#b0906e"/>
            <path d="M313,76.62l-1.61-.41c-.22.1.17.35.78.49C312.6,76.72,313.21,76.86,313,76.62Z" fill="#b0906e"/>
            <path d="M317.29,79.6a1.61,1.61,0,0,1-.56-.61l-.26.56Z" fill="#b0906e"/>
            <path d="M312.69,78.11c-.21.11-2.43-.33-.44.33C312.47,78.33,314.08,78.75,312.69,78.11Z" fill="#b0906e"/>
            <polygon points="289.36 69.06 289.75 69.2 290.06 68.23 289.36 69.06" fill="#b0906e"/>
            <path d="M268.14,62.27c1.66,1.09.69-.36,2.16.69.53,0-1.2-.86-.68-.84C268.44,61.83,267.94,61.43,268.14,62.27Z" fill="#b0906e"/>
            <path d="M269.62,62.12a5,5,0,0,0,.61.13A3.7,3.7,0,0,0,269.62,62.12Z" fill="#b0906e"/>
            <polygon points="34.33 59.3 33.52 60.38 34.22 59.78 34.33 59.3" fill="#b0906e"/>
            <path d="M33.81,61.9h-.72l.15,1C33.36,62.57,33.57,62,33.81,61.9Z" fill="#b0906e"/>
            <path d="M196.51,36.17l.12-.13c-.15-.21-.43-.3-1-.46Z" fill="#b0906e"/>
            <polygon points="179.98 32.44 180.26 32.5 179.82 31.84 179.98 32.44" fill="#b0906e"/>
            <path d="M165.81,31.28c.57.09,1.26,0,1.84.12C166.38,31.37,165.73,30.53,165.81,31.28Z" fill="#b0906e"/>
          </g>
        </g>
      </g>
    </g>
  </g>
</svg>
