<svg xmlns="http://www.w3.org/2000/svg" viewBox="0 0 370.25 66.78">
  <title>overskrift</title>
  <g id="Layer_2" data-name="Layer 2">
    <g id="Layer_1-2" data-name="Layer 1">
      <g>
        <path d="M35.2,29.67v2.39c0,6.87-2.1,11.16-6.77,13.35v.19c5.63,2.2,7.82,7.16,7.82,14.22v5.44c0,10.3-5.44,15.83-15.93,15.83H3.82V14.31H19.65C30.53,14.31,35.2,19.37,35.2,29.67ZM14.31,23.85V41.5h4.1c3.91,0,6.3-1.72,6.3-7.06V30.72c0-4.77-1.62-6.87-5.34-6.87Zm0,27.19V71.55h6c3.53,0,5.44-1.62,5.44-6.58V59.15c0-6.2-2-8.11-6.78-8.11Z" transform="translate(-3.82 -14.31)" fill="#2a1000"/>
        <path d="M42.55,14.31H53V71.55H70.31v9.54H42.55Z" transform="translate(-3.82 -14.31)" fill="#2a1000"/>
        <path d="M74.89,14.31H85.38V81.09H74.89Z" transform="translate(-3.82 -14.31)" fill="#2a1000"/>
        <path d="M102.55,32.72h-.19V81.09H92.92V14.31h13.16l10.59,40h.19v-40h9.35V81.09H115.43Z" transform="translate(-3.82 -14.31)" fill="#2a1000"/>
        <path d="M147.49,54.48l-3.25,6.1V81.09H133.75V14.31h10.49V43.22h.19L158,14.31h10.49L153.88,44.08l14.59,37H157.69Z" transform="translate(-3.82 -14.31)" fill="#2a1000"/>
        <path d="M183.74,42.46h14.4V52h-14.4V71.55h18.12v9.54H173.24V14.31h28.62v9.54H183.74Z" transform="translate(-3.82 -14.31)" fill="#2a1000"/>
        <path d="M217.89,32.72h-.19V81.09h-9.44V14.31h13.16l10.59,40h.19v-40h9.35V81.09H230.77Z" transform="translate(-3.82 -14.31)" fill="#2a1000"/>
        <path d="M280.47,29.67v2.39c0,6.87-2.09,11.16-6.77,13.35v.19c5.63,2.2,7.82,7.16,7.82,14.22v5.44c0,10.3-5.43,15.83-15.93,15.83h-16.5V14.31h15.83C275.8,14.31,280.47,19.37,280.47,29.67Zm-20.89-5.82V41.5h4.1c3.92,0,6.3-1.72,6.3-7.06V30.72c0-4.77-1.62-6.87-5.34-6.87Zm0,27.19V71.55h6c3.53,0,5.44-1.62,5.44-6.58V59.15c0-6.2-2-8.11-6.77-8.11Z" transform="translate(-3.82 -14.31)" fill="#2a1000"/>
        <path d="M287.82,14.31h10.49V81.09H287.82Z" transform="translate(-3.82 -14.31)" fill="#2a1000"/>
        <path d="M319.68,54.48l-3.24,6.1V81.09H306V14.31h10.49V43.22h.19l13.55-28.91h10.49l-14.6,29.77,14.6,37H329.89Z" transform="translate(-3.82 -14.31)" fill="#2a1000"/>
        <path d="M355.94,42.46h14.4V52h-14.4V71.55h18.12v9.54H345.44V14.31h28.62v9.54H355.94Z" transform="translate(-3.82 -14.31)" fill="#2a1000"/>
      </g>
    </g>
  </g>
</svg>
