<svg id="Layer_1" data-name="Layer 1" xmlns="http://www.w3.org/2000/svg" viewBox="0 0 524.7 76.08">
  <title>overskrift</title>
  <g>
    <path d="M19.59,36H37q10.62,0,15.46,4.12T57.28,53.2a18,18,0,0,1-2.56,9.89,10.35,10.35,0,0,1-7,4.83v.46c3.85,1,6.63,2.77,8.34,5.4s2.56,6.15,2.56,10.53q0,9.27-5,14.51t-13.58,5.24H19.59ZM31.52,63.35h5.82q4,0,5.64-2.14c1.08-1.43,1.63-3.56,1.63-6.38S44,50,42.74,48.75s-3.19-1.84-5.86-1.84H31.52Zm0,10.58V93H37.9q4,0,5.89-2.42t1.94-7.5q0-9.14-8-9.13Z" transform="translate(-19.59 -31.58)" fill="#2a1000"/>
    <path d="M79.59,104.06H67.2V31.58H79.59Z" transform="translate(-19.59 -31.58)" fill="#2a1000"/>
    <path d="M89.56,38.62a6.59,6.59,0,0,1,1.79-4.87,6.77,6.77,0,0,1,5-1.8A6.22,6.22,0,0,1,103,38.62a6.4,6.4,0,0,1-1.86,4.91,6.75,6.75,0,0,1-4.8,1.75,7,7,0,0,1-4.94-1.75A6.4,6.4,0,0,1,89.56,38.62Zm12.9,65.44H90.07V52.17h12.39Z" transform="translate(-19.59 -31.58)" fill="#2a1000"/>
    <path d="M138.94,104.06V73.13c0-3.75-.45-6.6-1.35-8.52a4.54,4.54,0,0,0-4.38-2.89,6.15,6.15,0,0,0-5.87,4q-1.86,4-1.86,13.44v24.92H113.09V52.17h9.82l1.49,6.66h.8a12.83,12.83,0,0,1,12.11-7.64q7.08,0,10.6,4.85t3.51,14.16v33.86Z" transform="translate(-19.59 -31.58)" fill="#2a1000"/>
    <path d="M173.64,76.12l3.12-6.2L187,52.17h13.14L187,73.46l14,30.6H188l-9.37-21.94-4.84,4.38v17.56H161.44V31.58h12.39V65.73l-.56,10.39Z" transform="translate(-19.59 -31.58)" fill="#2a1000"/>
    <path d="M225.54,105q-9.73,0-15.35-6.92t-5.62-19.59q0-12.85,5.08-20.08a16.36,16.36,0,0,1,14.16-7.22q8.49,0,13.37,6.18t4.89,17.3v6.61H217.15q.15,6.94,2.84,10.32A9,9,0,0,0,227.45,95a24.23,24.23,0,0,0,12.39-3.77v10.2A27.26,27.26,0,0,1,225.54,105Zm-1.82-44.26a5.06,5.06,0,0,0-4.38,2.82c-1.15,1.88-1.81,4.79-2,8.73h12.58c-.07-3.78-.64-6.66-1.73-8.61A5,5,0,0,0,223.72,60.74Z" transform="translate(-19.59 -31.58)" fill="#2a1000"/>
    <path d="M276.13,104.06V73.13c0-3.75-.45-6.6-1.35-8.52a4.55,4.55,0,0,0-4.38-2.89,6.15,6.15,0,0,0-5.87,4q-1.87,4-1.87,13.44v24.92H250.27V52.17h9.83l1.49,6.66h.79a12.83,12.83,0,0,1,12.12-7.64q7.08,0,10.59,4.85t3.52,14.16v33.86Z" transform="translate(-19.59 -31.58)" fill="#2a1000"/>
    <path d="M299.37,36h17.38q10.62,0,15.46,4.12t4.85,13.12a17.89,17.89,0,0,1-2.57,9.89,10.31,10.31,0,0,1-7,4.83v.46c3.85,1,6.63,2.77,8.34,5.4s2.56,6.15,2.56,10.53q0,9.27-5,14.51t-13.58,5.24h-20.5ZM311.3,63.35h5.82q4,0,5.64-2.14c1.08-1.43,1.63-3.56,1.63-6.38s-.63-4.86-1.87-6.08-3.2-1.84-5.87-1.84H311.3Zm0,10.58V93h6.38q4,0,5.89-2.42t1.93-7.5q0-9.14-8-9.13Z" transform="translate(-19.59 -31.58)" fill="#2a1000"/>
    <path d="M346.56,38.62a6.59,6.59,0,0,1,1.79-4.87,6.77,6.77,0,0,1,5-1.8,6.61,6.61,0,0,1,4.85,1.8A6.53,6.53,0,0,1,360,38.62a6.4,6.4,0,0,1-1.86,4.91,6.75,6.75,0,0,1-4.8,1.75,7,7,0,0,1-4.94-1.75A6.4,6.4,0,0,1,346.56,38.62Zm12.9,65.44H347.07V52.17h12.39Z" transform="translate(-19.59 -31.58)" fill="#2a1000"/>
    <path d="M382.29,76.12l3.12-6.2,10.25-17.75H408.8L395.66,73.46l14,30.6h-13l-9.36-21.94-4.84,4.38v17.56h-12.4V31.58h12.4V65.73l-.56,10.39Z" transform="translate(-19.59 -31.58)" fill="#2a1000"/>
    <path d="M434.18,105q-9.74,0-15.35-6.92t-5.61-19.59q0-12.85,5.08-20.08a16.33,16.33,0,0,1,14.16-7.22q8.48,0,13.37,6.18t4.89,17.3v6.61H425.8q.13,6.94,2.84,10.32A9,9,0,0,0,436.09,95a24.18,24.18,0,0,0,12.39-3.77v10.2A27.23,27.23,0,0,1,434.18,105Zm-1.81-44.26A5,5,0,0,0,428,63.56q-1.73,2.82-2,8.73h12.58c-.06-3.78-.64-6.66-1.72-8.61A5,5,0,0,0,432.37,60.74Z" transform="translate(-19.59 -31.58)" fill="#2a1000"/>
  </g>
  <circle cx="487.91" cy="39.29" r="35.79" fill="none" stroke="#070102" stroke-miterlimit="10" stroke-width="2"/>
  <polygon points="501.24 16.2 474.58 16.2 461.25 39.28 474.58 62.37 501.24 62.37 514.56 39.28 501.24 16.2" fill="none" stroke="#070102" stroke-miterlimit="10" stroke-width="2"/>
</svg>
