<svg id="Layer_1" data-name="Layer 1" xmlns="http://www.w3.org/2000/svg" viewBox="0 0 524.7 76.08">
  <title>blinkenbike-logo</title>
  <g>
    <path d="M0,4.42H17.41Q28,4.42,32.87,8.54t4.82,13.08a18,18,0,0,1-2.56,9.89,10.32,10.32,0,0,1-7,4.83v.46c3.85,1,6.63,2.77,8.34,5.4S39,48.35,39,52.73Q39,62,34,67.24T20.45,72.48H0ZM11.93,31.77h5.82q4,0,5.64-2.14C24.47,28.2,25,26.07,25,23.25s-.61-4.83-1.87-6.08S20,15.33,17.29,15.33H11.93Zm0,10.58V61.42h6.38q4,0,5.89-2.42t1.94-7.5q0-9.14-8-9.13Z" fill="#2a1000"/>
    <path d="M60,72.48H47.61V0H60Z" fill="#2a1000"/>
    <path d="M70,7a6.6,6.6,0,0,1,1.79-4.87,6.74,6.74,0,0,1,5-1.8,6.22,6.22,0,0,1,6.65,5.76,6.91,6.91,0,0,1,0,.91A6.42,6.42,0,0,1,81.55,12a6.74,6.74,0,0,1-4.8,1.75A7,7,0,0,1,71.81,12,6.38,6.38,0,0,1,70,7Zm12.9,65.44H70.48V20.59H82.87Z" fill="#2a1000"/>
    <path d="M119.35,72.48V41.55c0-3.75-.45-6.6-1.35-8.52a4.55,4.55,0,0,0-4.38-2.89,6.14,6.14,0,0,0-5.87,4q-1.86,4-1.86,13.44V72.5H93.5V20.59h9.82l1.49,6.66h.8a12.84,12.84,0,0,1,12.11-7.64q7.08,0,10.6,4.85t3.51,14.16V72.48Z" fill="#2a1000"/>
    <path d="M154.05,44.54l3.12-6.2,10.24-17.75h13.14L167.41,41.88l14,30.6h-13L159,50.54l-4.84,4.38V72.48H141.85V0h12.39V34.15l-.56,10.39Z" fill="#2a1000"/>
    <path d="M206,73.42q-9.73,0-15.35-6.92T185,46.91q0-12.85,5.08-20.08a16.38,16.38,0,0,1,14.16-7.22q8.49,0,13.37,6.18t4.89,17.3V49.7H197.56q.15,6.94,2.84,10.32a9,9,0,0,0,7.46,3.4,24.2,24.2,0,0,0,12.39-3.77v10.2A27.24,27.24,0,0,1,206,73.42Zm-1.82-44.26A5.06,5.06,0,0,0,199.75,32c-1.15,1.88-1.81,4.79-2,8.73h12.58c-.07-3.78-.64-6.66-1.73-8.61a5,5,0,0,0-4.47-2.94Z" fill="#2a1000"/>
    <path d="M256.54,72.48V41.55c0-3.75-.45-6.6-1.35-8.52a4.56,4.56,0,0,0-4.38-2.89,6.14,6.14,0,0,0-5.87,4q-1.87,4-1.87,13.44V72.5H230.68V20.59h9.83L242,27.25h.79a12.82,12.82,0,0,1,12.12-7.64q7.08,0,10.59,4.85T269,38.62V72.48Z" fill="#2a1000"/>
    <path d="M279.78,4.42h17.38q10.62,0,15.46,4.12t4.85,13.12a17.91,17.91,0,0,1-2.57,9.89,10.32,10.32,0,0,1-7,4.83v.46c3.85,1,6.63,2.77,8.34,5.4s2.56,6.15,2.56,10.53q0,9.27-5,14.51t-13.58,5.24h-20.5Zm11.93,27.35h5.82q4,0,5.64-2.14c1.08-1.43,1.63-3.56,1.63-6.38s-.63-4.86-1.87-6.08-3.2-1.84-5.87-1.84h-5.35Zm0,10.58V61.42h6.38q4,0,5.89-2.42t1.93-7.5q0-9.14-8-9.13Z" fill="#2a1000"/>
    <path d="M327,7a6.6,6.6,0,0,1,1.79-4.87,6.74,6.74,0,0,1,5-1.8,6.64,6.64,0,0,1,4.85,1.8A6.51,6.51,0,0,1,340.41,7,6.42,6.42,0,0,1,338.55,12a6.74,6.74,0,0,1-4.8,1.75A7,7,0,0,1,328.81,12,6.38,6.38,0,0,1,327,7Zm12.9,65.44H327.48V20.59h12.39Z" fill="#2a1000"/>
    <path d="M362.7,44.54l3.12-6.2,10.25-17.75h13.14L376.07,41.88l14,30.6h-13l-9.36-21.94-4.84,4.38V72.48h-12.4V0h12.4V34.15l-.56,10.39Z" fill="#2a1000"/>
    <path d="M414.59,73.42q-9.73,0-15.35-6.92t-5.61-19.59q0-12.85,5.08-20.08a16.32,16.32,0,0,1,14.16-7.22q8.47,0,13.37,6.18t4.89,17.3V49.7H406.21q.14,6.94,2.84,10.32a9,9,0,0,0,7.45,3.4,24.2,24.2,0,0,0,12.39-3.77v10.2A27.24,27.24,0,0,1,414.59,73.42Zm-1.81-44.26A5,5,0,0,0,408.41,32q-1.73,2.82-2,8.73H419c-.06-3.78-.64-6.66-1.72-8.61A5,5,0,0,0,412.78,29.16Z" fill="#2a1000"/>
  </g>
  <circle cx="487.91" cy="39.29" r="35.79" fill="#6e4c68" stroke="#6e4c68" stroke-miterlimit="10" stroke-width="2"/>
  <polygon points="501.24 16.2 474.58 16.2 461.25 39.28 474.58 62.37 501.24 62.37 514.56 39.28 501.24 16.2" fill="#e2c59c" stroke="#e2c59c" stroke-miterlimit="10" stroke-width="2"/>
</svg>
